<?xml version="1.0" standalone="no"?><!DOCTYPE svg PUBLIC "-//W3C//DTD SVG 1.1//EN" "http://www.w3.org/Graphics/SVG/1.1/DTD/svg11.dtd"><svg height="1024" node-id="1" sillyvg="true" template-height="1024" template-width="1024" version="1.1" viewBox="0 0 1024 1024" width="1024" xmlns="http://www.w3.org/2000/svg" xmlns:xlink="http://www.w3.org/1999/xlink"><defs node-id="26"></defs><g node-id="142"><path d="M 692.90 488.30 L 693.30 485.60 L 694.00 483.30 L 695.00 481.30 L 698.10 478.00 L 700.10 476.60 L 707.00 473.10 L 722.00 467.20 L 729.20 463.40 L 736.00 459.20 L 742.50 454.60 L 748.90 449.50 L 745.60 443.90 L 740.10 433.30 L 736.80 425.30 L 734.10 417.30 L 732.00 409.20 L 730.10 400.70 L 727.40 382.60 L 718.40 388.30 L 712.20 391.00 L 708.60 392.10 L 707.50 400.50 L 705.90 408.50 L 704.00 416.10 L 701.60 423.30 L 698.80 430.10 L 695.50 436.80 L 691.90 443.20 L 687.90 449.40 L 683.50 455.30 L 678.70 461.00 L 672.30 467.70 L 665.40 474.20 L 657.80 480.50 L 649.70 486.60 L 649.70 517.50 L 658.10 519.70 L 666.50 522.40 L 699.60 534.80 L 707.80 537.20 L 732.50 543.30 L 739.20 545.30 L 745.70 547.60 L 751.90 550.40 L 757.80 553.50 L 763.60 557.00 L 769.00 560.80 L 774.10 565.00 L 778.90 569.50 L 783.30 574.40 L 787.30 579.50 L 791.00 585.00 L 794.20 590.80 L 796.90 596.80 L 799.10 603.20 L 800.80 609.80 L 802.00 616.90 L 802.60 622.80 L 803.20 636.20 L 802.90 670.00 L 802.90 828.90 L 803.30 842.90 L 802.90 850.80 L 801.40 856.10 L 800.10 858.40 L 798.40 860.30 L 796.20 861.80 L 794.40 862.50 L 789.40 863.10 L 786.10 862.90 L 783.70 861.00 L 781.70 858.70 L 780.20 856.00 L 778.20 849.80 L 777.60 846.30 L 777.20 840.90 L 777.20 835.20 L 778.30 813.70 L 778.30 725.50 L 768.40 725.30 L 738.60 725.50 L 738.40 731.00 L 736.30 740.30 L 725.70 772.40 L 722.90 783.00 L 723.70 789.40 L 726.40 800.90 L 734.00 830.20 L 738.20 849.10 L 738.60 852.80 L 737.30 855.70 L 734.30 860.00 L 730.70 862.50 L 728.70 863.30 L 724.80 863.60 L 722.20 863.00 L 719.80 861.80 L 717.40 860.00 L 714.70 856.30 L 713.60 853.90 L 709.20 840.50 L 705.10 826.40 L 701.20 810.90 L 698.00 796.20 L 696.10 784.80 L 696.30 779.00 L 697.00 775.10 L 700.40 762.60 L 711.10 730.30 L 712.20 725.70 L 712.70 722.00 L 713.00 717.00 L 712.40 681.60 L 713.40 671.60 L 714.10 668.80 L 716.00 665.10 L 717.90 663.30 L 719.90 662.10 L 722.10 661.30 L 724.40 661.00 L 726.70 661.00 L 731.20 662.30 L 733.30 663.40 L 735.10 665.00 L 736.60 666.70 L 737.80 668.80 L 738.50 671.20 L 738.80 673.30 L 738.90 684.40 L 738.60 698.60 L 778.30 698.60 L 778.30 652.60 L 777.50 632.10 L 776.50 622.60 L 775.40 616.40 L 773.90 610.50 L 772.00 604.90 L 769.70 599.50 L 766.80 594.50 L 763.40 589.70 L 760.50 586.40 L 757.10 583.30 L 753.30 580.30 L 749.00 577.40 L 744.60 575.00 L 734.00 570.50 L 727.60 568.60 L 703.00 562.40 L 693.20 559.20 L 687.50 556.90 L 679.00 575.70 L 670.90 594.70 L 666.30 606.60 L 662.90 613.30 L 659.60 617.70 L 657.60 619.40 L 655.50 620.60 L 653.20 621.30 L 651.40 621.50 L 647.10 620.70 L 644.50 619.70 L 636.50 614.90 L 614.10 599.20 L 595.60 585.10 L 585.30 591.90 L 557.80 612.40 L 547.50 618.90 L 543.00 621.20 L 540.30 622.10 L 538.00 622.40 L 536.10 622.20 L 534.20 621.50 L 530.90 619.20 L 528.90 616.70 L 525.60 610.50 L 509.80 569.00 L 505.60 556.90 L 487.30 562.40 L 451.10 575.00 L 448.20 590.70 L 446.60 597.80 L 444.60 603.90 L 443.00 607.80 L 441.00 611.30 L 438.80 614.60 L 436.10 617.50 L 432.90 620.30 L 429.10 622.80 L 425.00 624.90 L 420.10 626.90 L 414.10 628.80 L 407.50 674.20 L 406.90 683.00 L 407.20 687.10 L 407.70 689.70 L 408.50 692.00 L 409.60 693.80 L 412.00 695.90 L 413.60 696.50 L 415.60 696.90 L 436.70 698.10 L 447.20 698.60 L 457.70 698.60 L 457.30 686.60 L 457.60 677.00 L 458.30 672.80 L 459.00 670.10 L 460.00 668.00 L 461.10 666.40 L 464.80 663.90 L 467.00 663.10 L 469.30 662.60 L 473.80 662.80 L 475.90 663.50 L 477.90 664.60 L 479.60 666.20 L 481.70 670.00 L 482.50 673.00 L 483.20 677.60 L 483.70 683.40 L 483.80 695.80 L 483.30 720.50 L 484.00 729.40 L 486.70 739.90 L 496.80 772.40 L 498.80 781.70 L 499.00 787.10 L 497.30 797.60 L 495.80 802.90 L 488.10 826.70 L 485.90 834.70 L 484.60 840.20 L 483.30 851.00 L 480.30 856.00 L 476.80 860.50 L 474.70 862.20 L 472.30 863.50 L 470.50 863.90 L 466.30 863.90 L 463.70 863.30 L 460.00 861.40 L 458.80 860.30 L 457.40 858.40 L 456.50 856.20 L 456.00 853.80 L 455.90 849.90 L 456.50 845.70 L 457.50 841.50 L 467.20 808.60 L 470.10 797.60 L 472.30 786.60 L 471.20 779.70 L 469.50 772.90 L 461.20 746.30 L 457.70 733.10 L 453.90 754.00 L 451.70 764.50 L 449.00 774.70 L 447.50 779.00 L 445.70 783.10 L 441.10 790.60 L 437.40 795.10 L 433.30 799.20 L 428.70 802.80 L 423.80 806.00 L 418.70 808.70 L 413.20 810.90 L 407.60 812.50 L 401.90 813.50 L 396.00 814.00 L 391.60 813.90 L 382.90 812.70 L 378.50 811.60 L 373.60 809.80 L 369.10 807.60 L 364.90 805.00 L 361.10 802.10 L 356.30 797.70 L 351.90 792.80 L 348.00 787.30 L 341.00 775.40 L 337.90 768.90 L 333.60 758.90 L 321.90 728.10 L 317.80 718.30 L 313.50 709.20 L 306.20 708.10 L 301.20 706.90 L 298.20 705.80 L 296.00 704.50 L 294.40 703.20 L 293.20 701.60 L 292.40 699.70 L 291.90 697.50 L 291.90 693.90 L 292.40 689.10 L 296.40 668.50 L 297.70 659.50 L 294.00 655.80 L 291.00 652.10 L 288.80 648.30 L 287.10 644.40 L 286.00 640.30 L 285.40 635.90 L 285.40 631.00 L 285.90 625.70 L 266.10 630.80 L 253.50 634.50 L 241.20 638.70 L 235.60 640.90 L 228.00 644.70 L 225.80 646.20 L 220.70 650.80 L 217.30 653.40 L 213.80 655.50 L 210.20 657.10 L 206.40 658.40 L 202.60 659.20 L 198.90 659.50 L 195.20 659.50 L 187.80 658.30 L 180.80 655.70 L 174.50 651.80 L 169.00 646.70 L 164.50 640.60 L 161.30 633.40 L 160.20 629.60 L 159.60 625.60 L 159.30 621.30 L 159.50 616.70 L 161.30 604.40 L 186.10 462.90 L 189.10 443.00 L 191.20 432.70 L 192.60 428.10 L 194.00 424.60 L 196.20 420.90 L 198.50 417.70 L 201.10 414.90 L 207.00 410.20 L 210.20 408.40 L 217.10 405.80 L 221.90 404.90 L 226.70 404.60 L 231.60 404.90 L 236.50 405.80 L 241.30 407.30 L 245.90 409.40 L 249.20 411.40 L 255.30 416.30 L 260.50 422.60 L 262.70 426.20 L 264.70 430.20 L 266.30 434.60 L 300.70 461.90 L 320.40 476.50 L 330.60 483.40 L 340.60 489.60 L 354.00 496.70 L 360.30 499.40 L 366.70 501.80 L 372.70 503.40 L 378.40 504.30 L 380.50 504.20 L 382.90 503.70 L 390.20 501.40 L 392.50 501.00 L 398.50 501.80 L 407.90 504.00 L 427.90 509.70 L 434.00 511.90 L 438.20 514.10 L 441.80 516.50 L 445.00 519.20 L 447.60 522.20 L 449.90 525.40 L 451.80 528.90 L 453.30 532.70 L 454.40 536.80 L 455.20 541.10 L 455.50 545.80 L 514.50 526.70 L 544.50 517.50 L 544.50 486.60 L 537.30 482.20 L 530.60 477.40 L 524.40 472.50 L 518.80 467.30 L 513.60 461.80 L 508.70 455.90 L 504.20 449.80 L 500.00 443.40 L 496.30 436.80 L 492.80 429.90 L 489.10 421.10 L 485.80 411.80 L 482.90 402.20 L 480.50 392.10 L 476.30 390.90 L 472.30 389.30 L 464.60 385.70 L 464.10 394.00 L 463.10 401.80 L 461.70 409.00 L 459.80 416.10 L 457.50 423.00 L 454.70 429.80 L 448.00 443.30 L 443.90 450.50 L 452.90 458.40 L 462.80 465.70 L 468.10 468.70 L 473.50 471.10 L 487.80 476.30 L 490.70 478.00 L 493.00 480.00 L 494.20 481.50 L 495.20 483.40 L 495.80 485.60 L 495.80 490.60 L 495.10 493.90 L 493.40 496.30 L 491.60 498.10 L 489.60 499.40 L 487.40 500.40 L 484.20 501.10 L 480.80 501.20 L 477.00 500.80 L 469.20 498.50 L 465.00 496.70 L 458.80 493.50 L 452.60 489.70 L 446.60 485.60 L 435.70 477.10 L 424.70 467.10 L 420.10 462.10 L 417.20 458.40 L 414.80 454.00 L 414.40 450.50 L 415.40 447.00 L 424.60 432.60 L 430.00 422.20 L 432.10 416.90 L 434.60 408.90 L 436.50 400.80 L 439.00 384.10 L 443.60 337.60 L 445.40 309.60 L 447.10 272.10 L 448.20 263.90 L 449.90 255.90 L 452.20 248.10 L 454.90 240.40 L 458.20 233.00 L 461.90 225.80 L 466.10 218.90 L 470.70 212.20 L 475.70 205.80 L 481.00 199.60 L 486.80 193.80 L 492.80 188.20 L 499.10 183.00 L 505.70 178.10 L 512.60 173.60 L 519.80 169.40 L 527.00 165.60 L 534.50 162.20 L 542.10 159.20 L 549.90 156.60 L 557.80 154.50 L 565.70 152.80 L 573.70 151.50 L 581.80 150.70 L 589.80 150.40 L 597.80 150.70 L 605.80 151.30 L 613.70 152.60 L 621.50 154.30 L 629.10 156.70 L 636.80 159.50 L 644.10 163.00 L 651.20 167.00 L 658.20 171.60 L 675.10 184.90 L 678.50 186.90 L 689.10 191.90 L 694.90 195.10 L 700.40 198.50 L 705.60 202.30 L 710.40 206.40 L 715.00 210.90 L 719.30 215.60 L 723.20 220.60 L 726.80 225.90 L 730.10 231.40 L 735.60 242.90 L 739.70 255.10 L 742.30 267.70 L 743.30 280.00 L 742.90 303.40 L 744.90 328.60 L 748.70 363.90 L 752.70 388.30 L 757.10 407.20 L 761.30 420.00 L 763.90 426.00 L 766.50 430.90 L 769.30 434.90 L 777.10 443.80 L 778.50 446.30 L 779.90 449.50 L 778.60 453.10 L 776.70 456.70 L 774.00 460.50 L 767.50 467.60 L 763.50 471.10 L 757.10 476.10 L 750.00 480.90 L 742.70 485.30 L 728.00 492.90 L 714.70 498.20 L 709.40 499.80 L 706.30 500.30 L 703.60 500.30 L 701.40 499.80 L 699.30 498.90 L 697.50 497.50 L 695.90 495.70 L 694.70 493.60 L 692.90 488.30 Z M 565.50 179.70 L 560.10 180.30 L 554.70 181.30 L 549.30 182.80 L 543.90 184.70 L 533.50 189.70 L 523.40 196.10 L 517.00 201.10 L 510.80 206.50 L 505.00 212.50 L 499.50 218.70 L 494.40 225.30 L 489.70 232.10 L 485.50 239.10 L 481.90 246.20 L 478.80 253.40 L 476.20 260.70 L 474.30 267.80 L 473.10 274.80 L 472.30 283.10 L 472.10 291.70 L 472.30 308.70 L 487.90 306.20 L 495.10 304.50 L 499.80 305.60 L 503.80 308.10 L 506.70 311.70 L 507.70 313.80 L 508.20 316.10 L 508.40 321.20 L 505.20 326.00 L 502.10 328.90 L 500.40 329.90 L 495.90 330.90 L 492.60 331.00 L 484.90 330.20 L 481.50 332.20 L 478.60 334.40 L 476.40 337.00 L 474.50 339.80 L 473.20 342.70 L 472.40 345.80 L 472.10 349.00 L 472.20 352.00 L 472.90 355.10 L 474.00 358.00 L 475.50 360.60 L 477.50 363.00 L 479.90 365.00 L 482.80 366.70 L 486.20 367.90 L 488.40 368.30 L 495.60 368.60 L 500.00 369.60 L 502.50 371.20 L 503.60 372.50 L 504.50 374.50 L 506.00 380.90 L 508.30 398.00 L 510.30 405.80 L 512.90 413.30 L 515.90 420.40 L 519.50 427.20 L 523.60 433.80 L 528.10 439.90 L 533.00 445.50 L 538.30 450.80 L 544.10 455.60 L 550.20 459.80 L 556.70 463.50 L 563.60 466.80 L 569.30 468.90 L 575.10 470.60 L 581.10 472.00 L 587.40 472.90 L 593.90 473.40 L 600.80 473.30 L 607.40 472.80 L 613.80 471.80 L 619.80 470.40 L 625.60 468.50 L 631.30 466.20 L 636.80 463.60 L 641.90 460.60 L 646.80 457.20 L 651.50 453.40 L 655.90 449.30 L 660.00 445.00 L 663.80 440.20 L 667.30 435.20 L 670.60 429.80 L 674.20 422.80 L 677.30 415.40 L 679.80 407.60 L 681.90 399.20 L 682.80 393.90 L 683.70 381.80 L 684.00 379.60 L 685.30 376.00 L 686.40 374.60 L 687.90 373.20 L 690.10 371.90 L 695.60 369.90 L 703.40 368.10 L 706.40 366.90 L 708.90 365.50 L 711.20 363.70 L 713.10 361.60 L 714.80 359.30 L 716.00 356.80 L 717.00 354.00 L 717.80 348.10 L 717.20 341.60 L 715.40 336.20 L 713.00 333.30 L 710.00 331.90 L 707.50 331.60 L 704.70 331.70 L 696.00 332.80 L 693.10 332.80 L 689.50 331.80 L 687.70 330.90 L 686.40 329.60 L 685.20 327.80 L 684.10 325.30 L 680.20 310.40 L 677.00 299.90 L 673.10 290.90 L 670.70 286.40 L 667.70 281.90 L 664.10 277.30 L 660.10 273.10 L 655.30 268.90 L 649.70 264.80 L 641.10 270.70 L 627.40 279.00 L 600.70 293.40 L 581.10 302.70 L 571.50 306.80 L 562.10 310.40 L 553.60 313.10 L 548.00 314.60 L 538.90 316.10 L 532.90 315.90 L 529.00 314.50 L 526.50 311.10 L 525.00 308.30 L 524.20 305.90 L 524.00 303.40 L 524.30 301.20 L 525.20 299.20 L 528.10 295.60 L 533.70 292.00 L 541.90 288.50 L 553.80 284.60 L 565.30 280.40 L 576.60 275.80 L 587.80 270.70 L 609.50 259.60 L 620.20 253.60 L 625.20 250.50 L 636.40 242.00 L 639.80 239.90 L 643.20 238.40 L 645.50 237.90 L 648.20 237.70 L 651.10 238.00 L 653.90 238.70 L 661.50 242.10 L 667.40 245.70 L 672.80 249.70 L 677.70 254.20 L 682.20 259.00 L 686.40 264.20 L 690.20 269.70 L 693.60 275.50 L 699.50 287.50 L 703.10 297.00 L 706.20 306.50 L 717.50 306.50 L 716.70 278.00 L 715.10 264.40 L 713.80 257.70 L 711.90 251.40 L 709.50 245.30 L 707.30 240.90 L 704.80 236.60 L 701.70 232.50 L 698.20 228.60 L 694.40 225.00 L 690.00 221.60 L 685.00 218.30 L 679.10 215.10 L 672.70 212.20 L 665.60 209.50 L 662.80 207.90 L 648.50 195.90 L 639.00 189.50 L 633.80 186.70 L 626.60 183.50 L 619.20 180.80 L 611.40 178.80 L 603.60 177.30 L 595.80 176.50 L 588.00 176.30 L 582.10 176.60 L 576.40 177.20 L 570.90 178.30 L 565.50 179.70 Z M 624.70 509.60 L 624.70 495.50 L 617.10 497.40 L 610.40 498.60 L 603.80 499.30 L 597.50 499.50 L 584.60 498.90 L 570.30 497.30 L 570.30 527.30 L 576.50 533.10 L 587.00 541.70 L 595.60 548.10 L 603.00 542.70 L 624.70 525.40 L 624.70 509.60 Z M 344.00 519.00 L 327.90 511.40 L 320.90 507.50 L 310.70 501.20 L 301.20 494.70 L 273.20 474.10 L 262.80 466.90 L 256.00 503.60 L 239.00 600.70 L 237.20 613.40 L 254.40 609.10 L 286.30 599.80 L 294.60 598.00 L 303.40 596.50 L 315.80 595.30 L 322.70 595.10 L 332.50 595.10 L 342.30 595.60 L 352.10 596.60 L 365.60 527.30 L 354.50 523.80 L 349.10 521.60 L 344.00 519.00 Z M 373.70 676.00 L 371.80 671.10 L 369.10 666.70 L 368.10 666.40 L 366.90 667.30 L 365.20 671.00 L 360.40 692.10 L 357.80 702.40 L 355.90 707.10 L 353.60 710.10 L 352.10 711.30 L 347.60 713.40 L 344.00 714.20 L 355.90 746.20 L 362.40 760.90 L 365.80 767.50 L 369.50 773.70 L 373.10 778.60 L 375.70 781.50 L 378.20 783.60 L 380.50 785.00 L 384.90 786.80 L 389.20 787.80 L 393.50 788.20 L 397.80 788.10 L 402.00 787.40 L 406.00 786.10 L 409.80 784.30 L 413.30 782.00 L 416.50 779.20 L 419.40 776.00 L 421.80 772.30 L 423.80 768.10 L 425.80 761.60 L 430.70 739.60 L 433.30 725.50 L 427.10 724.50 L 420.90 723.90 L 421.70 727.90 L 421.90 731.30 L 421.60 734.30 L 420.70 737.10 L 419.50 739.50 L 418.00 741.40 L 416.20 743.00 L 414.20 744.10 L 412.00 744.90 L 409.80 745.10 L 407.50 745.00 L 405.30 744.30 L 403.30 743.20 L 401.40 741.60 L 399.70 739.30 L 394.40 728.90 L 389.00 715.80 L 378.50 687.70 L 373.70 676.00 Z M 226.80 430.60 L 221.80 432.30 L 220.20 433.20 L 217.70 435.60 L 210.10 475.20 L 200.50 527.10 L 191.20 579.90 L 187.70 601.40 L 185.50 616.90 L 185.10 624.20 L 186.70 628.10 L 189.50 631.20 L 193.10 633.40 L 197.10 634.60 L 199.20 634.80 L 202.30 633.00 L 204.70 631.00 L 206.60 628.80 L 208.10 626.20 L 210.20 620.50 L 211.10 615.90 L 213.00 601.50 L 232.10 492.80 L 239.10 455.20 L 240.90 442.70 L 240.90 440.00 L 240.30 437.80 L 239.20 436.00 L 235.90 433.20 L 233.80 432.20 L 230.30 431.10 L 226.80 430.60 Z M 392.20 527.30 L 389.50 539.60 L 378.30 595.10 L 387.00 598.30 L 396.80 601.40 L 401.80 602.50 L 406.60 602.90 L 409.80 602.80 L 412.80 602.30 L 415.60 601.50 L 417.90 598.70 L 420.90 592.20 L 422.60 587.20 L 425.60 576.10 L 428.20 564.40 L 431.00 545.80 L 429.60 542.70 L 428.00 540.20 L 426.10 538.10 L 421.70 534.70 L 419.10 533.50 L 415.10 532.00 L 410.70 530.90 L 392.20 527.30 Z M 645.30 542.50 L 641.60 544.40 L 633.20 550.20 L 612.40 566.50 L 620.20 572.70 L 645.30 589.10 L 650.20 579.10 L 654.70 568.80 L 663.10 548.10 L 651.40 543.90 L 645.30 542.50 Z M 546.50 542.50 L 537.80 545.60 L 529.00 548.10 L 531.40 555.00 L 542.30 582.20 L 544.50 589.10 L 549.70 585.30 L 555.10 581.90 L 565.80 573.80 L 576.90 566.50 L 554.50 548.10 L 549.20 544.10 L 546.50 542.50 Z M 373.70 619.70 L 375.80 643.60 L 378.90 647.70 L 381.30 650.10 L 383.30 651.20 L 384.10 650.70 L 384.30 649.90 L 386.30 636.50 L 387.70 623.00 L 380.70 621.70 L 373.70 619.70 Z M 313.50 623.00 L 312.00 628.80 L 311.50 634.80 L 313.40 637.60 L 315.30 639.70 L 317.30 641.30 L 319.60 642.60 L 324.60 644.20 L 341.60 646.10 L 346.00 643.60 L 348.40 640.70 L 349.80 638.40 L 350.40 636.40 L 350.50 634.40 L 350.10 632.70 L 349.20 631.10 L 347.80 629.80 L 343.80 627.40 L 340.20 626.10 L 336.10 625.00 L 327.40 623.60 L 319.30 623.10 L 313.50 623.00 Z M 321.20 668.30 L 320.90 677.00 L 321.20 685.70 L 328.40 687.60 L 334.30 688.90 L 335.20 688.80 L 335.60 687.80 L 339.30 674.20 L 330.60 670.20 L 324.60 668.70 L 321.20 668.30 Z" fill="#000000" fill-rule="nonzero" group-id="1" node-id="30" stroke="none" target-height="713.5" target-width="644" target-x="159.3" target-y="150.4"></path></g><g node-id="143"><path d="M 565.50 179.70 L 570.90 178.30 L 576.40 177.20 L 582.10 176.60 L 588.00 176.30 L 595.80 176.50 L 603.60 177.30 L 611.40 178.80 L 619.20 180.80 L 626.60 183.50 L 633.80 186.70 L 639.00 189.50 L 648.50 195.90 L 662.80 207.90 L 665.60 209.50 L 672.70 212.20 L 679.10 215.10 L 685.00 218.30 L 690.00 221.60 L 694.40 225.00 L 698.20 228.60 L 701.70 232.50 L 704.80 236.60 L 707.30 240.90 L 709.50 245.30 L 711.90 251.40 L 713.80 257.70 L 715.10 264.40 L 716.70 278.00 L 717.50 306.50 L 706.20 306.50 L 703.10 297.00 L 699.50 287.50 L 693.60 275.50 L 690.20 269.70 L 686.40 264.20 L 682.20 259.00 L 677.70 254.20 L 672.80 249.70 L 667.40 245.70 L 661.50 242.10 L 653.90 238.70 L 651.10 238.00 L 648.20 237.70 L 645.50 237.90 L 643.20 238.40 L 639.80 239.90 L 636.40 242.00 L 625.20 250.50 L 620.20 253.60 L 609.50 259.60 L 587.80 270.70 L 576.60 275.80 L 565.30 280.40 L 553.80 284.60 L 541.90 288.50 L 533.70 292.00 L 528.10 295.60 L 525.20 299.20 L 524.30 301.20 L 524.00 303.40 L 524.20 305.90 L 525.00 308.30 L 526.50 311.10 L 529.00 314.50 L 515.20 317.80 L 508.40 318.60 L 508.20 316.10 L 507.70 313.80 L 506.70 311.70 L 505.40 309.70 L 503.80 308.10 L 499.80 305.60 L 495.10 304.50 L 494.60 299.30 L 494.90 294.10 L 496.30 283.80 L 498.10 274.00 L 500.40 264.70 L 503.20 255.80 L 506.50 247.00 L 510.40 238.50 L 514.90 230.40 L 519.90 222.50 L 524.20 216.60 L 529.00 210.70 L 534.20 204.90 L 539.90 199.30 L 546.00 193.80 L 549.10 191.30 L 562.40 182.20 L 565.50 179.70 Z" fill="#89807e" fill-rule="nonzero" group-id="2" node-id="35" stroke="none" target-height="142.3" target-width="222.9" target-x="494.6" target-y="176.3"></path></g><g node-id="144"><path d="M 472.30 308.70 L 472.10 291.70 L 472.30 283.10 L 473.10 274.80 L 474.30 267.80 L 476.20 260.70 L 478.80 253.40 L 481.90 246.20 L 485.50 239.10 L 489.70 232.10 L 494.40 225.30 L 499.50 218.70 L 505.00 212.50 L 510.80 206.50 L 517.00 201.10 L 523.40 196.10 L 533.50 189.70 L 543.90 184.70 L 549.30 182.80 L 554.70 181.30 L 560.10 180.30 L 565.50 179.70 L 562.40 182.20 L 549.10 191.30 L 546.00 193.80 L 539.90 199.30 L 534.20 204.90 L 529.00 210.70 L 524.20 216.60 L 519.90 222.50 L 514.90 230.40 L 510.40 238.50 L 506.50 247.00 L 503.20 255.80 L 500.40 264.70 L 498.10 274.00 L 496.30 283.80 L 494.90 294.10 L 494.60 299.30 L 495.10 304.50 L 487.90 306.20 L 472.30 308.70 Z" fill="#6f6a69" fill-rule="nonzero" group-id="3" node-id="40" stroke="none" target-height="129.00002" target-width="93.399994" target-x="472.1" target-y="179.7"></path></g><g node-id="145"><path d="M 508.40 318.60 L 515.20 317.80 L 529.00 314.50 L 532.90 315.90 L 535.60 316.20 L 543.10 315.60 L 553.60 313.10 L 562.10 310.40 L 581.10 302.70 L 590.90 298.20 L 610.10 288.50 L 635.10 274.40 L 641.10 270.70 L 649.70 264.80 L 655.30 268.90 L 660.10 273.10 L 664.10 277.30 L 667.70 281.90 L 670.70 286.40 L 673.10 290.90 L 677.00 299.90 L 680.20 310.40 L 684.10 325.30 L 685.20 327.80 L 686.40 329.60 L 687.70 330.90 L 689.50 331.80 L 693.10 332.80 L 696.00 332.80 L 707.50 331.60 L 710.00 331.90 L 711.60 332.40 L 714.30 334.70 L 716.30 338.50 L 717.20 341.60 L 717.80 348.10 L 717.00 354.00 L 716.00 356.80 L 714.80 359.30 L 713.10 361.60 L 711.20 363.70 L 708.90 365.50 L 706.40 366.90 L 703.40 368.10 L 695.60 369.90 L 690.10 371.90 L 687.90 373.20 L 686.40 374.60 L 685.30 376.00 L 684.00 379.60 L 683.70 381.80 L 682.80 393.90 L 681.90 399.20 L 679.80 407.60 L 677.30 415.40 L 674.20 422.80 L 670.60 429.80 L 667.30 435.20 L 663.80 440.20 L 660.00 445.00 L 655.90 449.30 L 651.50 453.40 L 646.80 457.20 L 641.90 460.60 L 636.80 463.60 L 631.30 466.20 L 625.60 468.50 L 619.80 470.40 L 613.80 471.80 L 607.40 472.80 L 600.80 473.30 L 593.90 473.40 L 587.40 472.90 L 581.10 472.00 L 575.10 470.60 L 569.30 468.90 L 563.60 466.80 L 556.70 463.50 L 550.20 459.80 L 544.10 455.60 L 538.30 450.80 L 533.00 445.50 L 528.10 439.90 L 523.60 433.80 L 519.50 427.20 L 515.90 420.40 L 512.90 413.30 L 510.30 405.80 L 508.30 398.00 L 506.00 380.90 L 504.50 374.50 L 503.60 372.50 L 501.30 370.30 L 497.90 368.90 L 488.40 368.30 L 486.20 367.90 L 482.80 366.70 L 479.90 365.00 L 477.50 363.00 L 475.50 360.60 L 474.00 358.00 L 472.90 355.10 L 472.20 352.00 L 472.10 349.00 L 472.40 345.80 L 473.20 342.70 L 474.50 339.80 L 476.40 337.00 L 478.60 334.40 L 481.50 332.20 L 484.90 330.20 L 492.60 331.00 L 495.90 330.90 L 498.70 330.50 L 502.10 328.90 L 505.20 326.00 L 506.70 323.90 L 508.40 321.20 L 508.40 318.60 Z M 637.10 337.10 L 634.30 337.90 L 631.90 339.20 L 629.90 340.90 L 628.20 342.90 L 626.90 345.20 L 625.90 347.70 L 624.90 353.00 L 625.00 355.80 L 625.40 358.50 L 627.30 363.50 L 628.80 365.70 L 630.60 367.60 L 632.80 369.20 L 635.20 370.30 L 638.10 370.90 L 641.40 371.00 L 644.00 369.70 L 646.10 368.00 L 647.90 365.90 L 649.40 363.60 L 651.30 358.50 L 651.80 355.70 L 651.80 350.30 L 651.30 347.60 L 649.50 342.90 L 648.10 340.90 L 646.50 339.30 L 644.60 338.00 L 642.40 337.20 L 640.00 336.80 L 637.10 337.10 Z M 550.80 337.10 L 548.10 338.10 L 545.90 339.60 L 544.00 341.50 L 542.50 343.60 L 541.30 346.00 L 540.40 348.60 L 539.80 354.10 L 540.40 359.60 L 541.20 362.20 L 543.70 366.60 L 545.40 368.40 L 547.40 369.80 L 549.60 370.70 L 552.10 371.20 L 555.10 371.00 L 557.80 369.90 L 560.10 368.50 L 562.00 366.70 L 563.70 364.60 L 565.90 359.80 L 566.50 357.10 L 566.70 351.80 L 566.20 349.10 L 564.40 344.30 L 563.00 342.20 L 561.20 340.40 L 559.10 338.90 L 556.70 337.80 L 554.00 337.20 L 550.80 337.10 Z M 585.90 395.70 L 581.20 396.10 L 574.10 397.60 L 568.90 400.10 L 566.90 401.70 L 565.30 403.50 L 564.20 405.40 L 563.10 408.20 L 562.60 411.30 L 562.70 414.50 L 563.40 417.80 L 564.50 421.10 L 568.10 427.80 L 573.20 434.00 L 576.20 436.80 L 582.90 441.50 L 586.60 443.30 L 590.30 444.60 L 594.20 445.40 L 598.00 445.70 L 601.90 445.40 L 605.80 444.40 L 609.10 442.60 L 615.50 438.20 L 621.20 432.90 L 625.90 426.70 L 629.20 419.80 L 630.80 412.80 L 630.60 407.90 L 628.90 403.70 L 626.00 400.60 L 623.50 399.10 L 620.60 397.80 L 617.30 396.80 L 612.00 395.90 L 606.40 395.50 L 585.90 395.70 Z" fill="#ffcdaa" fill-rule="nonzero" group-id="4" node-id="45" stroke="none" target-height="208.6" target-width="245.69998" target-x="472.1" target-y="264.8"></path></g><g node-id="146"><path d="M 641.40 371.00 L 638.10 370.90 L 635.20 370.30 L 632.80 369.20 L 630.60 367.60 L 628.80 365.70 L 627.30 363.50 L 625.40 358.50 L 624.90 353.00 L 625.90 347.70 L 626.90 345.20 L 628.20 342.90 L 629.90 340.90 L 631.90 339.20 L 634.30 337.90 L 637.10 337.10 L 640.00 336.80 L 642.40 337.20 L 644.60 338.00 L 646.50 339.30 L 648.10 340.90 L 649.50 342.90 L 651.30 347.60 L 651.80 350.30 L 651.80 355.70 L 650.50 361.20 L 647.90 365.90 L 646.10 368.00 L 644.00 369.70 L 641.40 371.00 Z" fill="#000000" fill-rule="nonzero" group-id="5" node-id="50" stroke="none" target-height="34.200012" target-width="26.899963" target-x="624.9" target-y="336.8"></path></g><g node-id="147"><path d="M 555.10 371.00 L 552.10 371.20 L 549.60 370.70 L 547.40 369.80 L 545.40 368.40 L 543.70 366.60 L 542.30 364.50 L 540.40 359.60 L 539.90 356.90 L 539.80 354.10 L 540.40 348.60 L 541.30 346.00 L 542.50 343.60 L 544.00 341.50 L 545.90 339.60 L 548.10 338.10 L 550.80 337.10 L 554.00 337.20 L 556.70 337.80 L 559.10 338.90 L 561.20 340.40 L 563.00 342.20 L 564.40 344.30 L 566.20 349.10 L 566.70 351.80 L 566.50 357.10 L 565.90 359.80 L 563.70 364.60 L 562.00 366.70 L 560.10 368.50 L 557.80 369.90 L 555.10 371.00 Z" fill="#000000" fill-rule="nonzero" group-id="6" node-id="55" stroke="none" target-height="34.100006" target-width="26.900024" target-x="539.8" target-y="337.1"></path></g><g node-id="148"><path d="M 692.90 488.30 L 678.10 491.00 L 649.70 495.50 L 649.70 486.60 L 657.80 480.50 L 665.40 474.20 L 672.30 467.70 L 678.70 461.00 L 683.50 455.30 L 687.90 449.40 L 691.90 443.20 L 695.50 436.80 L 698.80 430.10 L 701.60 423.30 L 704.00 416.10 L 705.90 408.50 L 707.50 400.50 L 708.60 392.10 L 712.20 391.00 L 718.40 388.30 L 727.40 382.60 L 730.10 400.70 L 732.00 409.20 L 734.10 417.30 L 736.80 425.30 L 740.10 433.30 L 745.60 443.90 L 748.90 449.50 L 742.50 454.60 L 736.00 459.20 L 729.20 463.40 L 722.00 467.20 L 707.00 473.10 L 700.10 476.60 L 698.10 478.00 L 695.00 481.30 L 694.00 483.30 L 693.30 485.60 L 692.90 488.30 Z" fill="#89807e" fill-rule="nonzero" group-id="7" node-id="60" stroke="none" target-height="112.899994" target-width="99.20001" target-x="649.7" target-y="382.6"></path></g><g node-id="149"><path d="M 495.10 493.90 L 495.80 490.60 L 495.80 485.60 L 495.20 483.40 L 494.20 481.50 L 493.00 480.00 L 490.70 478.00 L 487.80 476.30 L 484.50 474.90 L 473.50 471.10 L 468.10 468.70 L 462.80 465.70 L 452.90 458.40 L 443.90 450.50 L 448.00 443.30 L 454.70 429.80 L 457.50 423.00 L 459.80 416.10 L 461.70 409.00 L 463.10 401.80 L 464.10 394.00 L 464.60 385.70 L 472.30 389.30 L 476.30 390.90 L 480.50 392.10 L 482.90 402.20 L 485.80 411.80 L 489.10 421.10 L 492.80 429.90 L 496.20 436.80 L 500.00 443.40 L 504.20 449.80 L 508.70 455.90 L 513.60 461.80 L 518.80 467.30 L 524.40 472.50 L 530.60 477.40 L 537.30 482.20 L 544.50 486.60 L 544.50 495.50 L 533.00 495.80 L 512.80 495.70 L 500.20 494.70 L 495.10 493.90 Z" fill="#6f6a69" fill-rule="nonzero" group-id="8" node-id="65" stroke="none" target-height="110.099976" target-width="100.600006" target-x="443.9" target-y="385.7"></path></g><g node-id="150"><path d="M 605.80 444.40 L 601.90 445.40 L 598.00 445.70 L 594.20 445.40 L 590.30 444.60 L 586.60 443.30 L 582.90 441.50 L 579.50 439.30 L 576.20 436.80 L 570.50 431.00 L 566.10 424.60 L 564.50 421.10 L 563.40 417.80 L 562.70 414.50 L 562.60 411.30 L 563.10 408.20 L 564.20 405.40 L 565.30 403.50 L 566.90 401.70 L 568.90 400.10 L 571.50 398.60 L 577.30 396.70 L 585.90 395.70 L 600.70 395.40 L 612.00 395.90 L 617.30 396.80 L 620.60 397.80 L 623.50 399.10 L 626.00 400.60 L 628.90 403.70 L 630.60 407.90 L 630.80 412.80 L 629.20 419.80 L 625.90 426.70 L 623.70 429.90 L 618.50 435.70 L 612.40 440.60 L 605.80 444.40 Z" fill="#000000" fill-rule="nonzero" group-id="9" node-id="70" stroke="none" target-height="50.30002" target-width="68.20001" target-x="562.6" target-y="395.4"></path></g><g node-id="151"><path d="M 199.20 634.80 L 195.10 634.20 L 191.20 632.40 L 188.00 629.70 L 186.70 628.10 L 185.10 624.20 L 185.50 616.90 L 187.70 601.40 L 195.60 554.40 L 210.10 475.20 L 217.70 435.60 L 220.20 433.20 L 224.40 431.30 L 226.80 430.60 L 230.30 431.10 L 233.80 432.20 L 235.90 433.20 L 239.20 436.00 L 240.30 437.80 L 240.90 440.00 L 240.90 442.70 L 239.10 455.20 L 232.10 492.80 L 213.00 601.50 L 211.10 615.90 L 210.20 620.50 L 209.30 623.50 L 206.60 628.80 L 204.70 631.00 L 202.30 633.00 L 199.20 634.80 Z" fill="#ffcdaa" fill-rule="nonzero" group-id="10" node-id="75" stroke="none" target-height="204.19998" target-width="55.799988" target-x="185.1" target-y="430.6"></path></g><g node-id="152"><path d="M 150.40 499.70 L 146.10 499.40 L 143.60 498.60 L 140.00 496.80 L 136.10 494.30 L 132.50 491.40 L 129.20 488.00 L 126.30 484.30 L 124.00 480.40 L 122.90 477.80 L 121.90 472.70 L 122.10 470.20 L 122.80 467.90 L 124.10 465.70 L 125.80 463.90 L 128.40 462.10 L 131.80 460.50 L 136.30 461.30 L 138.80 462.30 L 142.50 464.40 L 146.30 467.30 L 149.80 470.70 L 153.00 474.40 L 155.80 478.40 L 158.00 482.30 L 159.10 485.00 L 160.00 489.90 L 159.80 492.20 L 159.00 494.30 L 157.80 496.10 L 156.10 497.60 L 153.70 498.80 L 150.40 499.70 Z" fill="#000000" fill-rule="nonzero" group-id="11" node-id="80" stroke="none" target-height="39.200012" target-width="38.1" target-x="121.9" target-y="460.5"></path></g><g node-id="153"><path d="M 262.80 466.90 L 273.20 474.10 L 301.20 494.70 L 310.70 501.20 L 320.90 507.50 L 327.90 511.40 L 344.00 519.00 L 341.80 526.40 L 340.10 534.10 L 329.40 595.10 L 324.40 594.90 L 309.40 595.80 L 294.60 598.00 L 278.30 602.00 L 254.40 609.10 L 237.20 613.40 L 239.00 600.70 L 256.00 503.60 L 262.80 466.90 Z" fill="#ffffff" fill-rule="nonzero" group-id="12" node-id="85" stroke="none" target-height="146.50003" target-width="106.8" target-x="237.2" target-y="466.9"></path></g><g node-id="154"><path d="M 624.70 495.50 L 624.70 525.40 L 603.00 542.70 L 595.60 548.10 L 587.00 541.70 L 576.50 533.10 L 570.30 527.30 L 570.30 497.30 L 584.60 498.90 L 597.50 499.50 L 603.80 499.30 L 610.40 498.60 L 617.10 497.40 L 624.70 495.50 Z" fill="#ffcdaa" fill-rule="nonzero" group-id="13" node-id="90" stroke="none" target-height="52.599976" target-width="54.400024" target-x="570.3" target-y="495.5"></path></g><g node-id="155"><path d="M 344.00 519.00 L 349.10 521.60 L 354.50 523.80 L 365.60 527.30 L 352.10 596.60 L 342.30 595.60 L 332.50 595.10 L 322.70 595.10 L 326.00 594.90 L 329.40 595.10 L 340.10 534.10 L 341.80 526.40 L 344.00 519.00 Z" fill="#4bd5e4" fill-rule="nonzero" group-id="14" node-id="95" stroke="none" target-height="77.599976" target-width="42.899994" target-x="322.7" target-y="519"></path></g><g node-id="156"><path d="M 378.30 595.10 L 389.50 539.60 L 392.20 527.30 L 410.70 530.90 L 415.10 532.00 L 419.10 533.50 L 421.70 534.70 L 426.10 538.10 L 428.00 540.20 L 429.60 542.70 L 431.00 545.80 L 428.20 564.40 L 425.60 576.10 L 422.60 587.20 L 420.90 592.20 L 417.90 598.70 L 415.60 601.50 L 412.80 602.30 L 409.80 602.80 L 406.60 602.90 L 401.80 602.50 L 396.80 601.40 L 387.00 598.30 L 378.30 595.10 Z" fill="#4bd5e4" fill-rule="nonzero" group-id="15" node-id="100" stroke="none" target-height="75.60004" target-width="52.700012" target-x="378.3" target-y="527.3"></path></g><g node-id="157"><path d="M 121.20 561.30 L 118.50 561.60 L 115.90 561.40 L 113.40 560.70 L 111.10 559.60 L 109.10 558.10 L 107.40 556.30 L 106.10 554.20 L 105.30 551.90 L 104.90 549.50 L 105.10 547.10 L 105.90 544.60 L 107.50 542.00 L 110.70 539.40 L 116.10 537.20 L 123.70 535.80 L 137.00 534.60 L 139.60 534.70 L 143.60 535.90 L 146.70 538.20 L 148.80 541.70 L 149.70 544.40 L 150.20 547.60 L 150.40 551.50 L 146.30 555.20 L 144.20 556.60 L 140.70 558.10 L 133.20 560.00 L 121.20 561.30 Z" fill="#000000" fill-rule="nonzero" group-id="16" node-id="105" stroke="none" target-height="27" target-width="45.499992" target-x="104.9" target-y="534.6"></path></g><g node-id="158"><path d="M 509.80 569.00 L 485.90 577.20 L 482.40 578.80 L 479.80 580.40 L 477.60 582.40 L 475.80 584.60 L 474.30 587.30 L 472.60 591.70 L 468.20 608.10 L 466.30 614.10 L 463.70 620.40 L 461.50 624.40 L 458.80 628.60 L 455.50 632.80 L 451.90 636.70 L 447.40 640.60 L 441.90 644.60 L 432.80 649.80 L 420.90 655.00 L 417.60 675.90 L 415.60 696.90 L 413.60 696.50 L 410.70 695.00 L 408.50 692.00 L 407.70 689.70 L 407.20 687.10 L 406.90 683.00 L 407.10 678.60 L 414.10 628.80 L 420.10 626.90 L 425.00 624.90 L 429.10 622.80 L 432.90 620.30 L 436.10 617.50 L 438.80 614.60 L 441.00 611.30 L 443.00 607.80 L 444.60 603.90 L 446.60 597.80 L 448.20 590.70 L 451.10 575.00 L 487.30 562.40 L 505.60 556.90 L 509.80 569.00 Z" fill="#01aeaf" fill-rule="nonzero" group-id="17" node-id="110" stroke="none" target-height="140" target-width="102.899994" target-x="406.9" target-y="556.9"></path></g><g node-id="159"><path d="M 420.90 655.00 L 432.80 649.80 L 441.90 644.60 L 447.40 640.60 L 451.90 636.70 L 455.50 632.80 L 458.80 628.60 L 461.50 624.40 L 463.70 620.40 L 466.30 614.10 L 468.20 608.10 L 472.60 591.70 L 474.30 587.30 L 475.80 584.60 L 477.60 582.40 L 479.80 580.40 L 482.40 578.80 L 489.80 575.70 L 509.80 569.00 L 524.40 607.30 L 527.10 613.70 L 528.90 616.70 L 530.90 619.20 L 532.50 620.60 L 536.10 622.20 L 538.00 622.40 L 540.30 622.10 L 543.00 621.20 L 547.50 618.90 L 552.70 615.80 L 563.30 608.40 L 585.30 591.90 L 595.60 585.10 L 614.10 599.20 L 636.50 614.90 L 644.50 619.70 L 647.10 620.70 L 651.40 621.50 L 653.20 621.30 L 655.50 620.60 L 657.60 619.40 L 659.60 617.70 L 662.90 613.30 L 666.30 606.60 L 670.90 594.70 L 679.00 575.70 L 687.50 556.90 L 693.20 559.20 L 703.00 562.40 L 727.60 568.60 L 734.00 570.50 L 744.60 575.00 L 749.00 577.40 L 753.30 580.30 L 757.10 583.30 L 760.50 586.40 L 763.40 589.70 L 766.80 594.50 L 769.70 599.50 L 772.00 604.90 L 773.90 610.50 L 775.40 616.40 L 776.50 622.60 L 777.50 632.10 L 778.30 652.60 L 778.30 698.60 L 738.60 698.60 L 738.90 684.40 L 738.80 673.30 L 738.50 671.20 L 737.80 668.80 L 736.60 666.70 L 735.10 665.00 L 731.20 662.30 L 726.70 661.00 L 724.40 661.00 L 722.10 661.30 L 719.90 662.10 L 717.90 663.30 L 716.00 665.10 L 715.00 666.60 L 713.40 671.60 L 712.70 676.10 L 712.40 681.60 L 713.00 717.00 L 712.20 725.70 L 709.30 736.10 L 700.40 762.60 L 698.40 769.30 L 697.00 775.10 L 696.10 782.20 L 696.80 789.70 L 701.20 810.90 L 705.10 826.40 L 709.20 840.50 L 712.80 851.00 L 504.60 851.00 L 490.30 851.50 L 483.30 851.00 L 484.60 840.20 L 485.90 834.70 L 488.10 826.70 L 495.80 802.90 L 497.30 797.60 L 498.30 792.30 L 499.00 787.10 L 499.10 784.70 L 498.20 778.00 L 496.80 772.40 L 486.70 739.90 L 484.00 729.40 L 483.30 720.50 L 483.80 695.80 L 483.70 683.40 L 483.20 677.60 L 482.50 673.00 L 481.70 670.00 L 479.60 666.20 L 477.90 664.60 L 475.90 663.50 L 473.80 662.80 L 469.30 662.60 L 467.00 663.10 L 464.80 663.90 L 461.10 666.40 L 460.00 668.00 L 459.00 670.10 L 458.30 672.80 L 457.60 677.00 L 457.30 686.60 L 457.70 698.60 L 447.20 698.60 L 415.60 696.90 L 417.60 675.90 L 420.90 655.00 Z M 593.90 610.10 L 590.80 611.10 L 588.30 612.40 L 586.30 614.10 L 584.80 616.30 L 583.70 618.50 L 583.10 621.00 L 582.90 623.50 L 583.20 626.00 L 584.00 628.40 L 585.10 630.60 L 586.70 632.50 L 588.70 634.10 L 590.40 634.90 L 594.50 635.70 L 597.10 635.60 L 600.10 634.40 L 602.60 632.80 L 604.60 631.00 L 606.20 628.80 L 607.40 626.60 L 608.20 624.30 L 608.40 621.90 L 608.30 619.70 L 607.70 617.40 L 606.60 615.40 L 605.00 613.70 L 603.00 612.10 L 600.60 611.00 L 597.60 610.30 L 593.90 610.10 Z M 595.60 655.00 L 590.30 655.80 L 586.70 657.60 L 584.80 659.40 L 583.50 661.40 L 582.70 663.70 L 582.40 666.20 L 582.50 668.70 L 583.20 671.20 L 584.30 673.60 L 585.70 675.90 L 587.70 677.90 L 589.90 679.60 L 592.50 680.80 L 595.60 681.70 L 601.00 678.80 L 604.60 675.50 L 606.30 673.00 L 607.40 670.40 L 608.00 667.80 L 608.10 665.10 L 607.70 662.60 L 607.00 660.40 L 605.80 658.30 L 604.30 656.70 L 602.50 655.40 L 600.50 654.70 L 598.20 654.50 L 595.60 655.00 Z" fill="#4bd5e4" fill-rule="nonzero" group-id="18" node-id="115" stroke="none" target-height="294.59998" target-width="362.69998" target-x="415.6" target-y="556.9"></path></g><g node-id="160"><path d="M 597.10 635.60 L 592.30 635.50 L 588.70 634.10 L 586.70 632.50 L 585.10 630.60 L 584.00 628.40 L 583.20 626.00 L 582.90 623.50 L 583.10 621.00 L 583.70 618.50 L 584.80 616.30 L 586.30 614.10 L 588.30 612.40 L 590.80 611.10 L 593.90 610.10 L 597.60 610.30 L 600.60 611.00 L 603.00 612.10 L 605.00 613.70 L 606.60 615.40 L 607.70 617.40 L 608.30 619.70 L 608.40 621.90 L 608.20 624.30 L 607.40 626.60 L 606.20 628.80 L 604.60 631.00 L 602.60 632.80 L 600.10 634.40 L 597.10 635.60 Z" fill="#000000" fill-rule="nonzero" group-id="19" node-id="120" stroke="none" target-height="25.5" target-width="25.5" target-x="582.9" target-y="610.1"></path></g><g node-id="161"><path d="M 311.50 634.80 L 312.00 628.80 L 313.50 623.00 L 319.30 623.10 L 327.40 623.60 L 336.10 625.00 L 340.20 626.10 L 343.80 627.40 L 346.10 628.50 L 349.20 631.10 L 350.10 632.70 L 350.50 634.40 L 350.40 636.40 L 349.80 638.40 L 348.40 640.70 L 346.00 643.60 L 341.60 646.10 L 328.60 644.80 L 322.00 643.60 L 317.30 641.30 L 315.30 639.70 L 313.40 637.60 L 311.50 634.80 Z" fill="#ffcdaa" fill-rule="nonzero" group-id="20" node-id="125" stroke="none" target-height="23.099976" target-width="39" target-x="311.5" target-y="623"></path></g><g node-id="162"><path d="M 595.60 681.70 L 592.50 680.80 L 589.90 679.60 L 587.70 677.90 L 585.70 675.90 L 584.30 673.60 L 583.20 671.20 L 582.50 668.70 L 582.40 666.20 L 582.70 663.70 L 583.50 661.40 L 584.80 659.40 L 586.70 657.60 L 588.30 656.60 L 592.70 655.20 L 598.20 654.50 L 600.50 654.70 L 602.50 655.40 L 604.30 656.70 L 605.80 658.30 L 607.00 660.40 L 607.70 662.60 L 608.10 665.10 L 608.00 667.80 L 607.40 670.40 L 606.30 673.00 L 604.60 675.50 L 603.00 677.20 L 598.60 680.30 L 595.60 681.70 Z" fill="#000000" fill-rule="nonzero" group-id="21" node-id="130" stroke="none" target-height="27.200012" target-width="25.699951" target-x="582.4" target-y="654.5"></path></g><g node-id="163"><path d="M 362.90 681.70 L 368.30 677.40 L 370.00 676.40 L 372.40 675.80 L 373.70 676.00 L 378.50 687.70 L 389.00 715.80 L 394.40 728.90 L 399.70 739.30 L 401.40 741.60 L 403.30 743.20 L 405.30 744.30 L 407.50 745.00 L 409.80 745.10 L 412.00 744.90 L 414.20 744.10 L 416.20 743.00 L 418.00 741.40 L 419.50 739.50 L 420.70 737.10 L 421.60 734.30 L 421.90 731.30 L 421.70 727.90 L 420.90 723.90 L 427.10 724.50 L 433.30 725.50 L 427.60 754.40 L 423.80 768.10 L 421.80 772.30 L 419.40 776.00 L 416.50 779.20 L 413.30 782.00 L 409.80 784.30 L 406.00 786.10 L 402.00 787.40 L 397.80 788.10 L 393.50 788.20 L 389.20 787.80 L 384.90 786.80 L 380.50 785.00 L 378.20 783.60 L 375.70 781.50 L 373.10 778.60 L 369.50 773.70 L 365.80 767.50 L 359.00 753.60 L 352.90 738.90 L 344.00 714.20 L 347.60 713.40 L 352.10 711.30 L 353.60 710.10 L 355.90 707.10 L 357.80 702.40 L 362.90 681.70 Z" fill="#ffcdaa" fill-rule="nonzero" group-id="22" node-id="135" stroke="none" target-height="112.400024" target-width="89.29999" target-x="344" target-y="675.8"></path></g><path d="M 778.30 725.50 L 771.00 725.50 L 756.70 774.00 L 754.20 784.60 L 753.60 788.80 L 753.60 791.30 L 754.80 797.00 L 762.30 823.30 L 763.70 829.50 L 764.80 837.40 L 764.80 840.80 L 764.40 844.10 L 763.40 846.90 L 762.00 849.30 L 760.60 850.80 L 758.90 852.00 L 756.60 853.00 L 753.80 853.70 L 747.70 854.00 L 738.60 852.80 L 737.10 843.50 L 723.70 789.40 L 723.00 785.00 L 722.90 783.00 L 724.00 778.30 L 736.30 740.30 L 738.40 731.00 L 738.60 725.50 L 768.40 725.30 L 778.30 725.50 Z" fill="#ffcdaa" fill-rule="nonzero" group-id="23" node-id="140" stroke="none" target-height="128.70001" target-width="55.399963" target-x="722.9" target-y="725.3"></path></svg>