<?xml version="1.0" standalone="no"?><!DOCTYPE svg PUBLIC "-//W3C//DTD SVG 1.1//EN" "http://www.w3.org/Graphics/SVG/1.1/DTD/svg11.dtd"><svg height="1024" node-id="1" sillyvg="true" template-height="1024" template-width="1024" version="1.1" viewBox="0 0 1024 1024" width="1024" xmlns="http://www.w3.org/2000/svg" xmlns:xlink="http://www.w3.org/1999/xlink"><defs node-id="19"></defs><g node-id="100"><path d="M 247.90 295.80 L 255.50 285.80 L 260.00 280.60 L 264.90 275.30 L 270.20 270.30 L 275.60 265.80 L 279.50 263.00 L 287.20 258.80 L 291.10 257.30 L 295.10 256.40 L 299.00 256.10 L 301.60 256.90 L 303.60 258.00 L 305.20 259.40 L 306.30 261.20 L 307.00 263.00 L 307.30 265.10 L 307.20 267.10 L 305.70 271.30 L 302.80 275.00 L 292.90 281.90 L 286.00 287.30 L 279.80 292.80 L 274.10 298.70 L 268.90 304.80 L 264.10 311.20 L 255.50 324.90 L 251.50 332.30 L 245.80 343.80 L 235.20 367.40 L 225.40 391.90 L 221.00 404.90 L 218.30 413.80 L 214.10 431.60 L 212.60 440.70 L 211.60 449.60 L 211.20 458.40 L 211.30 465.10 L 211.80 471.50 L 212.70 477.90 L 213.90 484.10 L 215.70 490.20 L 217.90 496.10 L 220.70 501.80 L 227.20 513.20 L 233.50 522.40 L 236.90 526.50 L 241.90 531.60 L 247.10 536.30 L 252.40 540.50 L 258.00 544.30 L 269.10 550.90 L 285.50 558.70 L 306.20 567.30 L 310.80 569.60 L 313.60 571.30 L 315.40 573.00 L 316.40 574.50 L 317.10 576.40 L 317.40 578.20 L 317.20 579.90 L 316.70 581.50 L 315.50 583.50 L 313.80 585.50 L 311.60 587.40 L 307.80 589.80 L 299.20 594.10 L 288.80 598.50 L 279.60 603.40 L 270.60 609.00 L 261.60 615.20 L 253.00 621.90 L 244.70 629.10 L 236.60 636.70 L 228.80 644.70 L 221.60 653.00 L 214.70 661.50 L 208.30 670.30 L 202.40 679.10 L 192.00 697.30 L 189.60 703.70 L 189.10 707.00 L 189.50 711.60 L 190.20 714.00 L 191.40 716.70 L 193.00 719.10 L 197.20 723.20 L 202.20 726.20 L 205.00 727.30 L 210.70 728.30 L 213.60 728.30 L 216.50 727.80 L 219.20 726.90 L 223.20 724.30 L 225.50 722.20 L 231.80 714.80 L 240.70 702.90 L 243.20 700.00 L 248.70 694.40 L 262.20 682.40 L 273.30 673.50 L 284.70 665.60 L 293.70 660.60 L 300.00 658.30 L 303.10 657.80 L 305.60 657.80 L 307.80 658.20 L 309.70 659.20 L 311.30 660.40 L 313.60 663.80 L 314.70 667.70 L 314.70 669.80 L 313.70 673.80 L 311.70 676.20 L 306.40 680.00 L 288.80 690.20 L 281.00 695.50 L 278.30 697.90 L 276.60 706.40 L 273.80 725.90 L 270.80 757.80 L 267.60 814.90 L 268.30 825.10 L 270.30 832.50 L 271.90 835.80 L 274.00 838.80 L 276.70 841.50 L 279.00 843.10 L 281.70 844.60 L 284.90 845.80 L 288.70 846.70 L 294.20 847.50 L 298.80 847.70 L 302.80 847.50 L 306.20 846.80 L 309.50 845.70 L 312.40 844.30 L 314.90 842.50 L 317.00 840.40 L 319.30 837.20 L 321.30 833.40 L 322.70 829.10 L 324.60 819.90 L 325.40 807.00 L 325.50 798.90 L 316.20 795.80 L 313.20 794.40 L 311.40 793.10 L 308.90 790.00 L 308.00 787.80 L 307.60 785.70 L 308.10 781.60 L 308.90 779.90 L 311.40 776.80 L 314.80 774.90 L 318.80 774.20 L 321.10 774.50 L 327.00 776.00 L 344.70 781.60 L 354.50 784.10 L 364.40 786.00 L 374.50 787.50 L 384.60 788.50 L 394.80 789.00 L 404.90 789.00 L 415.00 788.60 L 425.10 787.60 L 435.20 786.20 L 445.10 784.20 L 455.00 781.80 L 464.70 778.80 L 477.90 773.10 L 484.60 770.80 L 489.00 772.50 L 492.60 775.20 L 495.00 778.70 L 495.60 780.80 L 495.80 783.10 L 495.40 785.70 L 494.80 787.50 L 492.80 790.60 L 490.70 792.40 L 488.30 794.00 L 478.00 798.90 L 477.70 808.70 L 478.40 819.70 L 479.40 825.20 L 480.70 830.20 L 482.00 833.40 L 485.20 838.60 L 487.60 840.90 L 490.00 842.90 L 495.40 845.90 L 499.30 847.10 L 503.30 847.80 L 507.40 847.80 L 511.50 847.30 L 515.40 846.30 L 519.30 844.60 L 522.00 843.10 L 526.90 839.00 L 530.90 833.60 L 532.50 830.50 L 533.80 827.10 L 534.80 823.20 L 535.30 819.30 L 535.50 815.00 L 535.20 810.30 L 534.50 805.10 L 533.20 779.00 L 533.30 767.60 L 533.80 762.90 L 534.40 759.90 L 535.30 757.80 L 536.30 756.30 L 537.80 754.90 L 541.20 753.30 L 544.90 753.00 L 548.70 753.90 L 550.30 754.90 L 551.90 756.10 L 553.50 758.70 L 554.90 764.30 L 556.20 777.30 L 557.00 808.30 L 557.00 816.60 L 556.50 824.90 L 555.70 830.30 L 554.40 835.50 L 552.70 840.60 L 551.10 844.30 L 549.00 847.80 L 546.60 851.30 L 543.60 854.60 L 539.80 858.10 L 535.60 861.10 L 530.90 863.70 L 526.00 865.70 L 520.90 867.30 L 515.60 868.30 L 510.20 868.90 L 504.80 869.00 L 499.40 868.60 L 494.00 867.60 L 488.90 866.20 L 483.90 864.30 L 479.20 861.90 L 474.90 859.00 L 471.00 855.50 L 467.60 851.90 L 464.90 848.10 L 462.60 844.40 L 460.70 840.40 L 457.90 832.10 L 456.70 825.70 L 455.90 819.00 L 455.50 805.10 L 433.00 808.50 L 422.40 809.80 L 412.20 810.80 L 402.10 811.30 L 391.90 811.30 L 381.60 810.80 L 370.70 809.60 L 355.70 806.90 L 347.50 805.10 L 347.40 812.60 L 346.90 819.60 L 346.00 826.10 L 344.80 832.20 L 343.00 838.20 L 340.80 843.70 L 338.20 848.70 L 335.10 853.10 L 332.30 856.40 L 329.10 859.30 L 325.60 861.90 L 321.60 864.10 L 317.30 866.00 L 312.90 867.40 L 308.10 868.40 L 302.70 869.00 L 296.70 869.20 L 290.00 868.80 L 284.60 868.10 L 279.50 866.80 L 274.50 865.00 L 269.80 862.70 L 265.40 859.90 L 261.30 856.70 L 257.60 853.10 L 254.30 849.10 L 251.50 844.70 L 249.10 840.10 L 247.30 835.10 L 246.00 829.80 L 245.40 824.20 L 245.10 816.30 L 245.60 797.80 L 247.20 776.80 L 252.70 722.80 L 241.80 736.80 L 238.70 740.00 L 235.30 742.90 L 231.30 745.30 L 227.40 747.20 L 223.40 748.60 L 219.30 749.50 L 215.20 750.00 L 211.00 750.10 L 206.90 749.80 L 202.80 749.00 L 198.80 747.90 L 191.20 744.70 L 184.10 740.20 L 181.00 737.60 L 175.40 731.40 L 173.10 728.00 L 171.10 724.40 L 169.50 720.50 L 168.30 716.50 L 167.50 712.40 L 167.20 708.10 L 167.40 703.60 L 168.10 699.00 L 169.30 694.60 L 173.00 686.00 L 185.20 665.00 L 190.50 656.90 L 195.80 649.40 L 207.20 635.40 L 213.10 629.00 L 225.50 617.10 L 242.20 603.40 L 253.00 595.40 L 276.50 579.60 L 270.10 577.20 L 263.70 574.30 L 257.20 570.80 L 251.00 566.90 L 244.90 562.60 L 239.00 557.90 L 227.80 547.70 L 222.50 542.10 L 217.60 536.30 L 208.90 524.40 L 205.10 518.10 L 201.80 511.90 L 199.00 505.70 L 196.10 498.10 L 193.80 490.50 L 192.00 483.00 L 190.70 475.60 L 189.90 468.10 L 189.60 460.60 L 189.60 453.10 L 190.10 445.70 L 191.20 435.80 L 192.90 425.90 L 195.20 416.10 L 200.90 396.60 L 204.20 386.90 L 209.70 372.50 L 227.30 330.20 L 222.30 325.20 L 217.30 320.80 L 212.40 317.20 L 207.10 313.90 L 196.70 308.40 L 173.50 298.20 L 166.20 294.50 L 161.50 291.80 L 156.90 288.60 L 152.60 285.10 L 148.40 280.90 L 144.80 276.50 L 141.80 271.90 L 139.30 267.00 L 137.40 261.80 L 135.90 256.60 L 134.90 251.10 L 134.30 245.60 L 134.50 234.30 L 135.20 228.70 L 136.40 223.00 L 138.40 215.60 L 141.00 208.40 L 144.20 201.50 L 147.00 196.50 L 153.20 187.30 L 156.70 183.20 L 161.40 178.30 L 166.20 174.00 L 171.20 170.10 L 176.30 166.60 L 181.60 163.50 L 188.50 160.20 L 195.50 157.50 L 202.70 155.40 L 210.00 153.90 L 217.40 153.00 L 224.90 152.70 L 232.30 153.00 L 239.80 153.90 L 247.30 155.30 L 254.60 157.20 L 261.80 159.80 L 268.90 162.90 L 275.80 166.50 L 282.40 170.60 L 288.80 175.20 L 295.10 180.40 L 306.60 191.60 L 312.80 198.70 L 315.50 202.40 L 318.60 208.10 L 319.50 211.80 L 319.30 213.80 L 317.80 217.30 L 315.20 220.00 L 313.60 221.10 L 311.80 221.90 L 308.00 222.60 L 304.30 221.90 L 302.60 221.00 L 299.20 217.80 L 286.70 203.00 L 280.90 197.70 L 274.90 192.80 L 268.50 188.40 L 263.50 185.40 L 253.20 180.60 L 247.70 178.60 L 242.20 177.10 L 236.50 176.00 L 230.70 175.40 L 224.70 175.20 L 219.20 175.40 L 213.90 176.10 L 208.60 177.20 L 203.50 178.70 L 193.60 182.90 L 184.60 188.40 L 180.30 191.70 L 172.80 199.10 L 169.40 203.20 L 166.40 207.50 L 163.80 212.10 L 161.50 216.80 L 159.60 221.80 L 158.10 227.00 L 157.00 232.20 L 156.40 237.70 L 156.30 243.30 L 156.60 247.20 L 158.30 254.00 L 159.60 257.00 L 161.90 260.80 L 164.70 264.40 L 168.00 267.70 L 171.70 270.70 L 180.10 276.30 L 187.10 280.20 L 217.80 295.50 L 230.00 303.10 L 238.70 310.30 L 247.90 295.80 Z" fill="#000000" fill-rule="nonzero" group-id="1" node-id="23" stroke="none" target-height="716.5" target-width="422.7" target-x="134.3" target-y="152.7"></path></g><g node-id="101"><path d="M 564.30 409.50 L 566.30 406.50 L 570.80 401.30 L 574.60 398.00 L 579.00 394.80 L 576.10 388.10 L 567.80 363.90 L 565.40 358.00 L 560.90 348.20 L 556.00 338.90 L 550.80 330.10 L 545.20 321.60 L 539.30 313.50 L 532.90 305.70 L 526.20 298.40 L 519.20 291.50 L 511.90 285.10 L 504.30 279.10 L 496.30 273.60 L 488.10 268.50 L 479.70 263.90 L 471.00 259.80 L 462.00 256.20 L 452.90 253.00 L 443.50 250.50 L 433.90 248.40 L 424.10 246.90 L 414.10 245.90 L 404.10 245.50 L 393.90 245.70 L 383.60 246.50 L 373.00 247.90 L 362.20 249.90 L 345.20 255.20 L 341.70 255.80 L 337.20 255.60 L 335.20 254.90 L 333.50 253.90 L 331.90 252.30 L 330.50 250.10 L 329.40 247.10 L 329.10 244.60 L 329.40 242.40 L 330.20 240.40 L 331.40 238.60 L 333.10 236.90 L 336.10 234.90 L 339.80 233.10 L 347.50 230.60 L 354.30 228.90 L 364.00 226.80 L 373.70 225.20 L 383.40 224.20 L 393.20 223.70 L 402.90 223.70 L 412.60 224.20 L 422.30 225.20 L 431.90 226.60 L 451.00 230.70 L 469.90 236.30 L 472.80 228.70 L 476.20 221.20 L 480.10 213.90 L 484.50 206.70 L 489.20 199.90 L 494.40 193.20 L 500.00 187.00 L 506.00 181.10 L 512.30 175.70 L 518.90 170.70 L 525.80 166.30 L 533.00 162.50 L 540.00 159.50 L 547.00 157.00 L 554.20 155.20 L 561.40 154.00 L 568.70 153.30 L 576.00 153.10 L 583.20 153.50 L 590.40 154.40 L 597.50 155.90 L 604.40 157.90 L 611.20 160.40 L 617.70 163.40 L 624.10 166.90 L 630.00 170.90 L 635.70 175.30 L 641.10 180.30 L 645.10 184.60 L 648.70 189.10 L 652.10 194.00 L 655.30 199.20 L 658.10 204.70 L 660.80 210.90 L 663.10 217.40 L 664.90 224.20 L 666.30 231.00 L 667.20 237.90 L 667.50 244.70 L 667.40 249.90 L 666.00 259.80 L 664.70 264.50 L 663.10 269.10 L 661.00 273.50 L 658.40 277.60 L 655.40 281.60 L 652.00 285.10 L 648.10 288.40 L 643.60 291.40 L 638.40 294.00 L 613.60 304.30 L 605.20 308.00 L 594.40 313.90 L 589.30 317.30 L 584.50 321.10 L 580.10 325.40 L 576.00 330.20 L 580.60 339.00 L 584.80 347.90 L 592.10 366.30 L 598.80 384.90 L 606.90 383.20 L 614.80 382.10 L 645.90 380.00 L 653.50 379.00 L 661.00 377.50 L 668.90 375.20 L 676.90 372.40 L 708.50 359.40 L 713.90 357.60 L 724.70 354.90 L 726.30 350.30 L 728.50 345.60 L 731.10 341.00 L 734.30 336.70 L 739.20 331.60 L 744.80 327.80 L 747.80 326.50 L 751.00 325.70 L 754.20 325.30 L 757.60 325.50 L 761.20 326.30 L 764.80 327.60 L 768.00 329.30 L 770.80 331.30 L 773.40 333.70 L 776.50 337.20 L 779.20 341.20 L 781.60 345.70 L 785.30 355.50 L 786.80 360.80 L 788.60 369.00 L 794.00 400.90 L 795.50 407.40 L 800.00 407.80 L 803.90 408.60 L 807.50 409.80 L 810.70 411.40 L 813.80 413.30 L 816.50 415.60 L 819.00 418.10 L 821.10 420.90 L 823.60 425.00 L 825.50 429.40 L 827.00 434.10 L 827.90 438.90 L 828.40 443.80 L 828.50 448.80 L 828.00 453.80 L 827.10 458.50 L 825.80 463.10 L 824.00 467.50 L 821.90 471.50 L 819.30 475.00 L 817.10 477.40 L 814.70 479.40 L 809.10 482.50 L 806.10 483.40 L 802.90 483.90 L 799.40 484.00 L 795.50 483.50 L 794.00 488.60 L 792.70 494.60 L 787.80 523.60 L 786.10 531.30 L 782.50 543.70 L 778.80 552.20 L 776.60 556.10 L 774.10 559.40 L 771.40 562.20 L 769.10 563.90 L 766.60 565.20 L 763.90 566.20 L 761.00 566.80 L 758.10 567.00 L 754.90 566.70 L 751.30 565.90 L 747.20 564.50 L 744.00 563.00 L 741.10 561.20 L 738.50 559.00 L 735.00 555.40 L 731.90 551.40 L 726.30 542.70 L 720.00 540.10 L 694.00 532.20 L 683.90 528.00 L 688.50 551.50 L 693.90 576.20 L 699.80 600.80 L 705.70 623.70 L 714.30 622.50 L 718.20 622.20 L 721.40 622.50 L 723.40 623.10 L 725.20 624.10 L 726.90 625.60 L 728.30 627.40 L 729.60 629.90 L 730.90 633.30 L 728.90 638.70 L 726.70 641.70 L 725.10 643.00 L 724.00 643.40 L 710.00 646.50 L 628.30 662.20 L 625.90 662.40 L 623.80 662.10 L 621.80 661.40 L 618.50 659.00 L 617.20 657.40 L 615.60 653.50 L 615.40 649.30 L 615.90 647.20 L 616.80 645.10 L 618.20 643.20 L 620.10 641.50 L 622.80 639.90 L 625.60 638.70 L 629.30 637.80 L 633.90 637.30 L 626.10 603.20 L 608.30 615.90 L 598.80 622.10 L 589.10 627.90 L 579.20 633.30 L 569.10 638.30 L 561.40 641.70 L 553.60 644.70 L 537.90 649.60 L 548.30 690.80 L 549.90 699.10 L 551.10 710.00 L 551.00 717.40 L 549.70 720.70 L 548.20 722.60 L 546.10 724.10 L 540.80 726.40 L 535.90 725.20 L 534.40 724.60 L 531.90 722.30 L 531.20 720.80 L 528.00 707.20 L 523.10 681.40 L 519.60 664.80 L 518.70 661.70 L 513.10 646.80 L 511.60 641.80 L 512.50 639.10 L 513.60 636.90 L 515.00 635.10 L 518.60 632.10 L 520.70 631.00 L 527.80 628.50 L 539.80 625.50 L 543.80 624.20 L 553.60 620.10 L 564.00 615.20 L 574.30 609.80 L 584.60 603.90 L 594.70 597.50 L 604.30 590.90 L 610.50 586.30 L 621.50 577.10 L 616.80 560.00 L 612.70 542.70 L 601.70 548.20 L 586.70 556.90 L 581.60 559.50 L 569.80 564.90 L 557.90 570.00 L 545.70 574.60 L 533.30 578.80 L 520.80 582.60 L 508.20 585.90 L 495.50 588.80 L 482.70 591.10 L 455.80 594.90 L 441.10 596.50 L 426.30 597.50 L 411.20 598.00 L 396.10 598.00 L 381.20 597.60 L 366.50 596.60 L 344.60 594.60 L 337.70 593.30 L 333.90 591.30 L 332.20 589.90 L 330.90 588.20 L 329.80 585.90 L 328.90 583.00 L 329.80 579.80 L 331.00 577.30 L 332.40 575.50 L 334.00 574.20 L 335.90 573.40 L 338.20 572.80 L 341.00 572.60 L 344.50 572.80 L 361.40 574.40 L 379.40 575.70 L 403.80 576.50 L 428.70 576.20 L 441.10 575.40 L 453.40 574.30 L 465.70 572.80 L 477.60 570.80 L 489.20 568.30 L 497.80 566.10 L 514.10 560.70 L 521.80 557.60 L 528.00 554.60 L 533.60 551.50 L 538.70 548.20 L 543.40 544.60 L 547.80 540.80 L 551.90 536.60 L 555.60 532.10 L 559.00 527.40 L 565.10 517.10 L 570.40 505.10 L 566.70 501.60 L 563.40 497.80 L 560.40 493.60 L 557.70 489.10 L 555.40 484.40 L 551.80 474.40 L 550.60 469.10 L 549.10 458.40 L 549.10 447.70 L 549.70 442.30 L 552.00 432.00 L 553.70 427.00 L 555.70 422.20 L 558.20 417.70 L 561.10 413.50 L 564.30 409.50 Z M 490.60 244.40 L 501.00 250.50 L 511.60 256.10 L 517.10 261.10 L 536.90 277.40 L 542.10 282.10 L 547.20 287.40 L 555.90 297.80 L 564.30 308.60 L 585.10 294.10 L 599.40 285.10 L 606.90 281.20 L 610.70 279.60 L 626.70 274.40 L 630.50 272.60 L 634.10 270.30 L 637.10 267.80 L 639.70 264.90 L 641.70 261.80 L 643.40 258.40 L 644.70 254.70 L 645.50 250.90 L 645.90 246.70 L 646.00 242.60 L 645.00 233.90 L 643.90 229.30 L 641.90 223.40 L 639.40 217.50 L 636.20 211.60 L 632.50 205.90 L 628.30 200.50 L 623.60 195.40 L 619.80 191.80 L 611.50 185.40 L 606.90 182.70 L 602.20 180.20 L 597.30 178.20 L 592.10 176.60 L 586.80 175.40 L 581.40 174.60 L 575.80 174.30 L 570.00 174.60 L 563.90 175.40 L 558.10 176.70 L 552.00 178.70 L 545.70 181.30 L 539.10 184.70 L 531.20 189.90 L 521.10 198.40 L 515.20 204.20 L 509.70 210.50 L 504.60 217.10 L 499.90 223.90 L 496.00 230.80 L 493.80 235.50 L 490.60 244.40 Z M 764.80 365.30 L 760.90 355.90 L 757.30 350.20 L 754.90 347.70 L 751.10 352.50 L 747.70 357.70 L 744.70 363.40 L 742.30 369.40 L 740.10 375.70 L 736.90 389.20 L 734.80 403.40 L 733.90 414.20 L 733.40 425.00 L 733.30 470.00 L 734.20 483.70 L 735.20 491.40 L 738.30 507.20 L 740.50 515.00 L 743.10 522.40 L 747.10 531.30 L 749.40 535.10 L 751.90 538.70 L 754.60 541.50 L 757.30 543.80 L 760.10 538.30 L 762.70 532.00 L 765.10 524.60 L 768.80 509.00 L 770.30 500.20 L 772.30 482.00 L 773.60 457.80 L 773.60 443.00 L 773.20 428.30 L 772.30 414.10 L 770.90 400.30 L 769.30 387.60 L 767.10 375.50 L 764.80 365.30 Z M 710.50 407.40 L 711.80 403.50 L 712.80 399.40 L 715.20 382.50 L 706.70 385.00 L 674.10 397.40 L 666.00 399.70 L 658.00 401.10 L 649.90 402.00 L 625.60 403.10 L 617.80 403.80 L 612.60 404.60 L 602.80 407.10 L 598.10 408.90 L 593.70 411.30 L 589.30 414.30 L 583.50 419.90 L 578.00 427.50 L 575.80 431.40 L 574.10 435.40 L 572.80 439.60 L 571.90 443.80 L 571.20 449.60 L 571.20 455.30 L 571.70 461.10 L 572.90 466.70 L 574.70 472.10 L 576.90 477.30 L 579.00 481.00 L 581.40 484.40 L 586.90 490.60 L 590.00 493.20 L 593.40 495.50 L 597.00 497.40 L 600.90 499.00 L 604.90 500.10 L 609.10 500.70 L 613.60 500.90 L 618.40 500.60 L 625.00 501.20 L 631.70 501.40 L 658.70 500.40 L 665.40 500.50 L 672.10 501.10 L 677.50 502.10 L 683.10 503.60 L 705.50 512.00 L 716.80 515.50 L 714.70 502.90 L 713.10 490.40 L 711.00 465.30 L 710.30 439.90 L 711.00 418.20 L 710.50 407.40 Z M 795.50 429.70 L 795.50 462.10 L 803.40 459.60 L 805.60 454.20 L 806.50 448.30 L 806.10 442.60 L 805.30 439.80 L 804.20 437.30 L 802.60 434.90 L 800.70 432.90 L 798.40 431.20 L 795.50 429.70 Z M 589.70 518.30 L 584.80 528.20 L 582.10 533.00 L 579.00 537.50 L 597.10 527.20 L 604.20 522.40 L 596.80 520.80 L 593.10 519.70 L 589.70 518.30 Z M 650.80 523.40 L 630.20 523.40 L 632.00 531.70 L 638.30 556.40 L 656.30 633.30 L 662.80 633.30 L 667.90 631.30 L 673.20 629.90 L 683.90 627.80 L 671.10 575.80 L 665.20 549.60 L 659.80 523.40 L 650.80 523.40 Z" fill="#000000" fill-rule="nonzero" group-id="2" node-id="28" stroke="none" target-height="573.30005" target-width="499.6" target-x="328.9" target-y="153.1"></path></g><g node-id="102"><path d="M 511.60 256.10 L 513.30 251.70 L 515.90 246.70 L 519.10 241.70 L 527.00 231.40 L 531.40 226.60 L 540.40 218.20 L 544.90 214.80 L 548.90 212.40 L 552.60 210.60 L 556.40 209.30 L 563.80 207.80 L 568.90 207.60 L 573.70 208.00 L 578.40 209.00 L 583.00 210.50 L 587.30 212.50 L 591.20 215.00 L 594.90 218.00 L 598.00 221.20 L 600.80 224.90 L 602.50 227.90 L 604.90 234.20 L 605.80 241.00 L 605.70 244.60 L 605.10 248.30 L 604.10 252.20 L 603.40 253.50 L 600.10 257.50 L 591.90 264.60 L 560.10 288.30 L 553.00 294.20 L 547.20 287.40 L 542.10 282.10 L 536.90 277.40 L 517.10 261.10 L 511.60 256.10 Z" fill="#fdb29e" fill-rule="nonzero" group-id="3" node-id="33" stroke="none" target-height="86.600006" target-width="94.19998" target-x="511.6" target-y="207.6"></path></g><g node-id="103"><path d="M 299.00 256.10 L 295.10 256.40 L 291.10 257.30 L 287.20 258.80 L 279.50 263.00 L 275.60 265.80 L 270.20 270.30 L 264.90 275.30 L 260.00 280.60 L 255.50 285.80 L 247.90 295.80 L 243.70 291.60 L 233.50 283.40 L 208.50 266.20 L 205.00 263.30 L 203.00 261.00 L 201.30 257.80 L 200.00 254.50 L 199.30 251.00 L 199.00 247.50 L 199.20 243.90 L 200.70 236.50 L 201.90 233.00 L 205.40 226.20 L 209.80 220.30 L 215.00 215.30 L 217.70 213.40 L 221.50 211.30 L 225.10 209.80 L 228.50 208.80 L 231.80 208.20 L 236.40 208.00 L 240.80 208.40 L 245.00 209.50 L 249.20 211.10 L 253.20 213.10 L 257.20 215.50 L 262.90 219.80 L 268.30 224.60 L 278.10 234.90 L 290.40 249.10 L 293.50 252.40 L 295.70 254.30 L 299.00 256.10 Z" fill="#fdb29e" fill-rule="nonzero" group-id="4" node-id="38" stroke="none" target-height="87.79999" target-width="100" target-x="199" target-y="208"></path></g><g node-id="104"><path d="M 224.00 507.40 L 225.20 505.40 L 225.60 500.80 L 224.30 486.90 L 224.00 478.50 L 224.40 469.80 L 225.30 460.60 L 226.80 451.50 L 228.70 442.20 L 231.10 432.70 L 237.00 414.00 L 244.30 395.30 L 252.60 377.50 L 261.70 360.50 L 271.30 344.90 L 280.80 331.40 L 286.90 323.80 L 293.30 316.80 L 300.10 310.50 L 307.20 304.60 L 314.60 299.20 L 322.30 294.40 L 330.30 290.00 L 338.40 286.20 L 346.80 282.90 L 355.40 280.10 L 364.00 277.80 L 372.90 276.10 L 381.80 274.80 L 390.70 274.00 L 399.70 273.70 L 408.70 273.90 L 417.80 274.60 L 426.70 275.80 L 435.60 277.40 L 444.40 279.60 L 453.10 282.20 L 461.60 285.30 L 470.00 288.90 L 478.20 292.90 L 486.10 297.50 L 493.80 302.40 L 501.20 307.90 L 508.40 313.80 L 515.10 320.10 L 521.50 326.90 L 527.60 334.20 L 533.30 342.00 L 538.50 350.30 L 543.50 359.20 L 548.10 368.40 L 552.30 377.90 L 559.40 396.60 L 562.00 405.50 L 564.30 409.50 L 561.10 413.50 L 558.20 417.70 L 555.70 422.20 L 553.70 427.00 L 550.70 437.00 L 549.70 442.30 L 549.00 453.10 L 549.70 463.80 L 550.60 469.10 L 553.40 479.50 L 557.70 489.10 L 560.40 493.60 L 563.40 497.80 L 566.70 501.60 L 570.40 505.10 L 567.80 511.30 L 562.10 522.40 L 555.60 532.10 L 551.90 536.60 L 547.80 540.80 L 543.40 544.60 L 538.70 548.20 L 533.60 551.50 L 528.00 554.60 L 521.80 557.60 L 506.10 563.60 L 497.80 566.10 L 489.20 568.30 L 477.60 570.80 L 465.70 572.80 L 453.40 574.30 L 428.70 576.20 L 416.30 576.50 L 403.80 576.50 L 379.40 575.70 L 361.40 574.40 L 344.50 572.80 L 341.00 572.60 L 338.20 572.80 L 335.90 573.40 L 334.00 574.20 L 332.40 575.50 L 331.00 577.30 L 329.80 579.80 L 328.90 583.00 L 329.80 585.90 L 330.90 588.20 L 332.20 589.90 L 335.70 592.50 L 337.70 593.30 L 344.60 594.60 L 366.50 596.60 L 381.20 597.60 L 396.10 598.00 L 411.20 598.00 L 426.30 597.50 L 441.10 596.50 L 455.80 594.90 L 469.90 592.90 L 475.00 602.80 L 479.80 613.00 L 484.30 623.60 L 492.40 645.30 L 496.00 656.30 L 501.00 673.10 L 505.50 689.80 L 509.50 706.50 L 520.30 757.40 L 527.70 788.50 L 531.10 799.60 L 533.20 804.10 L 534.50 805.10 L 535.20 810.30 L 535.50 815.00 L 535.30 819.30 L 534.80 823.20 L 533.80 827.10 L 532.50 830.50 L 530.90 833.60 L 526.90 839.00 L 524.50 841.20 L 519.30 844.60 L 515.40 846.30 L 511.50 847.30 L 507.40 847.80 L 503.30 847.80 L 499.30 847.10 L 495.40 845.90 L 490.00 842.90 L 485.20 838.60 L 482.00 833.40 L 480.70 830.20 L 479.40 825.20 L 478.40 819.70 L 477.70 808.70 L 478.00 798.90 L 488.30 794.00 L 490.70 792.40 L 492.80 790.60 L 494.80 787.50 L 495.40 785.70 L 495.80 783.10 L 495.60 780.80 L 495.00 778.70 L 492.60 775.20 L 489.00 772.50 L 484.60 770.80 L 477.90 773.10 L 464.70 778.80 L 455.00 781.80 L 445.10 784.20 L 435.20 786.20 L 425.10 787.60 L 415.00 788.60 L 404.90 789.00 L 394.80 789.00 L 384.60 788.50 L 374.50 787.50 L 364.40 786.00 L 354.50 784.10 L 344.70 781.60 L 327.00 776.00 L 321.10 774.50 L 318.80 774.20 L 314.80 774.90 L 311.40 776.80 L 308.90 779.90 L 308.10 781.60 L 307.60 785.70 L 308.00 787.80 L 308.90 790.00 L 311.40 793.10 L 313.20 794.40 L 316.20 795.80 L 325.50 798.90 L 325.40 807.00 L 324.60 819.90 L 322.70 829.10 L 321.30 833.40 L 319.30 837.20 L 317.00 840.40 L 314.90 842.50 L 312.40 844.30 L 309.50 845.70 L 306.20 846.80 L 302.80 847.50 L 298.80 847.70 L 294.20 847.50 L 288.70 846.70 L 284.90 845.80 L 281.70 844.60 L 279.00 843.10 L 276.70 841.50 L 274.00 838.80 L 271.90 835.80 L 270.30 832.50 L 268.30 825.10 L 267.60 814.90 L 267.80 808.60 L 270.80 757.80 L 272.60 736.50 L 275.10 716.00 L 278.30 697.90 L 281.00 695.50 L 284.70 692.80 L 306.40 680.00 L 309.70 677.80 L 312.90 674.90 L 313.70 673.80 L 314.40 671.80 L 314.70 667.70 L 314.30 665.70 L 312.60 662.00 L 311.30 660.40 L 309.70 659.20 L 307.80 658.20 L 305.60 657.80 L 303.10 657.80 L 300.00 658.30 L 293.70 660.60 L 290.10 662.50 L 278.90 669.40 L 273.30 673.50 L 262.20 682.40 L 248.70 694.40 L 243.20 700.00 L 240.70 702.90 L 231.80 714.80 L 225.50 722.20 L 223.20 724.30 L 219.20 726.90 L 216.50 727.80 L 213.60 728.30 L 207.80 728.00 L 202.20 726.20 L 197.20 723.20 L 193.00 719.10 L 191.40 716.70 L 190.20 714.00 L 189.10 709.20 L 189.10 707.00 L 189.60 703.70 L 190.60 700.40 L 193.60 694.20 L 202.40 679.10 L 208.30 670.30 L 214.70 661.50 L 221.60 653.00 L 228.80 644.70 L 236.60 636.70 L 244.70 629.10 L 253.00 621.90 L 261.60 615.20 L 270.60 609.00 L 279.60 603.40 L 288.80 598.50 L 303.50 592.10 L 307.80 589.80 L 311.60 587.40 L 313.80 585.50 L 315.50 583.50 L 316.70 581.50 L 317.40 578.20 L 317.10 576.40 L 316.40 574.50 L 315.40 573.00 L 313.60 571.30 L 310.80 569.60 L 306.20 567.30 L 277.60 555.10 L 263.60 547.80 L 252.40 540.50 L 247.10 536.30 L 241.90 531.60 L 236.90 526.50 L 230.20 517.90 L 227.20 513.20 L 224.00 507.40 Z M 317.20 374.50 L 315.00 375.40 L 313.00 376.80 L 311.20 378.70 L 308.50 383.50 L 307.60 386.40 L 306.60 392.40 L 306.90 398.80 L 308.50 404.50 L 309.90 407.10 L 311.50 409.30 L 313.50 411.10 L 315.20 412.20 L 319.30 413.40 L 321.80 413.50 L 324.10 412.30 L 326.20 410.70 L 328.00 408.50 L 329.40 406.10 L 331.50 400.50 L 332.30 394.40 L 332.20 391.30 L 331.90 388.20 L 330.20 382.60 L 328.80 380.20 L 327.20 378.10 L 325.20 376.50 L 323.60 375.50 L 319.60 374.50 L 317.20 374.50 Z M 483.00 374.50 L 481.00 375.90 L 479.20 377.60 L 477.60 379.90 L 476.40 382.40 L 474.60 388.30 L 474.10 391.40 L 474.10 397.70 L 475.40 403.70 L 476.50 406.40 L 478.00 408.80 L 479.80 410.70 L 481.90 412.30 L 485.70 413.60 L 488.00 413.70 L 490.60 413.50 L 492.50 412.10 L 494.30 410.20 L 497.10 405.50 L 498.80 399.80 L 499.30 396.70 L 499.40 390.70 L 498.90 387.70 L 497.10 382.30 L 495.70 380.00 L 493.90 378.00 L 491.70 376.40 L 489.30 375.30 L 486.50 374.60 L 483.00 374.50 Z M 395.90 403.20 L 386.40 404.60 L 378.30 407.00 L 373.30 409.40 L 369.00 412.00 L 365.40 415.00 L 360.80 420.10 L 357.80 425.60 L 356.20 431.60 L 356.20 437.60 L 356.80 440.50 L 357.90 443.50 L 359.40 446.40 L 361.30 449.40 L 363.60 452.00 L 366.40 454.60 L 369.80 457.10 L 373.80 459.60 L 371.40 464.20 L 367.80 473.40 L 365.80 482.80 L 365.30 487.30 L 365.70 496.10 L 366.50 500.30 L 367.70 504.30 L 369.40 508.10 L 371.50 511.60 L 374.00 514.80 L 376.90 517.70 L 380.30 520.20 L 384.30 522.40 L 388.50 524.10 L 393.20 525.40 L 398.60 526.20 L 404.70 526.50 L 410.70 525.40 L 415.80 524.10 L 420.00 522.60 L 423.50 521.00 L 427.00 518.90 L 429.80 516.60 L 432.10 514.30 L 433.90 511.80 L 435.40 509.00 L 437.40 503.10 L 437.90 499.80 L 438.00 490.80 L 436.40 478.60 L 432.10 456.00 L 435.80 452.70 L 438.70 449.60 L 441.00 446.60 L 442.60 443.60 L 443.80 440.40 L 444.50 437.30 L 444.80 434.30 L 444.50 431.30 L 443.80 428.40 L 441.30 422.70 L 439.30 420.00 L 436.40 416.80 L 432.80 413.70 L 428.60 410.90 L 424.00 408.50 L 419.00 406.60 L 413.60 404.90 L 408.00 403.90 L 402.10 403.30 L 395.90 403.20 Z" fill="#ffe4dc" fill-rule="nonzero" group-id="5" node-id="43" stroke="none" target-height="574.1" target-width="381.30002" target-x="189.1" target-y="273.7"></path></g><g node-id="105"><path d="M 845.90 402.00 L 843.20 402.10 L 840.70 401.60 L 838.30 400.80 L 836.20 399.40 L 833.90 396.90 L 833.10 395.20 L 832.30 392.60 L 832.00 390.30 L 832.30 388.20 L 832.90 386.30 L 835.40 382.90 L 837.90 380.80 L 844.20 377.10 L 853.40 372.80 L 876.90 360.90 L 884.90 357.60 L 888.00 357.60 L 890.60 358.10 L 892.60 359.10 L 894.40 360.70 L 895.90 362.50 L 897.00 364.80 L 898.40 369.90 L 898.70 372.70 L 894.20 376.80 L 887.70 380.90 L 875.20 386.90 L 845.90 402.00 Z" fill="#000000" fill-rule="nonzero" group-id="6" node-id="48" stroke="none" target-height="44.5" target-width="66.70001" target-x="832" target-y="357.6"></path></g><g node-id="106"><path d="M 733.40 464.80 L 735.10 461.30 L 736.00 457.90 L 740.60 420.20 L 742.10 411.00 L 744.10 401.80 L 746.70 393.00 L 748.80 387.30 L 751.20 382.00 L 753.90 377.10 L 758.90 370.60 L 764.80 365.30 L 767.10 375.50 L 769.30 387.60 L 770.90 400.30 L 772.30 414.10 L 773.20 428.30 L 773.60 443.00 L 773.60 457.80 L 772.30 482.00 L 770.30 500.20 L 768.80 509.00 L 765.10 524.60 L 762.70 532.00 L 760.10 538.30 L 757.30 543.80 L 754.60 541.50 L 751.90 538.70 L 749.40 535.10 L 747.10 531.30 L 743.10 522.40 L 740.50 515.00 L 738.30 507.20 L 735.20 491.40 L 733.60 476.70 L 733.40 464.80 Z" fill="#3ecedf" fill-rule="nonzero" group-id="7" node-id="53" stroke="none" target-height="178.5" target-width="40.19995" target-x="733.4" target-y="365.3"></path></g><g node-id="107"><path d="M 321.80 413.50 L 319.30 413.40 L 315.20 412.20 L 313.50 411.10 L 311.50 409.30 L 309.90 407.10 L 308.50 404.50 L 306.90 398.80 L 306.60 392.40 L 307.60 386.40 L 308.50 383.50 L 311.20 378.70 L 313.00 376.80 L 315.00 375.40 L 317.20 374.50 L 319.60 374.50 L 321.70 374.90 L 325.20 376.50 L 327.20 378.10 L 328.80 380.20 L 330.20 382.60 L 331.90 388.20 L 332.20 391.30 L 332.00 397.50 L 330.60 403.50 L 328.00 408.50 L 326.20 410.70 L 324.10 412.30 L 321.80 413.50 Z" fill="#000000" fill-rule="nonzero" group-id="8" node-id="58" stroke="none" target-height="39" target-width="25.600006" target-x="306.6" target-y="374.5"></path></g><g node-id="108"><path d="M 490.60 413.50 L 488.00 413.70 L 483.70 413.10 L 481.90 412.30 L 479.80 410.70 L 478.00 408.80 L 476.50 406.40 L 474.60 400.90 L 474.00 394.60 L 474.60 388.30 L 475.30 385.20 L 477.60 379.90 L 479.20 377.60 L 481.00 375.90 L 483.00 374.50 L 486.50 374.60 L 489.30 375.30 L 491.70 376.40 L 493.90 378.00 L 495.70 380.00 L 497.10 382.30 L 498.90 387.70 L 499.50 393.70 L 498.80 399.80 L 498.10 402.70 L 495.80 407.90 L 494.30 410.20 L 492.50 412.10 L 490.60 413.50 Z" fill="#000000" fill-rule="nonzero" group-id="9" node-id="63" stroke="none" target-height="39.200012" target-width="25.5" target-x="474" target-y="374.5"></path></g><g node-id="109"><path d="M 373.80 459.60 L 369.80 457.10 L 366.40 454.60 L 363.60 452.00 L 361.30 449.40 L 359.40 446.40 L 357.90 443.50 L 356.80 440.50 L 356.20 437.60 L 356.20 431.60 L 356.80 428.60 L 359.20 422.80 L 362.90 417.50 L 365.40 415.00 L 369.00 412.00 L 373.30 409.40 L 378.30 407.00 L 382.20 405.70 L 390.90 403.70 L 395.90 403.20 L 402.10 403.30 L 408.00 403.90 L 413.60 404.90 L 419.00 406.60 L 424.00 408.50 L 428.60 410.90 L 432.80 413.70 L 436.40 416.80 L 439.30 420.00 L 441.30 422.70 L 442.80 425.50 L 443.80 428.40 L 444.50 431.30 L 444.80 434.30 L 444.50 437.30 L 443.80 440.40 L 442.60 443.60 L 441.00 446.60 L 438.70 449.60 L 435.80 452.70 L 432.10 456.00 L 436.40 478.60 L 438.00 490.80 L 437.90 499.80 L 437.40 503.10 L 435.40 509.00 L 433.90 511.80 L 432.10 514.30 L 429.80 516.60 L 427.00 518.90 L 423.50 521.00 L 420.00 522.60 L 415.80 524.10 L 410.70 525.40 L 404.70 526.50 L 398.60 526.20 L 393.20 525.40 L 388.50 524.10 L 384.30 522.40 L 380.30 520.20 L 376.90 517.70 L 374.00 514.80 L 371.50 511.60 L 369.40 508.10 L 367.70 504.30 L 366.50 500.30 L 365.70 496.10 L 365.30 491.80 L 365.30 487.30 L 365.80 482.80 L 367.80 473.40 L 371.40 464.20 L 373.80 459.60 Z M 394.50 424.70 L 388.10 425.90 L 383.70 427.20 L 380.90 428.50 L 379.00 429.90 L 377.90 431.30 L 377.40 432.50 L 377.40 433.80 L 378.70 436.30 L 382.00 439.00 L 384.90 440.40 L 388.40 441.70 L 392.80 442.70 L 397.30 443.40 L 402.30 443.60 L 407.80 443.40 L 413.40 442.00 L 417.20 440.60 L 419.70 439.20 L 421.30 437.70 L 422.20 436.30 L 422.70 435.00 L 422.60 433.70 L 421.40 431.10 L 418.40 428.50 L 415.80 427.10 L 412.50 425.90 L 408.40 425.00 L 404.30 424.40 L 399.70 424.30 L 394.50 424.70 Z M 394.50 464.80 L 391.40 471.50 L 387.70 481.70 L 386.40 488.80 L 386.40 492.10 L 387.00 495.00 L 388.10 497.60 L 389.20 499.20 L 392.80 502.10 L 395.30 503.20 L 398.80 504.30 L 403.50 504.90 L 409.50 505.10 L 412.50 502.40 L 414.70 499.90 L 416.20 497.60 L 417.30 495.10 L 418.00 492.60 L 418.20 490.10 L 418.00 486.40 L 417.20 482.40 L 413.30 469.60 L 412.10 464.80 L 403.30 465.30 L 394.50 464.80 Z" fill="#000000" fill-rule="nonzero" group-id="10" node-id="68" stroke="none" target-height="123.29999" target-width="88.599976" target-x="356.2" target-y="403.2"></path></g><g node-id="110"><path d="M 618.40 500.60 L 614.60 498.60 L 607.70 493.90 L 604.60 491.10 L 600.80 486.90 L 597.60 482.50 L 594.90 477.70 L 592.70 472.70 L 591.10 467.60 L 590.20 462.40 L 589.90 458.40 L 590.60 450.70 L 591.50 446.90 L 592.80 443.20 L 594.60 439.70 L 596.90 436.40 L 599.70 433.10 L 602.30 430.70 L 605.50 428.70 L 609.10 427.00 L 616.90 424.40 L 628.20 422.50 L 635.50 421.90 L 663.80 420.40 L 670.20 419.80 L 675.70 418.80 L 684.30 416.00 L 697.80 410.40 L 702.20 408.90 L 706.50 407.80 L 710.50 407.40 L 711.00 418.20 L 710.30 439.90 L 711.00 465.30 L 713.10 490.40 L 714.70 502.90 L 716.80 515.50 L 705.50 512.00 L 683.10 503.60 L 677.50 502.10 L 672.10 501.10 L 665.40 500.50 L 658.70 500.40 L 631.70 501.40 L 625.00 501.20 L 618.40 500.60 Z M 621.50 431.60 L 618.30 432.60 L 615.80 433.90 L 613.90 435.50 L 612.30 437.40 L 611.20 439.40 L 610.50 441.60 L 610.30 443.80 L 610.50 446.00 L 611.10 448.20 L 612.10 450.20 L 613.50 451.90 L 615.40 453.50 L 617.50 454.70 L 620.10 455.50 L 623.10 456.00 L 625.80 454.60 L 628.00 453.00 L 631.30 449.30 L 633.10 445.10 L 633.40 440.80 L 632.90 438.80 L 632.10 436.90 L 630.80 435.30 L 629.10 433.80 L 627.10 432.80 L 624.60 432.00 L 621.50 431.60 Z" fill="#3ecedf" fill-rule="nonzero" group-id="11" node-id="73" stroke="none" target-height="108.100006" target-width="126.89996" target-x="589.9" target-y="407.4"></path></g><g node-id="111"><path d="M 795.50 462.10 L 795.50 429.70 L 798.40 431.20 L 800.70 432.90 L 802.60 434.90 L 804.20 437.30 L 805.30 439.80 L 806.10 442.60 L 806.50 448.30 L 805.60 454.20 L 803.40 459.60 L 795.50 462.10 Z" fill="#3ecedf" fill-rule="nonzero" group-id="12" node-id="78" stroke="none" target-height="32.399994" target-width="11" target-x="795.5" target-y="429.7"></path></g><g node-id="112"><path d="M 623.10 456.00 L 620.10 455.50 L 617.50 454.70 L 615.40 453.50 L 613.50 451.90 L 612.10 450.20 L 611.10 448.20 L 610.50 446.00 L 610.30 443.80 L 610.50 441.60 L 611.20 439.40 L 612.30 437.40 L 613.90 435.50 L 615.80 433.90 L 618.30 432.60 L 621.50 431.60 L 624.60 432.00 L 627.10 432.80 L 629.10 433.80 L 630.80 435.30 L 632.10 436.90 L 632.90 438.80 L 633.40 440.80 L 633.10 445.10 L 631.30 449.30 L 628.00 453.00 L 625.80 454.60 L 623.10 456.00 Z" fill="#000000" fill-rule="nonzero" group-id="13" node-id="83" stroke="none" target-height="24.399994" target-width="23.100037" target-x="610.3" target-y="431.6"></path></g><g node-id="113"><path d="M 409.50 505.10 L 403.50 504.90 L 398.80 504.30 L 395.30 503.20 L 392.80 502.10 L 390.80 500.70 L 389.20 499.20 L 388.10 497.60 L 387.00 495.00 L 386.40 492.10 L 386.40 488.80 L 387.70 481.70 L 391.40 471.50 L 394.50 464.80 L 403.30 465.30 L 412.10 464.80 L 413.30 469.60 L 417.20 482.40 L 418.00 486.40 L 418.20 490.10 L 418.00 492.60 L 417.30 495.10 L 416.20 497.60 L 414.70 499.90 L 412.50 502.40 L 409.50 505.10 Z" fill="#fdb29e" fill-rule="nonzero" group-id="14" node-id="88" stroke="none" target-height="40.30002" target-width="31.800018" target-x="386.4" target-y="464.8"></path></g><g node-id="114"><path d="M 839.30 483.50 L 840.90 478.50 L 842.00 476.40 L 843.50 474.70 L 845.40 473.10 L 848.00 471.60 L 852.00 471.80 L 855.10 472.50 L 859.60 474.00 L 870.70 478.40 L 887.70 486.70 L 897.20 492.00 L 903.30 495.80 L 905.30 497.50 L 906.70 499.30 L 907.50 501.10 L 907.90 504.90 L 907.50 506.70 L 905.60 510.20 L 904.20 511.90 L 900.80 514.50 L 898.70 515.50 L 896.20 515.20 L 887.00 512.30 L 875.10 507.30 L 856.60 498.40 L 846.90 493.10 L 841.50 489.60 L 839.30 483.50 Z" fill="#000000" fill-rule="nonzero" group-id="15" node-id="93" stroke="none" target-height="43.899994" target-width="68.60004" target-x="839.3" target-y="471.6"></path></g><path d="M 630.20 523.40 L 659.80 523.40 L 665.20 549.60 L 671.10 575.80 L 683.90 627.80 L 673.20 629.90 L 667.90 631.30 L 662.80 633.30 L 656.30 633.30 L 638.30 556.40 L 632.00 531.70 L 630.20 523.40 Z" fill="#3ecedf" fill-rule="nonzero" group-id="16" node-id="98" stroke="none" target-height="109.89996" target-width="53.700012" target-x="630.2" target-y="523.4"></path></svg>