<?xml version="1.0" standalone="no"?><!DOCTYPE svg PUBLIC "-//W3C//DTD SVG 1.1//EN" "http://www.w3.org/Graphics/SVG/1.1/DTD/svg11.dtd"><svg height="1024" node-id="1" sillyvg="true" template-height="1024" template-width="1024" version="1.1" viewBox="0 0 1024 1024" width="1024" xmlns="http://www.w3.org/2000/svg" xmlns:xlink="http://www.w3.org/1999/xlink"><defs node-id="22"></defs><g node-id="118"><path d="M 419.70 240.10 L 406.40 243.80 L 399.80 246.30 L 386.80 252.20 L 380.60 255.60 L 368.70 263.20 L 352.90 275.50 L 349.60 277.70 L 344.00 280.50 L 339.90 281.40 L 337.90 281.20 L 336.20 280.50 L 334.60 279.30 L 333.30 277.70 L 332.20 275.20 L 331.30 271.70 L 331.10 268.90 L 331.70 264.40 L 333.60 260.50 L 337.20 256.40 L 339.90 254.20 L 353.30 243.90 L 361.10 238.60 L 369.20 233.80 L 377.40 229.30 L 385.90 225.30 L 394.60 221.70 L 403.50 218.50 L 412.50 215.70 L 421.60 213.30 L 430.90 211.30 L 442.60 209.40 L 454.40 208.10 L 466.30 207.40 L 478.30 207.30 L 490.20 207.80 L 502.10 208.90 L 513.90 210.60 L 525.60 212.90 L 537.20 215.80 L 548.60 219.20 L 559.70 223.20 L 570.60 227.70 L 579.20 231.80 L 587.40 236.20 L 595.50 240.90 L 603.20 246.00 L 610.80 251.40 L 618.20 257.30 L 625.30 263.50 L 632.00 269.80 L 638.30 276.40 L 644.30 283.20 L 651.30 292.20 L 657.90 301.40 L 663.90 311.00 L 669.40 321.00 L 674.30 331.20 L 678.70 341.70 L 682.70 352.60 L 686.10 363.80 L 703.30 339.80 L 714.20 326.70 L 723.70 317.30 L 728.80 313.10 L 734.10 309.50 L 739.50 306.40 L 739.50 292.50 L 739.70 285.20 L 740.40 277.90 L 741.20 273.10 L 743.90 264.10 L 745.80 259.90 L 748.30 256.10 L 751.30 252.50 L 754.70 249.60 L 758.20 247.30 L 761.90 245.60 L 765.70 244.50 L 769.70 243.90 L 773.70 243.70 L 778.00 243.90 L 782.40 244.70 L 788.20 246.20 L 794.10 248.40 L 800.20 251.30 L 806.10 254.70 L 811.90 258.50 L 817.70 262.80 L 823.30 267.50 L 833.60 277.40 L 838.40 282.80 L 846.50 293.40 L 850.10 299.00 L 852.90 304.20 L 855.20 309.20 L 857.50 316.60 L 858.20 322.90 L 857.90 325.90 L 857.20 328.60 L 856.00 330.90 L 854.30 332.90 L 850.80 333.60 L 847.90 333.70 L 845.40 333.30 L 843.10 332.30 L 841.00 331.10 L 839.20 329.40 L 836.80 326.40 L 834.70 322.80 L 828.80 311.10 L 823.90 303.80 L 816.50 294.70 L 807.30 285.10 L 802.20 280.60 L 797.00 276.40 L 788.20 270.70 L 781.50 268.00 L 778.10 267.20 L 775.00 267.10 L 772.10 267.50 L 770.20 268.20 L 768.70 269.20 L 766.00 272.30 L 764.80 275.00 L 763.70 278.10 L 763.00 282.00 L 762.40 287.90 L 762.20 294.70 L 762.50 301.60 L 763.10 308.70 L 765.00 322.40 L 767.20 333.90 L 769.00 341.60 L 774.70 340.60 L 780.10 340.20 L 785.30 340.20 L 790.10 340.80 L 795.00 341.90 L 799.50 343.40 L 803.70 345.30 L 807.60 347.60 L 811.30 350.30 L 814.70 353.30 L 817.70 356.60 L 820.40 360.20 L 822.70 364.00 L 824.70 367.90 L 826.20 372.10 L 827.40 376.40 L 828.10 380.90 L 828.30 385.40 L 828.10 389.90 L 827.40 394.60 L 826.20 399.10 L 824.50 403.60 L 822.30 408.10 L 819.40 412.70 L 816.20 416.80 L 812.30 420.90 L 807.70 424.90 L 802.30 428.80 L 809.00 441.80 L 816.90 455.30 L 821.40 461.90 L 826.20 468.00 L 829.70 471.80 L 837.30 478.30 L 841.50 480.90 L 845.80 483.10 L 850.40 484.70 L 853.70 483.50 L 856.50 481.80 L 859.00 479.70 L 861.30 477.20 L 864.80 471.40 L 867.50 464.10 L 868.60 458.90 L 870.00 447.30 L 870.10 438.20 L 869.70 428.80 L 867.50 410.60 L 866.00 401.90 L 862.70 387.50 L 861.20 382.40 L 856.10 368.20 L 855.30 364.50 L 855.00 361.10 L 855.20 358.80 L 855.70 356.70 L 856.70 354.70 L 858.00 352.90 L 859.90 351.20 L 862.60 349.50 L 865.10 349.50 L 867.40 349.90 L 869.60 350.80 L 871.70 352.10 L 874.20 354.30 L 876.50 357.20 L 878.80 360.70 L 882.40 368.70 L 886.10 380.70 L 887.80 388.30 L 890.30 403.40 L 892.60 426.40 L 892.90 442.20 L 892.40 450.80 L 891.30 459.70 L 888.90 471.40 L 887.20 477.00 L 885.10 482.40 L 882.70 487.40 L 879.80 492.00 L 877.30 495.20 L 874.60 498.10 L 871.60 500.60 L 868.30 502.80 L 864.80 504.60 L 861.00 506.00 L 856.70 506.90 L 852.00 507.50 L 847.80 507.40 L 839.70 506.20 L 835.80 505.00 L 830.70 502.80 L 826.00 500.10 L 821.50 496.90 L 817.40 493.20 L 813.70 489.20 L 810.40 484.70 L 797.80 485.00 L 735.10 482.50 L 733.10 493.90 L 730.50 504.90 L 727.40 515.50 L 723.70 525.80 L 719.40 535.90 L 714.70 545.70 L 709.50 555.30 L 703.80 564.70 L 697.60 573.80 L 691.10 582.80 L 684.10 591.60 L 676.60 600.30 L 677.60 610.50 L 678.00 617.60 L 678.20 635.90 L 677.40 656.60 L 676.40 667.00 L 675.00 677.20 L 673.20 686.50 L 671.70 692.60 L 669.90 697.90 L 668.00 702.60 L 666.20 705.90 L 664.30 708.70 L 662.30 710.90 L 660.20 712.60 L 657.90 714.00 L 655.30 714.70 L 652.60 714.90 L 649.60 714.40 L 647.30 712.90 L 644.30 709.80 L 642.20 705.80 L 641.50 703.30 L 647.30 682.60 L 649.60 673.20 L 651.40 664.40 L 652.80 655.70 L 653.70 646.80 L 654.10 637.70 L 654.10 627.70 L 653.70 617.20 L 652.70 605.10 L 651.00 592.90 L 650.80 589.40 L 651.20 585.20 L 652.80 581.70 L 654.20 580.30 L 656.20 579.00 L 661.30 577.20 L 665.20 576.50 L 680.10 555.90 L 689.20 541.70 L 696.50 527.80 L 700.40 519.00 L 703.80 510.00 L 706.60 501.00 L 709.00 492.10 L 710.80 483.70 L 704.80 483.80 L 700.30 484.40 L 696.00 485.40 L 691.70 486.90 L 687.60 488.70 L 683.70 491.00 L 680.10 493.60 L 676.60 496.60 L 669.40 499.00 L 655.40 504.90 L 656.00 510.20 L 656.10 514.90 L 655.70 519.20 L 654.90 523.00 L 653.60 526.80 L 652.00 530.20 L 650.00 533.10 L 647.70 535.80 L 645.10 538.20 L 642.20 540.20 L 639.10 541.90 L 635.70 543.30 L 631.00 544.50 L 626.00 545.20 L 620.70 545.30 L 615.40 544.80 L 610.00 543.70 L 604.50 542.00 L 599.20 539.70 L 594.00 536.70 L 588.90 533.10 L 579.30 537.40 L 568.80 541.40 L 557.30 545.10 L 545.80 548.40 L 533.60 551.20 L 520.90 553.70 L 508.10 555.60 L 495.10 557.10 L 481.90 558.00 L 468.60 558.30 L 455.50 558.00 L 442.40 557.10 L 432.60 555.90 L 423.10 554.40 L 413.80 552.40 L 404.70 550.10 L 395.70 547.30 L 387.10 544.00 L 378.90 540.30 L 371.00 536.10 L 364.90 532.40 L 359.10 528.40 L 353.60 524.00 L 348.40 519.40 L 343.50 514.30 L 338.90 508.80 L 334.60 503.00 L 330.70 496.90 L 327.10 490.40 L 320.90 476.80 L 316.10 462.50 L 313.70 452.70 L 311.80 442.90 L 310.50 433.00 L 309.70 423.10 L 309.50 413.40 L 309.80 403.90 L 310.40 395.00 L 312.30 379.70 L 315.20 365.90 L 317.00 359.90 L 319.20 354.00 L 321.80 348.40 L 324.80 342.90 L 328.20 337.70 L 332.10 332.50 L 341.30 322.10 L 353.10 310.90 L 359.60 306.90 L 372.50 300.40 L 378.90 297.80 L 385.40 295.60 L 392.10 293.90 L 398.80 292.70 L 405.60 292.00 L 412.50 291.70 L 419.50 292.00 L 426.90 292.80 L 434.50 294.20 L 440.20 295.70 L 460.50 301.90 L 465.80 303.00 L 471.20 303.80 L 477.40 304.00 L 482.90 303.50 L 488.10 302.60 L 493.30 301.30 L 513.70 294.90 L 519.00 293.60 L 527.00 292.20 L 534.80 291.50 L 542.50 291.40 L 549.90 291.90 L 557.30 293.10 L 564.40 294.70 L 571.30 297.00 L 578.00 299.70 L 584.50 303.00 L 590.70 306.70 L 596.60 310.80 L 602.20 315.50 L 607.50 320.50 L 612.40 325.90 L 616.90 331.70 L 621.20 337.90 L 624.90 344.40 L 628.30 351.20 L 631.20 358.20 L 633.70 365.70 L 636.20 375.40 L 637.30 378.40 L 641.50 402.30 L 646.40 400.40 L 649.60 397.90 L 653.90 395.20 L 657.90 392.30 L 661.60 389.10 L 665.20 385.30 L 663.90 376.20 L 662.00 367.20 L 659.50 358.20 L 656.40 349.40 L 652.80 340.70 L 648.70 332.30 L 644.10 324.10 L 639.10 316.00 L 633.70 308.30 L 627.90 300.80 L 621.70 293.70 L 615.20 286.90 L 608.40 280.40 L 601.30 274.30 L 594.10 268.70 L 586.60 263.50 L 578.40 258.60 L 568.40 253.30 L 558.40 248.60 L 548.20 244.50 L 537.90 241.00 L 527.50 238.20 L 516.90 235.80 L 506.20 234.10 L 495.50 232.90 L 484.70 232.20 L 473.90 232.20 L 463.10 232.70 L 452.20 233.70 L 441.40 235.30 L 430.60 237.40 L 419.70 240.10 Z M 755.80 379.90 L 748.80 356.60 L 743.00 332.90 L 732.10 342.70 L 726.90 347.80 L 722.00 353.30 L 716.00 360.90 L 693.40 392.00 L 687.20 399.30 L 678.10 408.50 L 673.00 412.70 L 667.70 416.50 L 662.00 419.80 L 638.20 430.90 L 632.40 433.90 L 626.80 437.20 L 646.40 482.50 L 670.80 468.70 L 677.10 465.50 L 683.30 462.80 L 687.80 461.30 L 698.60 459.10 L 707.30 458.20 L 716.90 457.80 L 726.70 457.70 L 736.90 458.00 L 776.70 460.00 L 793.70 460.40 L 789.50 455.00 L 785.60 449.10 L 781.90 442.60 L 776.90 432.50 L 772.30 421.90 L 755.80 379.90 Z M 410.20 315.70 L 403.90 316.30 L 398.00 317.30 L 392.40 318.70 L 387.20 320.30 L 382.30 322.30 L 376.30 325.30 L 370.80 328.70 L 365.70 332.60 L 361.00 336.90 L 356.70 341.50 L 352.80 346.50 L 349.20 351.90 L 346.00 357.60 L 343.20 363.40 L 340.80 369.60 L 338.70 375.90 L 337.00 382.50 L 335.20 391.50 L 334.10 400.60 L 333.50 409.90 L 333.60 419.30 L 334.20 428.60 L 335.40 437.90 L 337.20 447.10 L 339.50 456.00 L 342.30 464.60 L 347.60 477.00 L 353.90 488.20 L 357.50 493.50 L 361.40 498.30 L 365.50 502.80 L 369.80 506.80 L 374.50 510.50 L 379.50 513.90 L 385.10 517.10 L 391.00 520.00 L 399.20 523.20 L 408.00 526.10 L 417.30 528.50 L 426.80 530.30 L 436.70 531.80 L 446.90 532.80 L 467.50 533.60 L 477.90 533.50 L 498.50 532.10 L 508.60 531.00 L 528.10 527.80 L 546.10 523.40 L 554.30 521.00 L 561.80 518.30 L 581.60 510.00 L 579.10 503.10 L 569.40 481.10 L 566.30 473.50 L 563.90 466.10 L 562.80 461.00 L 562.10 456.10 L 561.90 451.20 L 562.20 447.60 L 562.90 444.00 L 564.00 440.50 L 565.50 436.90 L 567.90 432.90 L 570.60 429.50 L 573.60 426.50 L 577.00 423.90 L 580.60 421.80 L 584.50 420.10 L 588.50 418.90 L 592.60 418.20 L 596.90 418.00 L 601.10 418.30 L 605.40 419.10 L 609.80 420.40 L 617.20 415.10 L 616.80 406.90 L 616.00 398.70 L 614.80 390.50 L 613.10 382.40 L 611.00 374.60 L 608.40 367.00 L 605.40 359.60 L 601.80 352.60 L 597.80 346.10 L 594.40 341.50 L 590.80 337.20 L 586.80 333.20 L 582.60 329.50 L 578.00 326.20 L 573.20 323.30 L 568.00 320.80 L 562.40 318.70 L 556.70 317.10 L 550.50 316.00 L 543.90 315.40 L 536.80 315.30 L 531.40 315.70 L 521.20 317.60 L 499.00 324.20 L 491.40 326.10 L 486.20 327.10 L 480.90 327.70 L 475.20 328.00 L 468.30 327.60 L 461.50 326.60 L 454.90 325.10 L 429.40 318.00 L 423.10 316.70 L 414.60 315.80 L 410.20 315.70 Z M 775.80 363.80 L 775.80 365.30 L 776.40 368.20 L 779.10 375.70 L 787.20 393.90 L 793.70 406.80 L 799.10 402.30 L 801.30 398.30 L 802.90 394.40 L 803.80 390.60 L 804.20 386.60 L 804.10 382.90 L 803.40 379.40 L 802.20 376.10 L 800.50 373.00 L 798.30 370.30 L 795.60 368.00 L 792.50 366.10 L 788.90 364.60 L 786.10 363.90 L 779.50 363.50 L 775.80 363.80 Z M 593.60 442.60 L 590.90 444.10 L 588.90 445.60 L 587.40 447.30 L 586.40 449.00 L 585.50 451.60 L 585.10 454.30 L 585.40 457.30 L 587.10 463.30 L 590.80 471.20 L 597.70 483.80 L 605.00 502.20 L 610.00 512.20 L 611.90 515.20 L 616.10 519.60 L 619.60 521.70 L 623.50 522.20 L 625.90 521.00 L 629.20 518.30 L 630.30 516.60 L 631.20 514.20 L 631.60 511.40 L 631.50 508.30 L 630.10 501.80 L 628.80 498.30 L 623.90 487.60 L 613.90 468.90 L 608.60 455.30 L 605.10 448.70 L 603.70 446.90 L 600.30 444.00 L 598.40 443.10 L 596.20 442.60 L 593.60 442.60 Z" fill="#000000" fill-rule="nonzero" group-id="1" node-id="26" stroke="none" target-height="507.60004" target-width="583.4" target-x="309.5" target-y="207.3"></path></g><g node-id="119"><path d="M 331.30 271.70 L 332.20 275.20 L 333.30 277.70 L 334.60 279.30 L 336.20 280.50 L 337.90 281.20 L 339.90 281.40 L 341.90 281.10 L 346.30 279.50 L 349.60 277.70 L 352.90 275.50 L 368.70 263.20 L 380.60 255.60 L 393.20 249.10 L 406.40 243.80 L 413.10 241.80 L 430.60 237.40 L 441.40 235.30 L 452.20 233.70 L 463.10 232.70 L 473.90 232.20 L 484.70 232.20 L 495.50 232.90 L 506.20 234.10 L 516.90 235.80 L 527.50 238.20 L 537.90 241.00 L 548.20 244.50 L 558.40 248.60 L 568.40 253.30 L 578.40 258.60 L 586.60 263.50 L 581.60 267.90 L 581.20 271.10 L 581.30 273.90 L 582.10 276.60 L 583.30 279.10 L 586.70 283.90 L 599.80 296.60 L 606.20 304.00 L 612.30 311.80 L 618.20 320.10 L 623.70 328.70 L 628.70 337.50 L 633.20 346.50 L 637.30 355.80 L 640.70 365.20 L 643.60 374.60 L 648.00 393.30 L 649.60 397.90 L 646.40 400.40 L 641.50 402.30 L 637.30 378.40 L 636.20 375.40 L 633.70 365.70 L 631.20 358.20 L 628.30 351.20 L 624.90 344.40 L 621.20 337.90 L 616.90 331.70 L 612.40 325.90 L 607.50 320.50 L 602.20 315.50 L 596.60 310.80 L 590.70 306.70 L 584.50 303.00 L 578.00 299.70 L 571.30 297.00 L 564.40 294.70 L 557.30 293.10 L 549.90 291.90 L 542.50 291.40 L 534.80 291.50 L 527.00 292.20 L 519.00 293.60 L 513.70 294.90 L 493.30 301.30 L 488.10 302.60 L 482.90 303.50 L 477.40 304.00 L 471.20 303.80 L 465.80 303.00 L 460.50 301.90 L 440.20 295.70 L 434.50 294.20 L 426.90 292.80 L 419.50 292.00 L 412.50 291.70 L 405.60 292.00 L 398.80 292.70 L 392.10 293.90 L 385.40 295.60 L 378.90 297.80 L 372.50 300.40 L 359.60 306.90 L 353.10 310.90 L 346.80 316.60 L 336.60 327.10 L 332.10 332.50 L 328.20 337.70 L 324.80 342.90 L 321.80 348.40 L 319.20 354.00 L 317.00 359.90 L 313.60 372.50 L 311.30 386.90 L 309.80 403.90 L 309.50 413.40 L 309.70 423.10 L 310.50 433.00 L 311.80 442.90 L 313.70 452.70 L 316.10 462.50 L 318.40 469.80 L 323.80 483.70 L 327.10 490.40 L 330.70 496.90 L 334.60 503.00 L 338.90 508.80 L 343.50 514.30 L 348.40 519.40 L 353.60 524.00 L 359.10 528.40 L 364.90 532.40 L 371.00 536.10 L 378.90 540.30 L 387.10 544.00 L 395.70 547.30 L 404.70 550.10 L 413.80 552.40 L 423.10 554.40 L 432.60 555.90 L 442.40 557.10 L 455.50 558.00 L 468.60 558.30 L 481.90 558.00 L 495.10 557.10 L 508.10 555.60 L 520.90 553.70 L 533.60 551.20 L 545.80 548.40 L 557.30 545.10 L 568.80 541.40 L 579.30 537.40 L 588.90 533.10 L 594.00 536.70 L 599.20 539.70 L 604.50 542.00 L 610.00 543.70 L 615.40 544.80 L 620.70 545.30 L 626.00 545.20 L 631.00 544.50 L 635.70 543.30 L 639.10 541.90 L 642.20 540.20 L 645.10 538.20 L 647.70 535.80 L 650.00 533.10 L 652.00 530.20 L 653.60 526.80 L 654.90 523.00 L 655.70 519.20 L 656.10 514.90 L 656.00 510.20 L 655.40 504.90 L 669.40 499.00 L 676.60 496.60 L 680.10 493.60 L 683.70 491.00 L 687.60 488.70 L 691.70 486.90 L 696.00 485.40 L 700.30 484.40 L 704.80 483.80 L 710.80 483.70 L 709.00 492.10 L 706.60 501.00 L 703.80 510.00 L 700.40 519.00 L 696.50 527.80 L 689.20 541.70 L 680.10 555.90 L 665.20 576.50 L 661.30 577.20 L 656.20 579.00 L 654.20 580.30 L 652.80 581.70 L 651.20 585.20 L 650.80 589.40 L 651.00 592.90 L 652.70 605.10 L 653.70 617.20 L 654.10 627.70 L 654.10 637.70 L 653.70 646.80 L 652.80 655.70 L 651.40 664.40 L 649.60 673.20 L 647.30 682.60 L 641.50 703.30 L 642.20 705.80 L 644.30 709.80 L 647.30 712.90 L 649.60 714.40 L 643.50 726.80 L 638.40 735.80 L 635.60 739.80 L 632.70 743.40 L 629.80 746.10 L 629.20 746.60 L 625.10 745.80 L 621.60 745.60 L 618.40 746.00 L 615.30 746.90 L 612.30 748.20 L 605.30 752.70 L 596.70 759.40 L 591.80 762.80 L 583.60 767.60 L 574.80 772.10 L 565.50 776.30 L 555.90 779.90 L 546.00 783.20 L 535.70 786.10 L 525.30 788.50 L 514.70 790.60 L 504.00 792.20 L 493.20 793.40 L 482.50 794.20 L 471.80 794.50 L 461.10 794.40 L 450.70 793.90 L 440.60 792.90 L 430.50 791.50 L 421.00 789.60 L 411.90 787.30 L 392.40 780.70 L 368.20 771.10 L 353.40 764.00 L 343.50 757.20 L 337.10 752.10 L 331.30 746.80 L 325.90 741.40 L 321.10 735.90 L 316.50 730.00 L 312.30 723.90 L 308.50 717.60 L 305.00 711.00 L 301.90 704.30 L 298.40 695.60 L 295.40 686.60 L 292.80 677.10 L 290.60 667.10 L 296.80 655.40 L 305.00 640.60 L 319.00 617.50 L 327.80 604.80 L 331.30 600.30 L 335.20 591.60 L 336.20 588.70 L 335.40 585.50 L 333.50 581.10 L 330.30 578.10 L 328.00 576.80 L 325.70 576.20 L 323.60 576.20 L 321.50 576.60 L 319.40 577.50 L 317.30 578.80 L 314.40 581.30 L 309.00 587.90 L 278.00 639.90 L 272.30 650.00 L 267.20 660.40 L 263.10 653.60 L 261.70 651.90 L 260.10 650.60 L 258.20 649.60 L 256.20 649.10 L 253.60 649.00 L 250.10 649.40 L 247.90 652.50 L 246.40 655.40 L 245.50 658.10 L 245.10 660.90 L 245.30 663.30 L 246.10 665.50 L 247.00 666.90 L 249.70 669.10 L 253.60 670.40 L 258.70 670.30 L 262.00 669.70 L 256.30 680.70 L 254.00 684.30 L 250.40 688.60 L 246.10 691.80 L 243.70 692.80 L 241.00 693.40 L 235.90 693.30 L 233.40 692.70 L 228.80 690.60 L 224.80 687.40 L 221.80 683.30 L 220.00 678.50 L 219.60 675.90 L 219.70 674.30 L 222.20 662.10 L 224.90 651.20 L 232.30 624.30 L 236.00 613.10 L 240.30 601.90 L 245.30 590.90 L 253.80 574.80 L 263.60 559.50 L 269.00 552.10 L 274.60 545.10 L 280.60 538.40 L 291.90 526.80 L 295.40 522.60 L 298.90 517.30 L 300.60 512.70 L 301.00 508.10 L 300.60 504.70 L 299.60 500.70 L 293.00 479.40 L 289.80 467.10 L 287.40 455.70 L 285.60 445.00 L 284.20 434.30 L 283.50 424.00 L 283.30 414.20 L 283.70 404.30 L 284.80 394.60 L 286.40 385.00 L 288.50 375.40 L 291.30 365.60 L 294.70 355.60 L 298.60 345.70 L 303.20 335.20 L 308.60 324.10 L 316.00 311.60 L 317.30 308.60 L 318.10 305.60 L 318.20 303.60 L 318.00 301.60 L 317.30 299.50 L 316.20 297.60 L 314.50 295.50 L 312.00 293.20 L 315.20 288.70 L 319.70 283.30 L 324.50 278.10 L 331.30 271.70 Z M 687.70 496.60 L 684.80 498.10 L 682.90 499.80 L 681.40 501.70 L 680.30 503.70 L 677.30 513.80 L 673.40 523.70 L 672.00 528.90 L 672.00 532.50 L 672.50 534.10 L 673.40 535.60 L 674.90 537.00 L 676.60 538.00 L 679.20 539.00 L 682.70 539.80 L 685.90 537.00 L 690.30 530.70 L 692.60 526.00 L 694.60 521.00 L 696.80 512.40 L 697.10 506.30 L 696.70 503.40 L 695.90 501.10 L 694.70 499.20 L 693.50 498.10 L 692.00 497.30 L 690.10 496.70 L 687.70 496.60 Z M 444.70 593.40 L 438.60 594.60 L 432.80 596.20 L 427.30 598.30 L 422.10 600.90 L 418.20 603.30 L 414.50 606.10 L 410.90 609.20 L 407.60 612.80 L 404.40 616.70 L 402.20 620.20 L 400.20 624.50 L 398.40 629.50 L 395.70 640.10 L 393.70 655.10 L 393.10 664.40 L 393.20 682.10 L 393.80 690.30 L 394.70 697.00 L 395.80 702.60 L 397.20 707.70 L 400.80 716.50 L 403.00 720.20 L 406.20 724.70 L 409.80 728.70 L 413.60 732.20 L 417.80 735.30 L 422.30 738.00 L 427.00 740.30 L 432.00 742.20 L 437.30 743.90 L 444.40 745.50 L 451.90 746.70 L 459.60 747.50 L 471.20 748.00 L 482.90 747.90 L 505.40 746.60 L 511.80 744.60 L 517.70 742.40 L 523.20 739.80 L 528.30 736.90 L 533.10 733.50 L 537.50 729.80 L 541.40 725.70 L 544.90 721.10 L 547.30 717.30 L 549.40 713.10 L 551.20 708.60 L 552.80 703.60 L 554.00 698.30 L 555.00 690.10 L 555.60 678.80 L 555.70 666.10 L 555.30 653.40 L 554.50 642.30 L 553.10 634.20 L 551.00 628.00 L 548.60 622.50 L 545.90 617.70 L 542.90 613.60 L 539.50 609.70 L 535.80 606.40 L 531.90 603.50 L 527.70 601.00 L 518.60 597.20 L 508.70 594.70 L 494.90 592.90 L 476.70 592.50 L 444.70 593.40 Z" fill="#4bd5e4" fill-rule="nonzero" group-id="2" node-id="31" stroke="none" target-height="562.3" target-width="491.19998" target-x="219.6" target-y="232.2"></path></g><g node-id="120"><path d="M 254.00 277.70 L 250.50 277.50 L 247.90 276.60 L 243.90 274.80 L 239.30 272.00 L 234.80 268.70 L 230.40 264.90 L 226.30 260.80 L 222.80 256.50 L 220.90 253.40 L 219.50 250.50 L 218.60 247.70 L 218.30 245.60 L 218.90 241.60 L 219.70 239.70 L 220.90 238.10 L 222.60 236.50 L 224.90 235.00 L 228.00 233.50 L 231.10 234.20 L 237.40 237.40 L 246.20 243.70 L 250.50 247.50 L 254.60 251.60 L 258.00 255.90 L 259.90 258.80 L 262.20 264.40 L 262.60 266.40 L 262.30 270.20 L 260.50 273.50 L 259.00 275.00 L 256.90 276.40 L 254.00 277.70 Z" fill="#000000" fill-rule="nonzero" group-id="3" node-id="36" stroke="none" target-height="44.200012" target-width="44.300003" target-x="218.3" target-y="233.5"></path></g><g node-id="121"><path d="M 769.00 341.60 L 767.20 333.90 L 764.00 315.80 L 762.50 301.60 L 762.20 294.70 L 762.40 287.90 L 763.00 282.00 L 763.70 278.10 L 764.80 275.00 L 766.00 272.30 L 767.30 270.50 L 768.70 269.20 L 770.20 268.20 L 772.10 267.50 L 775.00 267.10 L 778.10 267.20 L 781.50 268.00 L 788.20 270.70 L 797.00 276.40 L 802.20 280.60 L 812.00 289.90 L 816.50 294.70 L 823.90 303.80 L 828.80 311.10 L 834.70 322.80 L 836.80 326.40 L 839.20 329.40 L 841.00 331.10 L 843.10 332.30 L 845.40 333.30 L 847.90 333.70 L 850.80 333.60 L 854.30 332.90 L 854.80 335.70 L 857.20 341.80 L 858.90 344.70 L 862.60 349.50 L 859.90 351.20 L 858.00 352.90 L 856.70 354.70 L 855.70 356.70 L 855.20 358.80 L 855.00 361.10 L 855.30 364.50 L 856.10 368.20 L 861.20 382.40 L 862.70 387.50 L 866.00 401.90 L 867.50 410.60 L 869.70 428.80 L 870.10 438.20 L 870.00 447.30 L 868.60 458.90 L 867.50 464.10 L 864.80 471.40 L 861.30 477.20 L 859.00 479.70 L 856.50 481.80 L 853.70 483.50 L 850.40 484.70 L 845.80 483.10 L 841.50 480.90 L 837.30 478.30 L 829.70 471.80 L 826.20 468.00 L 821.40 461.90 L 816.90 455.30 L 809.00 441.80 L 802.30 428.80 L 807.70 424.90 L 812.30 420.90 L 816.20 416.80 L 819.40 412.70 L 822.30 408.10 L 824.50 403.60 L 826.20 399.10 L 827.40 394.60 L 828.10 389.90 L 828.30 385.40 L 828.10 380.90 L 827.40 376.40 L 826.20 372.10 L 824.70 367.90 L 822.70 364.00 L 820.40 360.20 L 817.70 356.60 L 814.70 353.30 L 811.30 350.30 L 807.60 347.60 L 803.70 345.30 L 799.50 343.40 L 795.00 341.90 L 790.10 340.80 L 785.30 340.20 L 780.10 340.20 L 774.70 340.60 L 769.00 341.60 Z" fill="#ffcdaa" fill-rule="nonzero" group-id="4" node-id="41" stroke="none" target-height="217.6" target-width="107.89996" target-x="762.2" target-y="267.1"></path></g><g node-id="122"><path d="M 276.40 510.00 L 273.60 496.30 L 270.70 484.20 L 262.40 451.20 L 259.20 433.70 L 258.10 418.90 L 258.10 411.40 L 258.60 403.20 L 259.60 394.30 L 261.10 385.50 L 263.20 375.80 L 266.10 364.90 L 273.30 342.40 L 279.00 327.70 L 282.30 320.30 L 288.50 308.80 L 293.80 301.40 L 296.80 298.20 L 299.70 295.80 L 302.60 294.00 L 304.90 293.10 L 307.20 292.70 L 309.60 292.70 L 312.00 293.20 L 314.50 295.50 L 316.20 297.60 L 317.30 299.50 L 318.00 301.60 L 318.20 303.60 L 318.10 305.60 L 317.30 308.60 L 316.00 311.60 L 308.60 324.10 L 303.20 335.20 L 298.60 345.70 L 294.70 355.60 L 291.30 365.60 L 288.50 375.40 L 286.40 385.00 L 284.80 394.60 L 283.70 404.30 L 283.30 414.20 L 283.50 424.00 L 284.20 434.30 L 285.60 445.00 L 287.40 455.70 L 289.80 467.10 L 293.00 479.40 L 299.60 500.70 L 300.60 504.70 L 301.00 508.10 L 300.60 512.70 L 298.90 517.30 L 295.40 522.60 L 291.90 526.80 L 280.60 538.40 L 274.60 545.10 L 269.00 552.10 L 263.60 559.50 L 253.80 574.80 L 245.30 590.90 L 240.30 601.90 L 236.00 613.10 L 232.30 624.30 L 224.90 651.20 L 222.20 662.10 L 219.70 674.30 L 219.60 675.90 L 220.00 678.50 L 221.80 683.30 L 224.80 687.40 L 228.80 690.60 L 233.40 692.70 L 235.90 693.30 L 241.00 693.40 L 243.70 692.80 L 246.10 691.80 L 250.40 688.60 L 254.00 684.30 L 256.30 680.70 L 262.00 669.70 L 264.90 665.20 L 272.30 650.00 L 278.00 639.90 L 309.00 587.90 L 314.40 581.30 L 317.30 578.80 L 319.40 577.50 L 321.50 576.60 L 323.60 576.20 L 325.70 576.20 L 328.00 576.80 L 330.30 578.10 L 332.10 579.50 L 334.40 582.70 L 335.40 585.50 L 336.20 588.70 L 335.20 591.60 L 331.30 600.30 L 327.80 604.80 L 319.00 617.50 L 305.00 640.60 L 296.80 655.40 L 290.60 667.10 L 292.80 677.10 L 295.40 686.60 L 298.40 695.60 L 301.90 704.30 L 305.00 711.00 L 308.50 717.60 L 312.30 723.90 L 316.50 730.00 L 321.10 735.90 L 325.90 741.40 L 331.30 746.80 L 337.10 752.10 L 343.50 757.20 L 350.40 762.10 L 357.80 766.30 L 368.20 771.10 L 380.20 776.10 L 403.40 784.70 L 411.90 787.30 L 421.00 789.60 L 430.50 791.50 L 440.60 792.90 L 450.70 793.90 L 461.10 794.40 L 471.80 794.50 L 482.50 794.20 L 493.20 793.40 L 504.00 792.20 L 514.70 790.60 L 525.30 788.50 L 535.70 786.10 L 546.00 783.20 L 555.90 779.90 L 565.50 776.30 L 574.80 772.10 L 583.60 767.60 L 591.80 762.80 L 596.70 759.40 L 605.30 752.70 L 612.30 748.20 L 618.40 746.00 L 621.60 745.60 L 625.10 745.80 L 629.20 746.60 L 632.50 751.30 L 633.40 753.30 L 633.70 755.30 L 633.70 758.00 L 633.00 760.60 L 631.70 763.10 L 627.80 767.90 L 625.30 770.20 L 621.10 773.50 L 604.10 785.20 L 600.90 788.10 L 608.00 813.30 L 612.80 813.70 L 617.20 814.60 L 621.20 815.80 L 624.90 817.30 L 628.40 819.20 L 631.50 821.30 L 634.30 823.60 L 636.70 826.20 L 638.90 829.00 L 642.20 835.10 L 643.30 838.30 L 644.40 845.00 L 644.10 851.80 L 643.40 855.10 L 640.90 861.60 L 639.00 864.80 L 636.80 867.70 L 634.20 870.50 L 631.20 873.10 L 627.70 875.60 L 624.30 877.40 L 618.30 879.60 L 614.00 880.30 L 609.90 880.40 L 593.80 878.30 L 589.60 878.20 L 585.00 878.50 L 580.10 879.60 L 575.40 881.00 L 557.50 887.60 L 552.90 888.70 L 548.00 889.30 L 541.00 889.00 L 537.10 888.20 L 532.50 886.80 L 528.50 885.10 L 524.90 883.20 L 521.70 880.90 L 518.80 878.30 L 516.40 875.50 L 514.40 872.50 L 512.80 869.30 L 511.70 866.00 L 511.00 862.60 L 510.80 859.10 L 511.00 855.50 L 511.70 852.00 L 512.90 848.60 L 514.60 845.10 L 516.80 841.50 L 519.40 838.30 L 522.60 835.30 L 526.40 832.30 L 530.90 829.30 L 523.90 813.30 L 500.10 816.20 L 487.30 817.10 L 474.20 817.70 L 461.20 817.80 L 448.40 817.40 L 440.00 816.90 L 424.60 814.90 L 417.10 831.20 L 420.90 833.50 L 424.20 836.10 L 427.00 838.70 L 429.30 841.50 L 431.40 844.60 L 433.00 847.70 L 435.10 854.10 L 435.50 857.40 L 435.30 863.90 L 433.50 870.10 L 432.10 873.10 L 428.10 878.60 L 425.60 881.10 L 422.70 883.30 L 419.50 885.20 L 415.70 887.00 L 411.60 888.40 L 407.80 889.30 L 404.30 889.60 L 397.40 889.00 L 389.40 886.80 L 375.10 880.90 L 370.10 879.30 L 364.80 878.10 L 359.70 877.70 L 354.90 877.80 L 341.00 878.80 L 336.30 878.50 L 333.10 878.00 L 326.10 875.80 L 321.20 873.30 L 317.20 870.70 L 313.80 867.90 L 311.00 865.00 L 308.50 861.60 L 306.70 858.30 L 305.40 854.80 L 304.70 851.30 L 304.40 847.60 L 304.70 844.00 L 305.50 840.40 L 306.80 836.70 L 308.50 833.20 L 310.70 829.90 L 313.50 826.60 L 316.80 823.30 L 320.40 820.50 L 324.50 817.90 L 329.20 815.50 L 334.40 813.30 L 336.90 809.50 L 339.10 805.40 L 346.10 788.10 L 337.50 782.30 L 329.50 776.20 L 321.90 769.90 L 314.80 763.40 L 308.10 756.50 L 301.80 749.30 L 296.00 741.70 L 290.50 733.70 L 285.60 725.50 L 281.10 716.80 L 277.00 707.60 L 273.30 697.90 L 270.20 702.10 L 266.90 705.70 L 263.60 708.80 L 260.10 711.30 L 256.30 713.40 L 252.50 715.10 L 248.70 716.30 L 244.80 717.10 L 240.80 717.50 L 232.90 717.10 L 229.00 716.40 L 224.00 714.80 L 219.20 712.70 L 214.60 710.00 L 210.40 706.80 L 206.60 703.10 L 203.20 698.90 L 199.10 692.00 L 196.40 684.10 L 195.60 680.00 L 195.30 675.70 L 195.40 671.20 L 196.00 666.50 L 198.00 657.80 L 204.50 633.80 L 210.60 613.60 L 213.50 605.40 L 221.20 586.80 L 225.90 576.90 L 231.00 567.10 L 236.50 557.30 L 242.50 547.70 L 248.70 538.60 L 253.10 532.80 L 262.10 522.40 L 266.90 517.70 L 271.60 513.50 L 276.40 510.00 Z M 570.00 800.70 L 558.90 804.50 L 547.60 807.80 L 551.80 818.30 L 554.30 826.00 L 556.20 834.60 L 556.20 840.40 L 555.60 842.50 L 554.90 844.10 L 552.50 846.50 L 548.60 848.10 L 540.60 849.90 L 539.00 850.60 L 536.40 852.60 L 535.50 854.00 L 534.80 855.80 L 534.30 858.30 L 536.10 861.90 L 537.40 863.20 L 538.90 864.10 L 541.20 864.90 L 543.80 865.30 L 547.00 865.30 L 551.80 864.70 L 557.20 863.60 L 577.60 856.90 L 584.70 855.00 L 588.60 854.90 L 592.50 855.20 L 604.50 856.80 L 608.30 856.90 L 613.30 856.00 L 615.60 855.00 L 618.70 852.90 L 620.60 851.20 L 621.70 849.70 L 622.30 848.00 L 622.30 846.50 L 621.80 845.10 L 620.80 843.70 L 617.70 841.10 L 611.10 837.80 L 604.00 835.20 L 595.10 832.60 L 592.50 830.70 L 590.30 828.50 L 586.90 823.00 L 584.40 816.60 L 579.60 797.00 L 570.00 800.70 Z M 390.80 841.30 L 390.90 836.70 L 392.70 829.80 L 401.40 809.40 L 395.90 807.50 L 375.10 798.90 L 369.80 797.00 L 366.40 803.50 L 357.70 824.00 L 354.10 830.30 L 352.50 832.30 L 349.10 834.40 L 344.10 835.70 L 337.70 836.80 L 334.80 837.80 L 333.00 838.70 L 331.50 840.00 L 330.20 841.70 L 328.90 844.30 L 328.50 846.40 L 328.60 848.00 L 329.30 849.60 L 330.50 850.90 L 332.30 852.10 L 335.40 853.30 L 339.50 854.30 L 343.80 854.90 L 357.70 855.30 L 369.80 855.00 L 375.80 856.50 L 398.70 865.00 L 404.60 866.30 L 408.00 864.80 L 410.10 863.40 L 411.20 862.20 L 411.90 860.70 L 411.90 859.20 L 411.40 857.70 L 409.10 854.80 L 407.30 853.20 L 394.90 844.70 L 390.80 841.30 Z" fill="#000000" fill-rule="nonzero" group-id="5" node-id="46" stroke="none" target-height="596.89996" target-width="449.10004" target-x="195.3" target-y="292.7"></path></g><g node-id="123"><path d="M 211.40 334.40 L 206.90 334.20 L 199.90 332.80 L 185.00 328.70 L 180.40 327.00 L 177.60 325.30 L 175.60 323.50 L 174.10 321.50 L 173.10 319.20 L 172.60 316.90 L 172.70 314.50 L 173.20 312.20 L 174.20 310.00 L 175.70 308.00 L 177.60 306.30 L 179.90 304.90 L 182.90 303.90 L 184.80 303.70 L 187.60 303.90 L 194.10 305.00 L 201.30 306.90 L 212.60 310.70 L 215.60 312.40 L 217.80 314.20 L 219.40 316.10 L 220.60 318.40 L 221.10 320.70 L 221.20 323.00 L 220.70 325.30 L 219.80 327.50 L 218.30 329.60 L 216.50 331.50 L 214.20 333.10 L 211.40 334.40 Z" fill="#000000" fill-rule="nonzero" group-id="6" node-id="51" stroke="none" target-height="30.699982" target-width="48.59999" target-x="172.6" target-y="303.7"></path></g><g node-id="124"><path d="M 561.80 518.30 L 546.10 523.40 L 537.10 525.80 L 518.60 529.50 L 508.60 531.00 L 488.30 533.00 L 477.90 533.50 L 467.50 533.60 L 446.90 532.80 L 436.70 531.80 L 426.80 530.30 L 417.30 528.50 L 408.00 526.10 L 399.20 523.20 L 391.00 520.00 L 385.10 517.10 L 379.50 513.90 L 374.50 510.50 L 369.80 506.80 L 365.50 502.80 L 361.40 498.30 L 357.50 493.50 L 353.90 488.20 L 347.60 477.00 L 342.30 464.60 L 339.50 456.00 L 337.20 447.10 L 335.40 437.90 L 334.20 428.60 L 333.60 419.30 L 333.50 409.90 L 334.10 400.60 L 335.20 391.50 L 337.00 382.50 L 338.70 375.90 L 340.80 369.60 L 343.20 363.40 L 346.00 357.60 L 349.20 351.90 L 352.80 346.50 L 356.70 341.50 L 361.00 336.90 L 365.70 332.60 L 370.80 328.70 L 376.30 325.30 L 382.30 322.30 L 387.20 320.30 L 392.40 318.70 L 398.00 317.30 L 403.90 316.30 L 410.20 315.70 L 414.60 315.80 L 423.10 316.70 L 429.40 318.00 L 454.90 325.10 L 461.50 326.60 L 468.30 327.60 L 475.20 328.00 L 480.90 327.70 L 486.20 327.10 L 491.40 326.10 L 499.00 324.20 L 513.70 319.60 L 526.20 316.50 L 536.80 315.30 L 543.90 315.40 L 550.50 316.00 L 556.70 317.10 L 562.40 318.70 L 568.00 320.80 L 573.20 323.30 L 578.00 326.20 L 582.60 329.50 L 586.80 333.20 L 590.80 337.20 L 594.40 341.50 L 597.80 346.10 L 601.80 352.60 L 605.40 359.60 L 608.40 367.00 L 611.00 374.60 L 613.10 382.40 L 614.80 390.50 L 616.00 398.70 L 616.80 406.90 L 617.20 415.10 L 609.80 420.40 L 605.40 419.10 L 601.10 418.30 L 596.90 418.00 L 592.60 418.20 L 588.50 418.90 L 584.50 420.10 L 580.60 421.80 L 577.00 423.90 L 573.60 426.50 L 570.60 429.50 L 567.90 432.90 L 565.50 436.90 L 564.00 440.50 L 562.90 444.00 L 562.20 447.60 L 561.90 451.20 L 562.10 456.10 L 562.80 461.00 L 563.90 466.10 L 566.30 473.50 L 569.40 481.10 L 579.10 503.10 L 581.60 510.00 L 561.80 518.30 Z M 561.80 378.40 L 558.40 379.00 L 555.50 380.10 L 553.10 381.60 L 551.10 383.60 L 549.40 385.90 L 548.10 388.50 L 547.20 391.30 L 546.60 394.30 L 546.40 400.60 L 547.60 406.70 L 548.60 409.60 L 551.50 414.70 L 553.40 416.80 L 555.40 418.50 L 557.80 419.80 L 560.30 420.60 L 563.00 420.80 L 566.10 420.40 L 568.90 419.10 L 573.40 415.80 L 575.10 413.80 L 577.10 410.80 L 578.50 407.60 L 579.40 404.10 L 579.90 400.50 L 580.00 397.00 L 579.60 393.50 L 578.80 390.10 L 577.70 387.00 L 576.30 384.30 L 574.50 381.80 L 572.40 379.90 L 570.10 378.50 L 568.30 377.80 L 566.30 377.60 L 564.10 377.70 L 561.80 378.40 Z M 385.00 379.90 L 382.60 380.90 L 378.50 383.50 L 376.90 385.20 L 375.20 387.80 L 373.90 390.70 L 373.00 393.80 L 372.50 397.10 L 372.50 400.30 L 372.90 403.60 L 373.70 406.80 L 374.90 409.70 L 376.50 412.50 L 378.50 414.90 L 380.80 416.80 L 383.50 418.20 L 385.70 419.00 L 390.70 419.30 L 393.70 418.90 L 396.50 417.00 L 398.90 414.80 L 400.80 412.30 L 402.40 409.50 L 403.60 406.50 L 404.50 403.30 L 404.90 400.10 L 404.70 393.80 L 404.00 390.80 L 402.90 388.00 L 401.50 385.60 L 399.70 383.40 L 397.50 381.60 L 394.90 380.30 L 392.90 379.70 L 388.00 379.50 L 385.00 379.90 Z M 472.40 397.90 L 468.00 398.30 L 462.60 399.30 L 457.20 400.70 L 447.80 404.40 L 441.10 408.30 L 438.10 410.60 L 435.60 413.20 L 433.60 415.90 L 431.60 420.50 L 431.20 425.70 L 431.70 428.80 L 432.70 431.80 L 438.70 443.00 L 446.10 459.00 L 452.30 470.10 L 455.80 475.10 L 458.50 478.10 L 461.40 480.70 L 464.50 483.00 L 467.90 484.80 L 471.50 486.10 L 475.60 486.80 L 481.30 485.30 L 486.90 482.30 L 490.30 479.60 L 493.70 476.40 L 499.90 468.60 L 505.30 459.70 L 508.80 452.60 L 511.60 445.60 L 513.90 438.50 L 515.30 432.20 L 516.00 428.00 L 516.10 421.50 L 515.30 417.80 L 514.00 414.40 L 512.20 411.20 L 509.90 408.20 L 507.20 405.60 L 504.10 403.20 L 500.70 401.20 L 493.50 398.10 L 486.00 396.40 L 482.40 396.20 L 478.70 396.40 L 475.40 396.90 L 472.40 397.90 Z" fill="#ffffff" fill-rule="nonzero" group-id="7" node-id="56" stroke="none" target-height="218.29999" target-width="283.7" target-x="333.5" target-y="315.3"></path></g><g node-id="125"><path d="M 755.80 379.90 L 772.30 421.90 L 776.90 432.50 L 781.90 442.60 L 785.60 449.10 L 789.50 455.00 L 793.70 460.40 L 776.70 460.00 L 736.90 458.00 L 726.70 457.70 L 716.90 457.80 L 707.30 458.20 L 698.60 459.10 L 687.80 461.30 L 683.30 462.80 L 677.10 465.50 L 670.80 468.70 L 646.40 482.50 L 633.20 452.00 L 655.00 444.10 L 671.60 437.40 L 684.30 431.10 L 689.70 427.60 L 694.60 424.00 L 699.20 420.00 L 708.40 410.20 L 713.50 404.10 L 739.50 370.00 L 752.00 378.30 L 755.80 379.90 Z" fill="#ffcdaa" fill-rule="nonzero" group-id="8" node-id="61" stroke="none" target-height="112.5" target-width="160.5" target-x="633.2" target-y="370"></path></g><g node-id="126"><path d="M 566.10 420.40 L 563.00 420.80 L 560.30 420.60 L 557.80 419.80 L 555.40 418.50 L 553.40 416.80 L 551.50 414.70 L 548.60 409.60 L 547.60 406.70 L 546.40 400.60 L 546.30 397.40 L 547.20 391.30 L 548.10 388.50 L 549.40 385.90 L 551.10 383.60 L 553.10 381.60 L 555.50 380.10 L 558.40 379.00 L 564.10 377.70 L 566.30 377.60 L 568.30 377.80 L 570.10 378.50 L 572.40 379.90 L 574.50 381.80 L 576.30 384.30 L 577.70 387.00 L 578.80 390.10 L 579.60 393.50 L 580.00 397.00 L 579.90 400.50 L 579.40 404.10 L 578.50 407.60 L 577.10 410.80 L 575.10 413.80 L 573.40 415.80 L 568.90 419.10 L 566.10 420.40 Z" fill="#000000" fill-rule="nonzero" group-id="9" node-id="66" stroke="none" target-height="43.19998" target-width="33.700012" target-x="546.3" target-y="377.6"></path></g><g node-id="127"><path d="M 393.70 418.90 L 390.70 419.30 L 385.70 419.00 L 383.50 418.20 L 380.80 416.80 L 378.50 414.90 L 376.50 412.50 L 374.90 409.70 L 373.70 406.80 L 372.90 403.60 L 372.50 400.30 L 372.50 397.10 L 373.00 393.80 L 373.90 390.70 L 375.20 387.80 L 376.90 385.20 L 380.40 382.10 L 385.00 379.90 L 388.00 379.50 L 390.60 379.40 L 394.90 380.30 L 397.50 381.60 L 399.70 383.40 L 401.50 385.60 L 402.90 388.00 L 404.00 390.80 L 404.70 393.80 L 404.90 400.10 L 403.60 406.50 L 402.40 409.50 L 400.80 412.30 L 398.90 414.80 L 396.50 417.00 L 393.70 418.90 Z" fill="#000000" fill-rule="nonzero" group-id="10" node-id="71" stroke="none" target-height="39.899994" target-width="32.399994" target-x="372.5" target-y="379.4"></path></g><g node-id="128"><path d="M 475.60 486.80 L 471.50 486.10 L 467.90 484.80 L 464.50 483.00 L 461.40 480.70 L 458.50 478.10 L 455.80 475.10 L 452.30 470.10 L 446.10 459.00 L 438.70 443.00 L 432.70 431.80 L 431.70 428.80 L 431.20 425.70 L 431.20 423.00 L 431.60 420.50 L 432.40 418.10 L 433.60 415.90 L 435.60 413.20 L 438.10 410.60 L 441.10 408.30 L 447.80 404.40 L 457.20 400.70 L 462.60 399.30 L 468.00 398.30 L 472.40 397.90 L 475.40 396.90 L 478.70 396.40 L 482.40 396.20 L 489.70 397.10 L 497.20 399.50 L 504.10 403.20 L 507.20 405.60 L 509.90 408.20 L 512.20 411.20 L 514.00 414.40 L 515.30 417.80 L 516.10 421.50 L 516.00 428.00 L 515.30 432.20 L 513.90 438.50 L 511.60 445.60 L 508.80 452.60 L 505.30 459.70 L 502.70 464.30 L 496.90 472.60 L 493.70 476.40 L 490.30 479.60 L 486.90 482.30 L 484.10 484.00 L 481.30 485.30 L 475.60 486.80 Z M 475.60 420.40 L 466.60 422.90 L 458.00 426.70 L 465.10 444.60 L 468.00 450.40 L 470.30 454.10 L 472.80 457.40 L 475.60 460.40 L 477.80 458.40 L 480.20 455.40 L 482.30 452.00 L 486.30 443.90 L 489.50 435.20 L 490.60 431.20 L 491.80 424.10 L 483.80 421.70 L 475.60 420.40 Z" fill="#000000" fill-rule="nonzero" group-id="11" node-id="76" stroke="none" target-height="90.599976" target-width="84.89996" target-x="431.2" target-y="396.2"></path></g><g node-id="129"><path d="M 458.00 426.70 L 466.60 422.90 L 475.60 420.40 L 483.80 421.70 L 491.80 424.10 L 490.60 431.20 L 489.50 435.20 L 486.30 443.90 L 482.30 452.00 L 480.20 455.40 L 477.80 458.40 L 475.60 460.40 L 472.80 457.40 L 470.30 454.10 L 468.00 450.40 L 465.10 444.60 L 458.00 426.70 Z" fill="#fc9e5d" fill-rule="nonzero" group-id="12" node-id="81" stroke="none" target-height="40" target-width="33.799988" target-x="458" target-y="420.4"></path></g><g node-id="130"><path d="M 623.50 522.20 L 619.60 521.70 L 616.10 519.60 L 611.90 515.20 L 610.00 512.20 L 605.00 502.20 L 597.70 483.80 L 590.80 471.20 L 587.10 463.30 L 585.40 457.30 L 585.10 454.30 L 585.50 451.60 L 586.40 449.00 L 587.40 447.30 L 588.90 445.60 L 590.90 444.10 L 593.60 442.60 L 596.20 442.60 L 598.40 443.10 L 600.30 444.00 L 603.70 446.90 L 605.10 448.70 L 608.60 455.30 L 613.90 468.90 L 623.90 487.60 L 628.80 498.30 L 630.10 501.80 L 631.50 508.30 L 631.60 511.40 L 631.20 514.20 L 630.30 516.60 L 629.20 518.30 L 627.80 519.70 L 625.90 521.00 L 623.50 522.20 Z" fill="#ffffff" fill-rule="nonzero" group-id="13" node-id="86" stroke="none" target-height="79.600006" target-width="46.5" target-x="585.1" target-y="442.6"></path></g><g node-id="131"><path d="M 505.40 746.60 L 482.90 747.90 L 471.20 748.00 L 459.60 747.50 L 451.90 746.70 L 444.40 745.50 L 437.30 743.90 L 432.00 742.20 L 427.00 740.30 L 422.30 738.00 L 417.80 735.30 L 413.60 732.20 L 409.80 728.70 L 406.20 724.70 L 403.00 720.20 L 400.80 716.50 L 397.20 707.70 L 395.80 702.60 L 394.70 697.00 L 393.80 690.30 L 393.20 682.10 L 393.10 664.40 L 393.70 655.10 L 394.70 646.10 L 397.00 634.60 L 400.20 624.50 L 402.20 620.20 L 404.40 616.70 L 407.60 612.80 L 410.90 609.20 L 414.50 606.10 L 418.20 603.30 L 422.10 600.90 L 427.30 598.30 L 432.80 596.20 L 438.60 594.60 L 444.70 593.40 L 476.70 592.50 L 494.90 592.90 L 501.90 593.60 L 513.80 595.80 L 518.60 597.20 L 527.70 601.00 L 531.90 603.50 L 535.80 606.40 L 539.50 609.70 L 542.90 613.60 L 545.90 617.70 L 548.60 622.50 L 551.00 628.00 L 553.10 634.20 L 553.80 637.60 L 554.50 642.30 L 555.30 653.40 L 555.70 666.10 L 555.60 678.80 L 555.00 690.10 L 554.00 698.30 L 552.80 703.60 L 551.20 708.50 L 549.40 713.10 L 547.30 717.30 L 544.90 721.10 L 541.40 725.70 L 537.50 729.80 L 533.10 733.50 L 528.30 736.90 L 523.20 739.80 L 517.70 742.40 L 511.80 744.60 L 505.40 746.60 Z M 448.70 617.10 L 440.00 618.90 L 436.50 620.20 L 430.60 623.60 L 428.10 625.70 L 424.10 630.40 L 422.10 634.00 L 420.40 637.90 L 418.40 646.60 L 417.40 656.10 L 417.10 671.10 L 417.30 680.20 L 417.90 687.80 L 418.70 694.00 L 419.70 698.70 L 422.30 706.20 L 423.80 709.10 L 425.80 711.80 L 428.00 714.20 L 430.50 716.20 L 433.30 717.90 L 437.40 719.70 L 442.20 721.10 L 448.00 722.10 L 460.80 723.00 L 500.60 723.10 L 505.70 721.40 L 510.30 719.40 L 514.50 717.10 L 518.30 714.30 L 521.70 711.20 L 524.60 707.60 L 526.40 704.70 L 528.00 701.40 L 529.20 697.80 L 530.10 693.80 L 530.70 687.30 L 531.30 666.80 L 531.10 655.80 L 530.50 646.50 L 529.50 640.30 L 528.10 636.50 L 526.40 633.20 L 524.50 630.40 L 522.20 627.90 L 518.70 625.00 L 514.90 622.50 L 510.50 620.50 L 505.90 619.00 L 501.10 617.80 L 495.80 617.00 L 487.90 616.30 L 471.50 616.20 L 448.70 617.10 Z" fill="#000000" fill-rule="nonzero" group-id="14" node-id="91" stroke="none" target-height="155.5" target-width="162.6" target-x="393.1" target-y="592.5"></path></g><g node-id="132"><path d="M 500.60 723.10 L 460.80 723.00 L 448.00 722.10 L 442.20 721.10 L 437.40 719.70 L 433.30 717.90 L 430.50 716.20 L 428.00 714.20 L 425.80 711.80 L 423.80 709.10 L 420.90 702.70 L 419.70 698.70 L 417.90 687.80 L 417.30 680.20 L 417.10 663.50 L 417.40 656.10 L 418.40 646.60 L 420.40 637.90 L 422.10 634.00 L 424.10 630.40 L 425.90 627.90 L 430.60 623.60 L 433.50 621.70 L 440.00 618.90 L 448.70 617.10 L 471.50 616.20 L 487.90 616.30 L 495.80 617.00 L 501.10 617.80 L 505.90 619.00 L 510.50 620.50 L 514.90 622.50 L 518.70 625.00 L 522.20 627.90 L 524.50 630.40 L 526.40 633.20 L 528.10 636.50 L 529.50 640.30 L 530.00 642.70 L 531.10 655.80 L 531.30 666.80 L 530.70 687.30 L 530.10 693.80 L 529.20 697.80 L 528.00 701.40 L 526.40 704.70 L 524.60 707.60 L 521.70 711.20 L 518.30 714.30 L 514.50 717.10 L 510.30 719.40 L 505.70 721.40 L 500.60 723.10 Z" fill="#ffcdaa" fill-rule="nonzero" group-id="15" node-id="96" stroke="none" target-height="106.89996" target-width="114.19998" target-x="417.1" target-y="616.2"></path></g><g node-id="133"><path d="M 390.80 841.30 L 381.40 840.00 L 378.50 839.90 L 374.10 840.70 L 372.30 841.60 L 370.90 843.10 L 369.90 845.10 L 369.40 847.40 L 369.30 850.60 L 369.80 855.00 L 348.50 855.20 L 339.50 854.30 L 335.40 853.30 L 332.30 852.10 L 330.50 850.90 L 329.30 849.60 L 328.60 848.00 L 328.50 846.40 L 328.90 844.30 L 330.20 841.70 L 331.50 840.00 L 333.00 838.70 L 334.80 837.80 L 337.70 836.80 L 344.10 835.70 L 349.10 834.40 L 352.50 832.30 L 354.10 830.30 L 357.70 824.00 L 366.40 803.50 L 369.80 797.00 L 375.10 798.90 L 395.90 807.50 L 401.40 809.40 L 392.70 829.80 L 390.90 836.70 L 390.80 841.30 Z" fill="#fc9e5d" fill-rule="nonzero" group-id="16" node-id="101" stroke="none" target-height="58.200012" target-width="72.899994" target-x="328.5" target-y="797"></path></g><g node-id="134"><path d="M 570.00 800.70 L 579.60 797.00 L 584.40 816.60 L 586.90 823.00 L 590.30 828.50 L 592.50 830.70 L 595.10 832.60 L 607.50 836.40 L 614.60 839.40 L 619.50 842.40 L 621.80 845.10 L 622.30 846.50 L 622.30 848.00 L 621.70 849.70 L 620.60 851.20 L 618.70 852.90 L 615.60 855.00 L 600.50 850.40 L 594.50 848.10 L 589.80 845.70 L 584.60 841.90 L 580.70 837.30 L 577.50 831.10 L 575.60 825.60 L 573.70 818.50 L 570.00 800.70 Z" fill="#ffcdaa" fill-rule="nonzero" group-id="17" node-id="106" stroke="none" target-height="58" target-width="52.299988" target-x="570" target-y="797"></path></g><g node-id="135"><path d="M 547.60 807.80 L 558.90 804.50 L 570.00 800.70 L 573.70 818.50 L 575.60 825.60 L 577.50 831.10 L 579.10 834.40 L 582.50 839.70 L 587.00 843.90 L 589.80 845.70 L 594.50 848.10 L 600.50 850.40 L 615.60 855.00 L 613.30 856.00 L 608.30 856.90 L 604.50 856.80 L 588.60 854.90 L 584.70 855.00 L 577.60 856.90 L 562.60 862.00 L 551.80 864.70 L 547.00 865.30 L 543.80 865.30 L 541.20 864.90 L 538.90 864.10 L 537.40 863.20 L 536.10 861.90 L 535.10 860.30 L 534.30 858.30 L 534.80 855.80 L 535.50 854.00 L 536.40 852.60 L 539.00 850.60 L 540.60 849.90 L 548.60 848.10 L 552.50 846.50 L 554.90 844.10 L 555.60 842.50 L 556.20 840.40 L 556.20 834.60 L 554.30 826.00 L 551.80 818.30 L 547.60 807.80 Z" fill="#fc9e5d" fill-rule="nonzero" group-id="18" node-id="111" stroke="none" target-height="64.599976" target-width="81.29999" target-x="534.3" target-y="800.7"></path></g><path d="M 369.80 855.00 L 369.30 850.60 L 369.40 847.40 L 369.90 845.10 L 370.90 843.10 L 372.30 841.60 L 374.10 840.70 L 378.50 839.90 L 381.40 840.00 L 390.80 841.30 L 394.90 844.70 L 407.30 853.20 L 410.50 856.30 L 411.40 857.70 L 411.90 859.20 L 411.90 860.70 L 411.20 862.20 L 410.10 863.40 L 408.00 864.80 L 404.60 866.30 L 398.70 865.00 L 375.80 856.50 L 369.80 855.00 Z" fill="#ffcdaa" fill-rule="nonzero" group-id="19" node-id="116" stroke="none" target-height="26.399963" target-width="42.600006" target-x="369.3" target-y="839.9"></path></svg>