<?xml version="1.0" standalone="no"?><!DOCTYPE svg PUBLIC "-//W3C//DTD SVG 1.1//EN" "http://www.w3.org/Graphics/SVG/1.1/DTD/svg11.dtd"><svg t="1745221653553" class="icon" viewBox="0 0 1030 1024" version="1.1" xmlns="http://www.w3.org/2000/svg" p-id="28895" xmlns:xlink="http://www.w3.org/1999/xlink" width="201.171875" height="200"><path d="M864 64h-704C70.4 64 0 134.4 0 224v448C0 761.6 70.4 832 160 832h147.2l185.6 185.6c0 6.4 12.8 6.4 19.2 6.4s19.2 0 25.6-6.4l185.6-185.6h147.2c89.6 0 160-70.4 160-160v-448C1024 134.4 953.6 64 864 64z m96 608c0 51.2-44.8 96-96 96H704c-6.4 0-19.2 6.4-25.6 6.4L512 947.2l-166.4-166.4c-6.4-6.4-19.2-12.8-25.6-12.8H160c-51.2 0-96-44.8-96-96v-448C64 172.8 108.8 128 160 128h704c51.2 0 96 44.8 96 96v448z" fill="#231815" p-id="28896"></path><path d="M192 384h128v128H192zM448 384h128v128H448zM704 384h128v128h-128z" fill="#231815" p-id="28897"></path></svg>