<?xml version="1.0" standalone="no"?><!DOCTYPE svg PUBLIC "-//W3C//DTD SVG 1.1//EN" "http://www.w3.org/Graphics/SVG/1.1/DTD/svg11.dtd"><svg height="32" node-id="1" sillyvg="true" template-height="32" template-width="32" version="1.1" viewBox="0 0 32 32" width="32" xmlns="http://www.w3.org/2000/svg" xmlns:xlink="http://www.w3.org/1999/xlink"><defs node-id="62"><linearGradient gradientUnits="objectBoundingBox" id="paint2_linear_31_1447" node-id="26" spreadMethod="pad" x1="16" x2="16" y1="23" y2="25"><stop offset="0" stop-color="#4f3c43"></stop><stop offset="1" stop-color="#512756"></stop></linearGradient><linearGradient gradientUnits="objectBoundingBox" id="paint5_linear_31_1447" node-id="35" spreadMethod="pad" x1="20.6154" x2="19.9265" y1="16" y2="20.0302"><stop offset="0" stop-color="#553b3e"></stop><stop offset="1" stop-color="#3d2432"></stop></linearGradient><linearGradient gradientUnits="objectBoundingBox" id="paint6_linear_31_1447" node-id="38" spreadMethod="pad" x1="20.6154" x2="19.9265" y1="16" y2="20.0302"><stop offset="0" stop-color="#553b3e"></stop><stop offset="1" stop-color="#3d2432"></stop></linearGradient><linearGradient gradientUnits="objectBoundingBox" id="paint7_linear_31_1447" node-id="41" spreadMethod="pad" x1="11.5" x2="11.5" y1="11" y2="12.5"><stop offset="0.0299084" stop-color="#524049"></stop><stop offset="1" stop-color="#4a2c42"></stop></linearGradient><linearGradient gradientUnits="objectBoundingBox" id="paint8_linear_31_1447" node-id="44" spreadMethod="pad" x1="20.5" x2="20.5" y1="11" y2="12.5"><stop offset="0.0299084" stop-color="#524049"></stop><stop offset="1" stop-color="#4a2c42"></stop></linearGradient><radialGradient cx="0" cy="0" fx="0" fy="0" gradientUnits="objectBoundingBox" id="paint0_radial_31_1447" node-id="18" r="1" rev="7" spreadMethod="pad"><stop offset="0" stop-color="#9f70b8"></stop><stop offset="0.514303" stop-color="#8543a8"></stop><stop offset="0.71368" stop-color="#9344bb"></stop><stop offset="0.888763" stop-color="#6b438b"></stop></radialGradient><radialGradient cx="0" cy="0" fx="0" fy="0" gradientUnits="objectBoundingBox" id="paint1_radial_31_1447" node-id="23" r="1" rev="6" spreadMethod="pad"><stop offset="0.314853" stop-color="#000000" stop-opacity="0"></stop><stop offset="1" stop-color="#000000"></stop></radialGradient><radialGradient cx="0" cy="0" fx="0" fy="0" gradientUnits="objectBoundingBox" id="paint3_radial_31_1447" node-id="29" r="1" rev="5" spreadMethod="pad"><stop offset="0" stop-color="#392108"></stop><stop offset="1" stop-color="#c87928" stop-opacity="0"></stop></radialGradient><radialGradient cx="0" cy="0" fx="0" fy="0" gradientUnits="objectBoundingBox" id="paint4_radial_31_1447" node-id="32" r="1" rev="4" spreadMethod="pad"><stop offset="0" stop-color="#392108"></stop><stop offset="1" stop-color="#c87928" stop-opacity="0"></stop></radialGradient><radialGradient cx="0" cy="0" fx="0" fy="0" gradientUnits="objectBoundingBox" id="paint9_radial_31_1447" node-id="47" r="1" rev="3" spreadMethod="pad"><stop offset="0.472635" stop-color="#8649ac"></stop><stop offset="0.644517" stop-color="#ae7cc7"></stop><stop offset="0.759105" stop-color="#9353b3"></stop><stop offset="0.945555" stop-color="#733295"></stop></radialGradient><radialGradient cx="0" cy="0" fx="0" fy="0" gradientUnits="objectBoundingBox" id="paint10_radial_31_1447" node-id="52" r="1" rev="2" spreadMethod="pad"><stop offset="0.472635" stop-color="#613184"></stop><stop offset="0.727168" stop-color="#9353b8"></stop><stop offset="0.945555" stop-color="#792f9f"></stop></radialGradient><radialGradient cx="0" cy="0" fx="0" fy="0" gradientUnits="objectBoundingBox" id="paint11_radial_31_1447" node-id="56" r="1" rev="1" spreadMethod="pad"><stop offset="0" stop-color="#b676d6"></stop><stop offset="0.305394" stop-color="#b676d6" stop-opacity="0"></stop></radialGradient><clipPath id="clip0_31_1447" node-id="59"><path d="M 0.00 0.00 L 32.00 0.00 L 32.00 32.00 L 0.00 32.00 Z" fill="#000000" fill-rule="nonzero" node-id="147" stroke="none" target-height="32" target-width="32" target-x="0" target-y="0"></path></clipPath></defs><g clip-path="url(#clip0_31_1447)" id="sillyvg_g_0" node-id="151"><path d="M 16.00 30.00 L 19.10 29.70 L 21.60 29.10 L 23.80 28.10 L 25.70 26.70 L 27.20 25.00 L 28.40 23.10 L 29.80 18.60 L 30.00 16.00 L 29.80 13.40 L 28.40 8.90 L 27.20 7.00 L 25.70 5.30 L 23.80 3.90 L 21.60 2.90 L 19.10 2.30 L 16.00 2.00 L 12.90 2.30 L 10.40 2.90 L 8.20 3.90 L 6.30 5.30 L 4.80 7.00 L 3.60 8.90 L 2.20 13.40 L 2.00 16.00 L 2.20 18.60 L 3.60 23.10 L 4.80 25.00 L 6.30 26.70 L 8.20 28.10 L 10.40 29.10 L 12.90 29.70 L 16.00 30.00 Z" fill="url(#paint0_radial_31_1447)" fill-rule="nonzero" node-id="153" stroke="none" target-height="28" target-width="28" target-x="2" target-y="2"></path><path d="M 16.00 30.00 L 19.10 29.70 L 21.60 29.10 L 23.80 28.10 L 25.70 26.70 L 27.20 25.00 L 28.40 23.10 L 29.80 18.60 L 30.00 16.00 L 29.80 13.40 L 28.40 8.90 L 27.20 7.00 L 25.70 5.30 L 23.80 3.90 L 21.60 2.90 L 19.10 2.30 L 16.00 2.00 L 12.90 2.30 L 10.40 2.90 L 8.20 3.90 L 6.30 5.30 L 4.80 7.00 L 3.60 8.90 L 2.20 13.40 L 2.00 16.00 L 2.20 18.60 L 3.60 23.10 L 4.80 25.00 L 6.30 26.70 L 8.20 28.10 L 10.40 29.10 L 12.90 29.70 L 16.00 30.00 Z" fill="url(#paint1_radial_31_1447)" fill-opacity="0.6" fill-rule="nonzero" node-id="155" stroke="none" target-height="28" target-width="28" target-x="2" target-y="2"></path><path d="M 12.00 26.00 L 13.20 24.70 L 14.30 24.20 L 16.00 24.00 L 17.70 24.20 L 18.80 24.70 L 20.00 26.00" fill="none" node-id="157" stroke="url(#paint2_linear_31_1447)" stroke-linecap="round" stroke-width="2" target-height="2" target-width="8" target-x="12" target-y="24"></path><path d="M 14.00 19.00 L 13.80 20.40 L 12.50 22.50 L 10.40 23.80 L 9.00 24.00 L 6.50 23.30 L 4.70 21.50 L 4.20 20.40 L 4.00 19.00 L 4.70 16.50 L 6.50 14.70 L 9.00 14.00 L 10.40 14.20 L 12.50 15.50 L 13.80 17.60 L 14.00 19.00 Z" fill="url(#paint3_radial_31_1447)" fill-rule="nonzero" node-id="159" stroke="none" target-height="10" target-width="10" target-x="4" target-y="14"></path><path d="M 24.00 19.50 L 23.80 20.70 L 22.70 22.70 L 20.70 23.80 L 19.50 24.00 L 17.20 23.40 L 15.60 21.80 L 15.20 20.70 L 15.00 19.50 L 15.60 17.20 L 17.20 15.60 L 19.50 15.00 L 20.70 15.20 L 22.70 16.30 L 23.80 18.30 L 24.00 19.50 Z" fill="url(#paint4_radial_31_1447)" fill-rule="nonzero" node-id="161" stroke="none" target-height="9" target-width="9" target-x="15" target-y="15"></path><path d="M 10.50 22.00 L 11.70 21.80 L 13.70 20.70 L 14.80 18.70 L 15.00 17.50 L 14.80 16.30 L 13.70 14.30 L 11.70 13.20 L 10.50 13.00 L 9.30 13.20 L 7.30 14.30 L 6.20 16.30 L 6.00 17.50 L 6.20 18.70 L 7.30 20.70 L 9.30 21.80 L 10.50 22.00 Z" fill="#ffffff" fill-rule="nonzero" node-id="163" stroke="none" target-height="9" target-width="9" target-x="6" target-y="13"></path><path d="M 21.50 22.00 L 22.70 21.80 L 24.70 20.70 L 25.80 18.70 L 26.00 17.50 L 25.80 16.30 L 24.70 14.30 L 22.70 13.20 L 21.50 13.00 L 20.30 13.20 L 18.30 14.30 L 17.20 16.30 L 17.00 17.50 L 17.20 18.70 L 18.30 20.70 L 20.30 21.80 L 21.50 22.00 Z" fill="#ffffff" fill-rule="nonzero" node-id="165" stroke="none" target-height="9" target-width="9" target-x="17" target-y="13"></path><path d="M 12.00 20.00 L 12.80 19.80 L 13.80 18.80 L 13.80 17.20 L 12.80 16.20 L 11.20 16.20 L 10.20 17.20 L 10.20 18.80 L 11.20 19.80 L 12.00 20.00 Z" fill="url(#paint5_linear_31_1447)" fill-rule="nonzero" node-id="167" stroke="none" target-height="3.7999992" target-width="3.6000004" target-x="10.2" target-y="16.2"></path><path d="M 20.00 20.00 L 21.40 19.40 L 22.00 18.00 L 21.40 16.60 L 20.00 16.00 L 18.60 16.60 L 18.00 18.00 L 18.60 19.40 L 20.00 20.00 Z" fill="url(#paint6_linear_31_1447)" fill-rule="nonzero" node-id="169" stroke="none" target-height="4" target-width="4" target-x="18" target-y="16"></path><path d="M 10.30 11.20 L 11.00 12.70 L 11.80 13.50 L 12.80 14.00 L 14.20 14.20" fill="none" node-id="171" stroke="url(#paint7_linear_31_1447)" stroke-linecap="round" stroke-width="1.5" target-height="3" target-width="3.8999996" target-x="10.3" target-y="11.2"></path><path d="M 21.80 11.20 L 21.00 12.70 L 20.20 13.50 L 19.20 14.00 L 17.80 14.20" fill="none" node-id="173" stroke="url(#paint8_linear_31_1447)" stroke-linecap="round" stroke-width="1.5" target-height="3" target-width="4" target-x="17.8" target-y="11.2"></path><path d="M 8.00 6.00 L 5.90 4.90 L 4.20 3.00 L 3.90 3.20 L 3.10 5.50 L 3.00 7.20 L 3.20 9.00 L 4.30 11.40 L 6.50 12.00 L 7.80 11.70 L 8.70 11.00 L 9.40 10.00 L 9.50 7.80 L 8.70 6.40 L 8.00 6.00 Z" fill="url(#paint9_radial_31_1447)" fill-rule="nonzero" node-id="175" stroke="none" target-height="9" target-width="6.5" target-x="3" target-y="3"></path><path d="M 24.00 6.00 L 26.10 4.90 L 27.80 3.00 L 28.10 3.20 L 28.90 5.50 L 29.00 7.20 L 28.80 9.00 L 27.70 11.40 L 25.50 12.00 L 24.30 11.70 L 23.30 11.00 L 22.60 10.00 L 22.50 7.80 L 23.30 6.40 L 24.00 6.00 Z" fill="url(#paint10_radial_31_1447)" fill-rule="nonzero" node-id="177" stroke="none" target-height="9" target-width="6.5" target-x="22.5" target-y="3"></path><path d="M 24.00 6.00 L 26.10 4.90 L 27.80 3.00 L 28.10 3.20 L 28.90 5.50 L 29.00 7.20 L 28.80 9.00 L 27.70 11.40 L 25.50 12.00 L 24.30 11.70 L 23.30 11.00 L 22.60 10.00 L 22.50 7.80 L 23.30 6.40 L 24.00 6.00 Z" fill="url(#paint11_radial_31_1447)" fill-rule="nonzero" node-id="179" stroke="none" target-height="9" target-width="6.5" target-x="22.5" target-y="3"></path></g></svg>