<svg height="1024" width="1024" xmlns:xlink="http://www.w3.org/1999/xlink" xmlns="http://www.w3.org/2000/svg">
	<path d="M110.205 108.259C102.995 103.355 104.138 98.4847 110.443 93.356C123.501 82.7331 140.662 81.1548 154.547 91.6418C157.311 93.7295 159.498 96.3372 162 98.7003C173.621 92.4641 181.845 92.2307 194.513 92.2362L244.913 92.2435C254.921 92.2369 264.782 91.6956 274.494 94.648C294.578 100.754 311.099 118.664 314.285 139.622C315.465 147.384 314.476 155.701 313.865 163.493L311.675 190.638C321.702 192.422 330.069 199.01 330.373 209.754C354.461 209.805 378.132 205.428 394.482 186.363C403.222 176.172 420.522 179.298 426.683 190.722C430.56 197.911 444.8 241.635 428.737 244.088C423.98 242.6 422.945 239.738 422.177 234.987C421.67 227.448 418.338 200.247 413.059 195.474C408.799 191.623 404.088 195.095 401.979 199.305C406.146 210.776 408.852 222.875 410.34 234.987C413.047 258.877 411.825 282.181 404.358 305.049C403.512 307.642 402.463 310.222 401.979 312.911C403.453 320.153 411.055 321.11 414.657 314.535C418.182 308.1 421.563 285.116 422.3 277.588C422.905 271.408 421.189 262.801 428.468 260.368L428.737 260.276C434.176 260.069 436.818 263.49 436.804 268.611C436.774 279.038 432.242 308.508 428.1 318.008C419.772 337.106 397.022 337.209 388.372 317.836C378.93 311.246 367.448 304.405 356.234 301.472C356.182 304.679 355.924 308.07 356.234 311.254C379.573 314.518 384.413 343.424 362.749 353.101C362.128 365.865 365.65 376.307 354.941 386.131C341.934 398.065 332.019 390.409 319.378 385.574C312.11 382.793 304.563 380.245 297.186 377.501C296.962 381.493 297.185 385.465 297.261 389.458L297.672 408.26C297.883 416.306 300.625 425.057 290.561 427.327C285.572 426.091 283.724 423.852 282.962 418.932C283.486 414.667 283.046 408.894 282.994 404.483C282.919 398.136 281.868 367.65 282.684 365.064C285.598 355.823 303.955 364.853 309.725 366.889C313.127 357.454 315.259 347.31 315.474 337.273C298.059 328.648 270.665 327.193 251.225 320.039C246.777 329.792 244.161 328.144 237.899 332.94C236.785 333.793 236.168 335.347 234.915 336.005C223.406 342.046 206.322 334.466 200.599 322.436C188.562 325.65 174.565 327.216 163.097 330.925C150.291 336.152 150.929 347.406 150.999 359.049L151.004 377.501C154.173 377.363 157.299 377.333 160.469 377.501L172.548 377.501C173.124 371.39 169.77 356.75 179.712 356.528C182.557 356.465 184.7 358.688 186.622 360.486C187.21 364.574 186.591 371.578 186.6 375.991C186.627 390.299 186.448 404.625 186.622 418.932C186.085 430.128 172.73 430.561 172.548 418.932L172.548 399.677L172.548 391.846C169.83 391.633 167.029 391.785 164.301 391.803L151.004 391.846L151.022 409.819C151.027 412.827 151.244 415.94 151.004 418.932C150.649 425.159 144.79 430.7 139.104 425.413C135.029 421.625 136.682 412.654 136.683 407.657L136.674 359.204C136.681 327.283 144.727 320.383 173.331 313.867L189.661 310.229C201.234 307.763 205.984 309.587 204.964 296.006C202.092 294.199 198.806 293.061 195.721 291.654C171.241 280.485 159.908 264.151 151.004 240.338C118.722 240.255 114.469 197.238 141.104 190.638C139.988 184.555 139.156 177.907 136.681 172.221C119.794 209.074 70.6328 214.951 75.6126 195.421C77.5282 187.908 99.7317 188.478 95.1674 157.883C94.3158 152.175 91.8965 146.825 91.1553 141.085C90.2038 133.718 90.3711 117.975 101.56 120.725C108.675 124.444 105.043 132.516 105.841 138.865C107.046 148.452 110.815 155.508 110.225 165.981C109.788 173.731 107.162 178.471 105.817 185.431L105.734 185.876C120.073 178.372 127.411 160.529 130.984 145.482C135.411 126.836 135.566 120.707 149.626 106.264C130.584 87.8488 122.362 108.377 110.205 108.259ZM267.687 158.015C267.262 155.973 266.823 153.934 266.428 151.886C248.132 164.316 228.92 169.987 206.986 170.302C176.225 170.745 170.304 165.232 163.881 198.738C159.902 219.5 161.615 237.998 173.75 255.943C194.247 286.254 238.232 292.586 267.897 272.103C270.471 270.326 273.67 268.122 275.532 265.567C277.713 263.978 279.904 261.29 281.496 259.101C281.791 251.438 281.487 243.651 281.479 235.976C281.464 223.072 282.379 212.654 297.186 209.754C296.936 205.749 297.097 201.769 297.186 197.761C280.692 191.916 271.904 173.814 267.687 158.015ZM393.676 217.802C392.846 214.276 392.055 210.57 390.737 207.192C363.367 224.191 349.939 222.878 320.753 223.009C320.626 226.432 320.754 229.845 320.753 233.268L320.753 277.256L320.753 285.486C353.223 285.454 363.702 286.134 390.737 302.673C391.652 300.499 392.28 298.271 392.92 296.006C400.088 269.881 398.535 244.129 393.676 217.802ZM307.129 223.009L306.893 222.581C302.674 222.225 295.711 222.267 294.913 227.717C294.497 232.936 294.929 238.361 294.931 243.606L294.913 277.256C295.678 284.952 300.291 285.556 307.129 285.486L307.129 277.256L307.116 240.93C307.119 234.983 307.412 228.943 307.129 223.009ZM342.497 298.945C338.292 298.955 334.071 299.042 329.867 298.945C329.856 303.552 329.575 308.323 329.867 312.911C329.656 314.576 329.83 316.431 329.839 318.113C329.934 336.428 329.193 354.311 322.732 371.747C326.623 374.105 335.049 378.776 339.49 378.812C351.984 378.913 349.327 362.996 349.294 354.974C346.457 354.98 342.858 355.364 340.567 353.351C337.93 351.035 337.221 345.878 339.736 343.208C344.498 338.152 363.173 346.113 362.763 332.633C362.341 318.787 345.225 329.658 342.905 319.283C341.871 314.66 342.481 304.057 342.497 298.945ZM246.426 315.612C241.455 309.955 241.429 303.853 241.608 296.648C233.177 297.795 226.652 296.874 218.874 297.501C218.869 306.071 218.155 309.985 213.086 317.085C217.991 324.09 225.246 323.889 232.99 323.276C236.674 324.561 237.492 327.264 238.027 330.925C243.378 327.95 246.848 324.054 249.956 318.841L246.426 315.612ZM185.252 106.264C165.391 108.255 144.641 124.565 146.871 146.234C147.807 155.328 151.057 172.692 153.451 181.61C163.275 151.585 182.901 156.828 208.132 156.171C225.82 155.711 244.927 150.736 259.18 139.757C261.628 137.872 263.842 135.746 266.428 134.036C268.194 132.16 269.97 130.751 272.698 130.728C284.794 130.628 273.978 167.478 298.772 182.59C298.271 159.636 307.597 137.127 288.28 118.685C275.788 106.759 261.948 106.245 245.621 106.25L228.466 106.262C214.066 106.273 199.65 106.107 185.252 106.264ZM143.796 204.423C135.547 209.448 135.479 219.475 143.796 224.782C145.253 225.408 146.557 225.765 148.128 226.01C147.82 223.333 144.947 205.073 143.796 204.423ZM311.675 204.423C311.134 206.183 310.663 207.901 310.621 209.754C313.194 209.564 314.25 210.327 316.254 211.785C317.016 208.264 314.963 205.58 311.675 204.423ZM280.669 279.654C273.346 285.875 264.54 291.015 255.267 293.698C255.365 310.319 257.879 308.231 272.193 311.089C279.868 312.621 289.845 314.627 297.186 317.085C303.599 317.971 310.085 320.47 316.254 322.436L316.254 298.945C302.544 298.747 288.453 299.896 282.388 284.966C281.919 283.811 281.478 280.145 280.669 279.654Z" transform="scale(2 2)"></path>
	<path d="M110.205 108.259C122.362 108.377 130.584 87.8488 149.626 106.264C135.566 120.707 135.411 126.836 130.984 145.482C127.411 160.529 120.073 178.372 105.734 185.876L105.817 185.431C107.162 178.471 109.788 173.731 110.225 165.981C110.815 155.508 107.046 148.452 105.841 138.865C105.043 132.516 108.675 124.444 101.56 120.725C103.819 116.083 106.245 111.678 110.205 108.259Z" transform="scale(2 2)" fill="#706F70"></path>
	<path d="M153.451 181.61C151.057 172.692 147.807 155.328 146.871 146.234C144.641 124.565 165.391 108.255 185.252 106.264C199.65 106.107 214.066 106.273 228.466 106.262L245.621 106.25C261.948 106.245 275.788 106.759 288.28 118.685C307.597 137.127 298.271 159.636 298.772 182.59C273.978 167.478 284.794 130.628 272.698 130.728C269.97 130.751 268.194 132.16 266.428 134.036C263.842 135.746 261.628 137.872 259.18 139.757C244.927 150.736 225.82 155.711 208.132 156.171C182.901 156.828 163.275 151.585 153.451 181.61Z" transform="scale(2 2)" fill="#706F70"></path>
	<path d="M266.428 151.886C266.823 153.934 267.262 155.973 267.687 158.015C271.904 173.814 280.692 191.916 297.186 197.761C297.097 201.769 296.936 205.749 297.186 209.754C282.379 212.654 281.464 223.072 281.479 235.976C281.487 243.651 281.791 251.438 281.496 259.101C279.904 261.29 277.713 263.978 275.532 265.567C273.67 268.122 270.471 270.326 267.897 272.103C238.232 292.586 194.247 286.254 173.75 255.943C161.615 237.998 159.902 219.5 163.881 198.738C170.304 165.232 176.225 170.745 206.986 170.302C228.92 169.987 248.132 164.316 266.428 151.886ZM199.666 194.524C190.825 197.368 191.332 215.919 202.437 214.698C211.093 211.229 210.307 193.5 199.666 194.524ZM256.635 194.524C247.659 197.525 248.489 216.267 259.741 214.698C268.381 211.438 267.545 193.496 256.635 194.524ZM232.168 230.356C225.433 230.938 217.13 232.399 212.525 237.892C203.553 248.595 213.174 268.861 227.969 271.713C233.473 272.014 238.016 271.707 242.311 267.824C255.528 255.872 254.607 227.72 232.168 230.356Z" transform="scale(2 2)" fill="#FFCDAA"></path>
	<path d="M422.177 234.987C418.23 234.863 414.279 235.116 410.34 234.987C408.852 222.875 406.146 210.776 401.979 199.305C404.088 195.095 408.799 191.623 413.059 195.474C418.338 200.247 421.67 227.448 422.177 234.987Z" transform="scale(2 2)" fill="#B5F2F7"></path>
	<path d="M202.437 214.698C191.332 215.919 190.825 197.368 199.666 194.524C210.307 193.5 211.093 211.229 202.437 214.698Z" transform="scale(2 2)"></path>
	<path d="M259.741 214.698C248.489 216.267 247.659 197.525 256.635 194.524C267.545 193.496 268.381 211.438 259.741 214.698Z" transform="scale(2 2)"></path>
	<path d="M143.796 224.782C135.479 219.475 135.547 209.448 143.796 204.423C144.947 205.073 147.82 223.333 148.128 226.01C146.557 225.765 145.253 225.408 143.796 224.782Z" transform="scale(2 2)" fill="#FFCDAA"></path>
	<path d="M393.676 217.802C398.535 244.129 400.088 269.881 392.92 296.006C389.57 294.976 381.457 289.82 377.343 287.958C353.77 277.289 346.067 277.227 320.753 277.256L320.753 233.268C351.163 233.239 361.008 234.036 389.038 220.477C390.321 219.857 392.913 218.957 393.676 217.802Z" transform="scale(2 2)" fill="#B5F2F7"></path>
	<path d="M307.129 223.009C307.412 228.943 307.119 234.983 307.116 240.93L307.129 277.256C303.064 277.273 298.974 277.385 294.913 277.256L294.931 243.606C294.929 238.361 294.497 232.936 294.913 227.717C295.104 229.529 294.949 231.444 294.913 233.268C299.105 232.646 302.933 232.861 307.129 233.268C307.158 229.859 306.862 226.407 307.129 223.009Z" transform="scale(2 2)" fill="#B5F2F7"></path>
	<path d="M227.969 271.713C213.174 268.861 203.553 248.595 212.525 237.892C217.13 232.399 225.433 230.938 232.168 230.356C254.607 227.72 255.528 255.872 242.311 267.824C238.016 271.707 233.473 272.014 227.969 271.713ZM232.168 244.088C228.854 244.541 225.961 245.322 222.976 246.845C223.694 251.267 224.714 255.639 228.968 257.865C235.492 259.684 243.408 242.728 232.168 244.088Z" transform="scale(2 2)"></path>
	<path d="M410.34 234.987C414.279 235.116 418.23 234.863 422.177 234.987C422.945 239.738 423.98 242.6 428.737 244.088C428.435 249.463 428.784 254.891 428.737 260.276L428.468 260.368C421.189 262.801 422.905 271.408 422.3 277.588C421.563 285.116 418.182 308.1 414.657 314.535C411.055 321.11 403.453 320.153 401.979 312.911C402.463 310.222 403.512 307.642 404.358 305.049C411.825 282.181 413.047 258.877 410.34 234.987Z" transform="scale(2 2)" fill="#01E5CE"></path>
	<path d="M222.976 246.845C225.961 245.322 228.854 244.541 232.168 244.088C243.408 242.728 235.492 259.684 228.968 257.865C224.714 255.639 223.694 251.267 222.976 246.845Z" transform="scale(2 2)" fill="#FF7873"></path>
	<path d="M294.913 277.256C298.974 277.385 303.064 277.273 307.129 277.256L307.129 285.486C300.291 285.556 295.678 284.952 294.913 277.256Z" transform="scale(2 2)" fill="#3ECEDF"></path>
	<path d="M320.753 277.256C346.067 277.227 353.77 277.289 377.343 287.958C381.457 289.82 389.57 294.976 392.92 296.006C392.28 298.271 391.652 300.499 390.737 302.673C363.702 286.134 353.223 285.454 320.753 285.486L320.753 277.256Z" transform="scale(2 2)" fill="#3ECEDF"></path>
	<path d="M246.426 315.612C242.34 319.271 237.523 320.508 232.99 323.276C225.246 323.889 217.991 324.09 213.086 317.085C218.155 309.985 218.869 306.071 218.874 297.501C226.652 296.874 233.177 297.795 241.608 296.648C241.429 303.853 241.455 309.955 246.426 315.612Z" transform="scale(2 2)" fill="#FFCDAA"></path>
	<path d="M329.867 298.945C334.071 299.042 338.292 298.955 342.497 298.945C342.481 304.057 341.871 314.66 342.905 319.283C345.225 329.658 362.341 318.787 362.763 332.633C363.173 346.113 344.498 338.152 339.736 343.208C337.221 345.878 337.93 351.035 340.567 353.351C342.858 355.364 346.457 354.98 349.294 354.974C349.327 362.996 351.984 378.913 339.49 378.812C335.049 378.776 326.623 374.105 322.732 371.747C329.193 354.311 329.934 336.428 329.839 318.113C329.83 316.431 329.656 314.576 329.867 312.911C329.575 308.323 329.856 303.552 329.867 298.945Z" transform="scale(2 2)" fill="#FFCDAA"></path>
	<path d="M163.097 330.925C174.565 327.216 188.562 325.65 200.599 322.436C206.322 334.466 223.406 342.046 234.915 336.005C236.168 335.347 236.785 333.793 237.899 332.94C244.161 328.144 246.777 329.792 251.225 320.039C270.665 327.193 298.059 328.648 315.474 337.273C315.259 347.31 313.127 357.454 309.725 366.889C303.955 364.853 285.598 355.823 282.684 365.064C281.868 367.65 282.919 398.136 282.994 404.483C283.046 408.894 283.486 414.667 282.962 418.932L192.394 418.932C192.914 413.498 192.462 408.113 192.41 402.671L192.041 381.602C191.886 374.967 193.742 364.198 186.622 360.486C184.7 358.688 182.557 356.465 179.712 356.528C169.77 356.75 173.124 371.39 172.548 377.501L160.469 377.501L160.456 356.232C160.456 350.493 159.874 344.116 161.203 338.475C161.713 336.311 163.468 333.049 163.097 330.925Z" transform="scale(2 2)" fill="#01E5CE"></path>
	<path d="M151.004 377.501L150.999 359.049C150.929 347.406 150.291 336.152 163.097 330.925C163.468 333.049 161.713 336.311 161.203 338.475C159.874 344.116 160.456 350.493 160.456 356.232L160.469 377.501C157.299 377.333 154.173 377.363 151.004 377.501Z" transform="scale(2 2)" fill="#00C2AD"></path>
	<path d="M186.622 360.486C193.742 364.198 191.886 374.967 192.041 381.602L192.41 402.671C192.462 408.113 192.914 413.498 192.394 418.932C190.473 418.769 188.546 418.869 186.622 418.932C186.448 404.625 186.627 390.299 186.6 375.991C186.591 371.578 187.21 364.574 186.622 360.486Z" transform="scale(2 2)" fill="#00C2AD"></path>
	<path d="M172.548 391.846C168.598 392.195 164.446 391.816 160.469 391.846C160.597 396.272 160.495 400.715 160.469 405.143C160.973 403.475 161.177 401.613 161.479 399.894L161.496 400.723C162.685 402.642 170.653 400.821 172.548 399.677L172.548 418.932C168.545 419.07 164.483 418.887 160.469 418.932C157.321 418.849 154.151 418.791 151.004 418.932C151.244 415.94 151.027 412.827 151.022 409.819L151.004 391.846L164.301 391.803C167.029 391.785 169.83 391.633 172.548 391.846Z" transform="scale(2 2)" fill="#FFCDAA"></path>
</svg>
