<?xml version="1.0" standalone="no"?><!DOCTYPE svg PUBLIC "-//W3C//DTD SVG 1.1//EN" "http://www.w3.org/Graphics/SVG/1.1/DTD/svg11.dtd"><svg t="1745388522188" class="icon" viewBox="0 0 1024 1024" version="1.1" xmlns="http://www.w3.org/2000/svg" p-id="21740" xmlns:xlink="http://www.w3.org/1999/xlink" width="200" height="200"><path d="M492.54 93.24c-211.5 0-382.98 171.46-382.98 382.98S281.04 859.2 492.54 859.2s383-171.46 383-382.98S704 93.24 492.54 93.24z m-108.74 157.84C255.3 314.14 202 470 265.12 598.46a26 26 0 0 1-46.68 22.92 311.56 311.56 0 0 1 142.44-416.98 26 26 0 0 1 22.92 46.68z" fill="#2c2c2c" p-id="21741"></path><path d="M703.718732 766.595201m20.039406-20.039406l0.014142-0.014142q20.039406-20.039406 40.078812 0l150.104628 150.104627q20.039406 20.039406 0 40.078813l-0.014142 0.014142q-20.039406 20.039406-40.078813 0l-150.104627-150.104628q-20.039406-20.039406 0-40.078812Z" fill="#2c2c2c" p-id="21742"></path></svg>