<?xml version="1.0" standalone="no"?><!DOCTYPE svg PUBLIC "-//W3C//DTD SVG 1.1//EN" "http://www.w3.org/Graphics/SVG/1.1/DTD/svg11.dtd"><svg t="1744944568387" class="icon" viewBox="0 0 1174 1024" version="1.1" xmlns="http://www.w3.org/2000/svg" p-id="11813" xmlns:xlink="http://www.w3.org/1999/xlink" width="229.296875" height="200"><path d="M242.075 230.93v600.695h648.406v-283.899c0-5.573-0.74-11.317 0.313-16.69 3.412-17.486 12.852-29.172 32.186-28.604 18.965 0.54 30.224 11.031 30.31 29.798 0.426 110.745 0.34 221.518 0.113 332.263-0.029 18.85-10.975 29.058-29.314 31.248-6.313 0.739-12.738 0.511-19.107 0.511-225.499 0.029-450.998 0.029-676.497 0-42.933 0-49.927-7.079-49.927-49.87 0-209.549-0.029-419.125 0-628.674 0-40.886 7.99-48.875 48.875-48.903 109.95-0.028 219.926 0.057 329.875-0.085 17.202-0.028 33.409 3.44 37.645 21.978 2.133 9.298-0.057 24.396-6.34 29.627-8.587 7.165-22.917 10.094-34.802 10.18-94.823 0.767-189.645 0.426-284.468 0.426h-27.267z" p-id="11814"></path><path d="M880.729 189.788c-43.644 0-80.663 0.113-117.654-0.086-9.525-0.057-19.277 0.057-28.461-2.018-16.69-3.782-25.532-17.060-20.784-31.987 3.326-10.519 15.183-24.083 24.935-25.646 24.111-3.867 49.189-1.735 73.897-1.763 48.59-0.085 97.21-0.313 145.802 0.114 28.006 0.256 36.934 9.525 37.020 37.73 0.227 68.522 0.227 137.045-0.030 205.567-0.085 23.77-11.571 37.049-30.849 37.105-19.561 0.085-30.764-12.88-30.877-36.793-0.228-46.090-0.057-92.178-0.057-143.585-28.035 24.481-52.913 45.92-77.45 67.699-117.257 104.121-234.428 208.354-351.627 312.53-19.22 17.089-39.635 18.254-52.43 3.1-12.169-14.416-8.5-32.755 10.435-49.558 128.004-113.645 256.064-227.205 384.068-340.822 9.78-8.757 19.277-17.884 34.062-31.588z" p-id="11815"></path></svg>