<?xml version="1.0" standalone="no"?><!DOCTYPE svg PUBLIC "-//W3C//DTD SVG 1.1//EN" "http://www.w3.org/Graphics/SVG/1.1/DTD/svg11.dtd"><svg t="1745388358346" class="icon" viewBox="0 0 1024 1024" version="1.1" xmlns="http://www.w3.org/2000/svg" p-id="13193" xmlns:xlink="http://www.w3.org/1999/xlink" width="200" height="200"><path d="M843.74 57.85H180.25C80.86 57.85 0 138.31 0 237.22v549.56c0 98.91 80.86 179.37 180.25 179.37h663.51c99.38 0 180.24-80.47 180.24-179.39V237.22c0-98.91-80.86-179.37-180.26-179.37z m89.16 728.91c0 48.68-40 88.29-89.14 88.29H180.25c-49.15 0-89.15-39.6-89.15-88.27V237.22c0-48.67 40-88.27 89.15-88.27h663.49c49.16 0 89.16 39.6 89.16 88.27z" fill="#5A5A5A" p-id="13194"></path><path d="M679.61 470.58l-1.2-0.91-212-132a52.24 52.24 0 0 0-53.31-4 51.62 51.62 0 0 0-29 46.5v263.64a51.62 51.62 0 0 0 29 46.5 52.3 52.3 0 0 0 53.33-4l212-132 1.19-0.91a51.78 51.78 0 0 0 0-82.87z" fill="#5A5A5A" p-id="13195"></path></svg>