<?xml version="1.0" standalone="no"?><!DOCTYPE svg PUBLIC "-//W3C//DTD SVG 1.1//EN" "http://www.w3.org/Graphics/SVG/1.1/DTD/svg11.dtd"><svg height="1024" node-id="1" sillyvg="true" template-height="1024" template-width="1024" version="1.1" viewBox="0 0 1024 1024" width="1024" xmlns="http://www.w3.org/2000/svg" xmlns:xlink="http://www.w3.org/1999/xlink"><defs node-id="26"></defs><g node-id="142"><path d="M 593.50 176.40 L 595.40 173.30 L 597.40 171.00 L 599.80 169.00 L 602.80 167.10 L 604.90 159.20 L 606.50 151.10 L 582.80 156.00 L 570.90 157.90 L 552.90 160.20 L 516.80 163.40 L 468.20 166.30 L 449.00 168.60 L 439.30 170.50 L 426.30 174.00 L 416.50 177.60 L 405.10 183.90 L 402.20 185.00 L 399.10 185.80 L 395.90 186.00 L 390.80 184.40 L 387.40 181.90 L 385.80 179.80 L 384.80 177.50 L 384.40 175.00 L 384.60 172.40 L 385.30 169.80 L 386.60 167.10 L 388.30 164.60 L 390.60 162.40 L 393.60 160.20 L 405.70 153.80 L 418.00 149.00 L 426.40 146.50 L 434.90 144.50 L 443.50 143.00 L 456.60 141.40 L 531.30 136.20 L 548.90 134.50 L 566.30 132.30 L 577.90 130.50 L 589.40 128.20 L 600.60 125.60 L 615.20 120.80 L 622.60 119.00 L 625.70 120.60 L 628.10 122.40 L 630.00 124.60 L 631.50 127.20 L 632.60 129.90 L 633.40 133.00 L 634.00 137.70 L 634.00 142.80 L 632.80 152.80 L 631.10 161.80 L 635.80 160.20 L 640.40 157.90 L 657.20 147.20 L 661.10 145.20 L 664.40 143.90 L 666.50 143.60 L 668.50 143.70 L 670.30 144.40 L 672.40 145.90 L 674.20 147.80 L 675.60 150.10 L 677.50 155.50 L 678.10 158.70 L 678.40 163.60 L 678.30 168.80 L 677.80 174.10 L 676.10 184.30 L 672.80 195.90 L 684.30 209.40 L 688.40 214.90 L 691.90 220.60 L 694.90 226.20 L 697.40 232.10 L 699.50 238.10 L 701.20 244.10 L 702.50 250.30 L 703.60 258.50 L 704.20 266.90 L 704.10 275.40 L 702.80 292.60 L 699.20 314.20 L 690.20 353.00 L 694.30 354.40 L 698.00 356.30 L 701.40 358.50 L 704.50 361.10 L 707.40 364.10 L 709.80 367.30 L 712.00 370.80 L 715.30 378.40 L 717.10 386.40 L 717.40 394.80 L 717.00 398.90 L 716.20 403.00 L 715.00 407.10 L 713.40 411.00 L 711.40 414.70 L 708.90 418.30 L 706.00 421.70 L 702.80 424.70 L 699.10 427.40 L 694.80 429.80 L 689.90 431.90 L 685.00 433.50 L 679.50 434.60 L 673.30 435.30 L 666.30 435.50 L 662.30 445.50 L 654.00 463.30 L 649.40 471.60 L 644.60 479.40 L 639.50 486.70 L 633.90 493.70 L 628.00 500.20 L 621.60 506.40 L 614.70 512.20 L 607.30 517.70 L 599.10 523.10 L 590.70 527.90 L 581.30 532.60 L 571.00 537.30 L 571.00 559.00 L 588.60 564.50 L 606.60 569.30 L 669.30 587.40 L 687.10 593.30 L 694.00 596.40 L 698.40 598.70 L 702.30 601.30 L 705.70 604.10 L 708.90 607.20 L 711.80 610.80 L 714.60 615.00 L 716.90 619.30 L 721.60 630.60 L 724.70 640.30 L 729.70 660.50 L 735.40 688.90 L 741.30 723.60 L 743.40 739.20 L 744.40 751.40 L 744.30 756.20 L 743.80 758.70 L 742.80 760.80 L 741.50 762.50 L 739.90 763.80 L 737.20 765.20 L 734.10 766.20 L 727.70 767.50 L 727.50 803.30 L 726.90 810.80 L 725.90 817.50 L 724.60 823.60 L 723.00 829.00 L 720.80 834.60 L 718.30 839.50 L 715.40 844.00 L 712.10 848.00 L 708.60 851.60 L 704.60 854.80 L 700.30 857.60 L 695.50 860.10 L 690.30 862.30 L 684.50 864.10 L 677.40 865.80 L 669.50 867.00 L 660.60 867.80 L 650.90 868.00 L 542.40 868.20 L 516.90 868.00 L 510.60 867.60 L 504.90 866.70 L 499.80 865.40 L 496.10 863.90 L 489.20 860.20 L 486.10 857.80 L 482.20 854.20 L 478.50 850.00 L 474.90 845.00 L 473.00 840.30 L 471.60 835.70 L 470.70 831.00 L 470.20 826.30 L 470.20 821.60 L 470.60 816.90 L 471.50 812.40 L 472.90 807.90 L 474.70 803.60 L 477.10 799.40 L 479.90 795.40 L 483.30 791.60 L 487.10 788.20 L 491.00 785.50 L 495.00 783.30 L 499.20 781.50 L 503.60 780.10 L 508.10 779.10 L 515.00 778.20 L 522.10 777.80 L 550.70 778.40 L 633.40 778.50 L 633.40 740.30 L 632.90 727.60 L 633.30 718.40 L 634.10 714.20 L 635.10 711.60 L 636.40 709.30 L 638.00 707.20 L 641.40 704.90 L 645.50 703.60 L 647.60 703.40 L 651.70 704.10 L 653.50 705.00 L 655.20 706.30 L 657.10 709.40 L 658.60 715.10 L 659.10 719.20 L 659.30 727.70 L 658.90 742.50 L 707.90 741.10 L 717.60 741.10 L 715.10 717.30 L 713.20 704.60 L 708.40 678.60 L 705.60 666.20 L 702.50 654.20 L 697.60 638.30 L 695.80 633.90 L 693.90 630.30 L 691.60 627.00 L 689.20 624.10 L 683.80 619.70 L 677.40 616.30 L 672.20 614.30 L 613.20 597.50 L 593.50 591.10 L 589.40 593.80 L 573.70 605.90 L 563.20 612.50 L 557.10 615.70 L 545.80 620.40 L 538.20 622.80 L 531.00 624.40 L 524.30 625.40 L 517.60 625.80 L 511.30 625.90 L 499.60 624.70 L 489.30 622.60 L 482.20 620.50 L 466.20 615.20 L 463.40 614.50 L 459.60 614.40 L 459.30 621.60 L 459.60 642.00 L 459.50 705.10 L 458.40 718.20 L 457.60 722.60 L 455.30 730.50 L 453.60 734.30 L 451.60 737.60 L 449.20 740.60 L 447.10 742.60 L 442.10 745.90 L 439.10 747.20 L 432.50 748.60 L 424.00 748.70 L 420.00 748.20 L 416.20 747.20 L 407.20 743.50 L 391.40 735.70 L 391.70 812.90 L 391.50 821.00 L 390.70 829.10 L 389.80 834.40 L 388.30 839.70 L 386.30 845.00 L 379.40 854.80 L 376.70 857.90 L 373.20 861.20 L 369.40 864.00 L 365.40 866.40 L 361.20 868.30 L 356.90 869.70 L 352.40 870.70 L 347.90 871.20 L 343.40 871.30 L 338.80 871.00 L 334.30 870.30 L 329.80 869.10 L 325.50 867.50 L 321.30 865.50 L 317.30 863.20 L 313.50 860.40 L 310.00 857.20 L 306.70 853.60 L 304.00 849.90 L 301.90 846.20 L 298.80 838.20 L 297.80 834.10 L 296.80 827.80 L 296.30 814.70 L 296.60 794.50 L 296.00 790.50 L 295.30 789.00 L 293.80 786.90 L 291.80 785.10 L 284.50 779.60 L 280.30 775.20 L 277.20 770.20 L 274.70 763.90 L 272.90 755.40 L 272.40 750.30 L 272.30 724.90 L 257.60 727.40 L 254.20 728.40 L 251.00 730.00 L 247.80 732.20 L 244.60 735.00 L 238.00 741.50 L 235.20 743.50 L 229.20 746.50 L 224.90 747.80 L 220.50 748.50 L 215.90 748.60 L 211.30 748.20 L 206.90 747.20 L 202.50 745.80 L 198.40 743.80 L 194.60 741.40 L 191.10 738.50 L 187.90 735.00 L 185.30 731.40 L 183.40 727.60 L 181.90 723.60 L 180.80 719.50 L 180.00 715.30 L 179.50 708.80 L 179.40 702.20 L 179.40 677.60 L 179.60 673.90 L 180.30 670.40 L 181.40 667.40 L 182.50 665.70 L 184.00 664.20 L 185.90 663.00 L 187.90 662.10 L 190.60 661.60 L 194.00 661.50 L 197.50 663.00 L 200.70 664.90 L 202.10 667.90 L 203.20 671.20 L 203.80 674.80 L 204.10 680.30 L 203.30 698.00 L 203.20 703.90 L 203.60 709.20 L 204.20 712.60 L 205.30 715.70 L 206.70 718.50 L 209.80 722.10 L 214.60 724.90 L 217.90 723.80 L 220.50 722.30 L 222.50 720.50 L 224.10 718.40 L 225.30 715.90 L 226.20 713.20 L 226.90 708.80 L 227.10 703.90 L 226.20 683.80 L 226.30 583.80 L 225.30 575.50 L 224.20 571.90 L 223.10 569.80 L 221.60 568.10 L 219.90 566.80 L 216.60 565.90 L 214.50 566.00 L 211.90 566.40 L 209.90 567.20 L 208.20 568.60 L 206.80 570.40 L 205.80 572.60 L 204.40 578.30 L 203.90 583.20 L 203.70 588.80 L 204.00 612.00 L 203.80 617.50 L 202.60 625.20 L 200.70 629.60 L 197.50 631.40 L 194.00 632.90 L 190.60 632.80 L 187.90 632.20 L 185.80 631.30 L 183.90 629.90 L 182.50 628.20 L 181.30 626.20 L 180.20 622.80 L 179.60 619.00 L 179.10 584.90 L 179.50 574.30 L 180.80 567.00 L 183.60 559.60 L 187.50 553.70 L 190.70 550.30 L 194.20 547.40 L 198.10 545.20 L 202.20 543.40 L 206.50 542.20 L 210.90 541.60 L 215.40 541.50 L 219.90 542.00 L 224.40 543.00 L 228.80 544.60 L 232.90 546.80 L 236.90 549.50 L 239.60 551.90 L 244.50 557.60 L 246.70 561.10 L 257.60 565.60 L 269.70 569.00 L 278.00 570.50 L 286.50 571.70 L 295.30 572.30 L 312.80 572.50 L 321.40 572.10 L 338.00 570.40 L 345.70 569.20 L 359.30 566.20 L 367.80 565.40 L 373.00 565.90 L 375.20 566.50 L 377.10 567.60 L 378.60 569.00 L 379.70 570.90 L 380.30 573.00 L 380.40 575.80 L 379.80 579.60 L 379.20 581.70 L 377.10 584.90 L 375.00 586.70 L 372.60 588.20 L 367.00 590.20 L 361.30 591.50 L 352.00 593.40 L 342.70 594.90 L 333.40 596.00 L 324.10 596.60 L 314.70 596.90 L 296.10 596.30 L 286.70 595.50 L 274.40 593.90 L 262.00 591.80 L 249.80 589.10 L 249.50 621.20 L 249.80 704.80 L 279.50 700.00 L 293.40 698.00 L 306.70 696.70 L 324.50 696.00 L 333.40 696.30 L 342.30 696.90 L 351.50 698.20 L 361.10 700.00 L 370.70 702.30 L 380.90 705.30 L 391.80 709.10 L 414.70 719.00 L 425.30 723.10 L 426.70 723.40 L 429.90 722.70 L 432.30 720.70 L 434.50 716.30 L 435.30 713.30 L 436.00 708.60 L 436.40 703.20 L 436.30 692.20 L 435.40 675.40 L 435.40 580.00 L 433.60 577.40 L 431.70 575.60 L 426.80 572.50 L 413.10 573.70 L 410.90 573.60 L 407.00 572.20 L 404.10 570.00 L 402.30 567.90 L 401.20 565.90 L 400.70 563.70 L 400.80 561.60 L 401.40 559.40 L 402.60 557.40 L 404.20 555.50 L 408.60 551.90 L 414.30 549.10 L 417.40 548.10 L 424.10 546.90 L 430.80 547.10 L 434.20 547.70 L 437.30 548.80 L 440.30 550.40 L 443.10 552.40 L 447.80 557.30 L 449.30 558.40 L 450.40 558.70 L 451.80 558.70 L 453.60 558.20 L 454.50 553.60 L 454.70 547.90 L 454.40 537.30 L 445.60 532.80 L 437.10 528.10 L 429.00 523.10 L 421.30 517.80 L 413.80 512.10 L 406.70 506.10 L 399.90 499.80 L 393.60 493.10 L 387.60 486.00 L 382.00 478.60 L 376.90 470.90 L 372.30 462.70 L 368.10 454.10 L 364.30 445.10 L 361.00 435.50 L 349.50 435.30 L 342.00 434.10 L 338.30 433.10 L 333.60 431.40 L 329.50 429.30 L 325.80 427.00 L 322.40 424.40 L 319.40 421.40 L 316.70 418.20 L 314.40 414.80 L 312.50 411.30 L 309.80 403.70 L 308.70 395.80 L 309.10 387.70 L 311.20 379.60 L 312.80 375.80 L 314.80 372.00 L 317.30 368.30 L 320.20 364.70 L 323.50 361.50 L 327.20 358.50 L 331.40 355.60 L 336.10 353.00 L 327.60 314.50 L 325.10 301.10 L 322.50 283.20 L 321.80 274.40 L 321.50 265.70 L 321.80 257.20 L 322.70 249.20 L 325.00 239.60 L 329.40 227.90 L 335.20 215.70 L 338.60 209.80 L 342.20 204.50 L 344.80 201.10 L 349.90 195.80 L 352.60 193.60 L 355.30 192.10 L 357.80 191.10 L 360.60 190.80 L 363.00 191.00 L 365.20 191.90 L 367.20 193.20 L 368.90 194.90 L 370.40 197.00 L 372.20 200.40 L 373.30 203.90 L 373.00 206.50 L 371.20 211.00 L 369.20 214.20 L 358.70 227.50 L 354.90 234.70 L 353.20 238.60 L 350.40 248.90 L 349.50 254.50 L 348.90 261.20 L 348.70 269.00 L 348.90 276.90 L 349.60 286.10 L 353.10 311.40 L 354.60 319.30 L 356.30 324.80 L 358.40 333.80 L 361.00 342.70 L 364.20 331.10 L 365.70 327.60 L 368.10 319.90 L 369.00 315.80 L 369.90 308.10 L 371.60 305.70 L 374.10 300.40 L 379.00 282.70 L 380.70 278.20 L 383.20 273.60 L 385.20 270.80 L 387.70 268.00 L 390.80 265.10 L 394.30 262.60 L 398.50 260.20 L 403.80 257.70 L 409.60 255.60 L 414.80 254.20 L 419.40 253.40 L 424.00 253.20 L 428.30 253.40 L 432.30 254.00 L 440.20 256.40 L 469.60 270.50 L 485.60 276.40 L 494.30 279.10 L 512.20 283.50 L 521.50 285.30 L 530.90 286.60 L 540.30 287.50 L 549.70 288.00 L 559.10 288.10 L 568.30 287.50 L 577.30 286.50 L 584.00 285.30 L 596.80 281.80 L 602.80 279.60 L 605.50 272.40 L 607.40 269.10 L 609.70 266.20 L 611.50 264.60 L 613.50 263.40 L 615.60 262.60 L 617.90 262.20 L 620.40 262.40 L 623.30 263.20 L 625.30 264.30 L 627.50 266.10 L 630.00 268.80 L 633.30 273.40 L 637.00 279.30 L 640.50 285.80 L 644.10 293.20 L 650.90 308.50 L 666.30 346.40 L 675.10 304.80 L 677.00 294.30 L 678.40 283.90 L 679.10 276.90 L 679.30 269.90 L 679.20 262.90 L 678.80 258.00 L 677.10 249.60 L 675.00 243.80 L 672.50 238.50 L 669.60 233.30 L 658.90 217.00 L 648.60 225.00 L 638.80 231.30 L 630.20 235.50 L 623.80 237.20 L 619.20 237.30 L 615.40 236.00 L 613.90 234.80 L 612.40 233.20 L 611.20 231.00 L 610.10 228.20 L 609.70 225.50 L 609.80 223.30 L 610.50 221.20 L 616.60 211.70 L 621.50 209.90 L 630.50 205.30 L 634.70 202.60 L 638.50 199.40 L 642.10 196.00 L 645.20 192.10 L 648.00 187.90 L 650.50 183.10 L 627.00 189.00 L 615.60 191.30 L 602.80 193.10 L 595.60 184.80 L 594.60 182.70 L 594.00 180.30 L 593.50 176.40 Z M 430.20 279.60 L 425.10 279.20 L 420.90 279.30 L 417.40 280.00 L 414.10 281.20 L 411.20 282.80 L 408.80 284.80 L 404.70 289.80 L 403.10 292.80 L 401.00 297.60 L 399.20 302.90 L 382.60 360.80 L 379.10 374.00 L 378.00 382.50 L 378.00 387.40 L 378.80 398.90 L 380.00 407.00 L 381.60 415.00 L 383.70 422.90 L 386.10 430.80 L 389.00 438.50 L 392.20 446.00 L 395.90 453.30 L 399.90 460.40 L 404.40 467.30 L 409.20 473.90 L 414.50 480.10 L 420.10 486.00 L 426.10 491.50 L 432.50 496.60 L 439.20 501.30 L 446.40 505.60 L 461.20 513.10 L 466.90 515.50 L 473.30 517.50 L 479.80 519.10 L 486.60 520.30 L 493.90 521.10 L 508.60 521.80 L 516.20 521.60 L 531.20 520.40 L 538.40 519.30 L 552.40 516.40 L 565.10 512.60 L 575.60 508.00 L 582.60 503.90 L 589.50 499.20 L 596.40 493.80 L 602.80 488.00 L 609.10 481.70 L 615.10 474.90 L 620.60 467.70 L 625.80 460.20 L 630.70 452.40 L 635.00 444.30 L 638.80 436.10 L 642.10 427.70 L 644.90 419.10 L 647.00 410.50 L 648.50 402.00 L 649.10 395.50 L 649.40 389.20 L 649.20 382.90 L 648.60 376.70 L 647.80 372.90 L 644.20 360.80 L 635.50 337.70 L 629.10 322.20 L 623.40 309.10 L 619.20 300.30 L 613.10 303.20 L 606.70 305.70 L 600.00 307.90 L 593.00 309.70 L 583.60 311.50 L 573.80 312.70 L 563.60 313.40 L 553.40 313.50 L 543.10 313.20 L 532.70 312.30 L 522.30 311.00 L 512.00 309.30 L 501.90 307.20 L 482.30 302.00 L 473.20 298.90 L 464.10 295.50 L 455.80 292.00 L 435.30 281.60 L 430.20 279.60 Z M 496.10 546.60 L 487.60 545.10 L 478.90 544.20 L 479.20 567.30 L 478.90 574.80 L 474.30 577.40 L 459.60 583.40 L 471.90 590.90 L 482.60 596.00 L 493.30 599.50 L 498.30 600.60 L 508.00 601.50 L 517.70 601.00 L 522.60 600.20 L 529.00 598.60 L 535.70 596.60 L 542.70 593.90 L 553.20 589.20 L 564.90 583.40 L 552.90 578.90 L 549.10 577.10 L 547.50 574.50 L 546.30 569.30 L 546.00 565.50 L 545.90 557.50 L 546.40 544.20 L 513.50 546.40 L 496.10 546.60 Z M 658.90 767.50 L 659.50 787.50 L 658.90 796.70 L 656.70 798.80 L 654.50 800.10 L 651.60 801.10 L 647.10 802.20 L 636.30 803.20 L 611.40 802.70 L 551.90 802.60 L 531.00 801.90 L 524.90 802.00 L 515.00 802.80 L 508.20 804.50 L 505.00 805.70 L 502.40 807.30 L 500.20 809.10 L 496.80 813.90 L 495.70 816.40 L 494.50 821.80 L 494.70 827.20 L 495.40 829.90 L 497.80 834.80 L 499.60 837.00 L 501.70 839.20 L 505.40 841.30 L 511.50 842.90 L 520.10 843.50 L 539.80 843.00 L 651.80 842.90 L 661.80 842.50 L 668.20 841.90 L 674.00 841.00 L 679.10 839.70 L 682.80 838.40 L 686.20 836.80 L 689.20 834.80 L 691.90 832.50 L 694.30 829.90 L 696.40 826.80 L 698.30 823.20 L 699.90 818.90 L 701.00 814.60 L 701.90 809.60 L 702.40 803.70 L 702.60 796.70 L 702.60 767.50 L 695.50 766.80 L 688.20 766.60 L 658.90 767.50 Z M 674.40 374.30 L 672.90 404.20 L 672.80 410.20 L 679.20 409.40 L 682.20 408.40 L 685.20 406.80 L 687.40 404.40 L 690.40 399.60 L 691.20 397.10 L 691.90 391.90 L 691.70 389.50 L 690.10 384.70 L 687.20 380.50 L 683.00 377.10 L 680.50 375.90 L 674.40 374.30 Z M 352.00 376.20 L 347.80 377.00 L 344.20 378.30 L 341.30 380.00 L 338.70 382.20 L 336.70 384.60 L 335.30 387.30 L 334.70 389.40 L 334.50 394.10 L 334.90 396.60 L 336.90 401.50 L 338.60 404.10 L 340.80 406.80 L 344.20 408.30 L 347.50 409.30 L 354.60 410.20 L 352.70 378.70 L 352.40 376.20 L 352.00 376.20 Z M 312.20 720.90 L 296.50 720.90 L 295.40 742.10 L 295.50 747.10 L 296.10 751.90 L 296.90 754.90 L 298.00 757.80 L 299.50 760.50 L 301.30 763.00 L 303.80 765.30 L 306.80 767.50 L 310.10 766.80 L 312.80 765.80 L 315.00 764.40 L 316.90 762.50 L 318.40 760.40 L 319.70 757.80 L 321.20 752.20 L 321.60 749.00 L 321.90 739.20 L 321.00 720.90 L 312.20 720.90 Z M 345.40 723.20 L 345.30 746.70 L 344.90 754.30 L 344.40 759.30 L 343.40 764.00 L 342.10 768.50 L 339.10 774.70 L 334.70 780.40 L 332.10 782.70 L 329.00 785.00 L 325.30 787.00 L 321.00 788.90 L 320.30 805.80 L 320.40 818.30 L 321.00 824.20 L 321.70 828.10 L 324.20 835.00 L 326.00 838.00 L 328.20 840.70 L 331.00 843.00 L 335.80 845.40 L 342.50 846.80 L 346.30 846.50 L 352.50 845.10 L 354.90 844.00 L 357.90 842.00 L 360.30 839.60 L 362.30 836.90 L 363.80 833.90 L 365.00 830.60 L 365.80 827.00 L 366.60 821.40 L 366.90 815.40 L 366.20 792.10 L 366.20 726.80 L 355.80 724.70 L 345.40 723.20 Z" fill="#000000" fill-rule="nonzero" group-id="1" node-id="30" stroke="none" target-height="752.3" target-width="565.30005" target-x="179.1" target-y="119"></path></g><g node-id="143"><path d="M 593.50 176.40 L 562.10 180.10 L 546.40 181.50 L 479.30 185.60 L 466.90 186.90 L 455.10 188.70 L 446.20 190.50 L 437.90 192.60 L 430.00 194.90 L 422.60 197.60 L 415.30 200.80 L 408.60 204.30 L 402.30 208.30 L 396.60 212.60 L 392.20 216.40 L 388.20 220.60 L 384.60 225.00 L 381.20 229.80 L 378.20 235.00 L 375.60 240.30 L 373.40 246.00 L 371.50 252.10 L 370.00 258.80 L 368.80 266.00 L 368.20 273.00 L 367.90 280.50 L 368.00 288.70 L 368.60 297.50 L 369.90 308.10 L 369.60 311.80 L 368.10 319.90 L 367.00 323.80 L 364.20 331.10 L 361.00 342.70 L 358.40 333.80 L 356.30 324.80 L 354.60 319.30 L 353.10 311.40 L 349.60 286.10 L 348.90 276.90 L 348.70 269.00 L 348.90 261.20 L 349.50 254.50 L 350.40 248.90 L 351.70 243.30 L 354.90 234.70 L 358.70 227.50 L 369.20 214.20 L 371.20 211.00 L 373.00 206.50 L 373.30 203.90 L 373.70 204.60 L 374.20 204.90 L 375.30 204.70 L 377.00 204.00 L 381.80 200.60 L 389.80 193.50 L 394.00 189.20 L 396.20 186.80 L 395.90 186.00 L 399.10 185.80 L 402.20 185.00 L 405.10 183.90 L 416.50 177.60 L 419.50 176.40 L 426.30 174.00 L 439.30 170.50 L 449.00 168.60 L 468.20 166.30 L 516.80 163.40 L 552.90 160.20 L 570.90 157.90 L 582.80 156.00 L 606.50 151.10 L 604.90 159.20 L 602.80 167.10 L 599.80 169.00 L 597.40 171.00 L 595.40 173.30 L 593.50 176.40 Z" fill="#ffcdaa" fill-rule="nonzero" group-id="2" node-id="35" stroke="none" target-height="191.6" target-width="257.8" target-x="348.7" target-y="151.1"></path></g><g node-id="144"><path d="M 369.90 308.10 L 368.60 297.50 L 368.00 288.70 L 367.90 280.50 L 368.20 273.00 L 368.80 266.00 L 370.00 258.80 L 371.50 252.10 L 373.40 246.00 L 375.60 240.30 L 378.20 235.00 L 381.20 229.80 L 384.60 225.00 L 388.20 220.60 L 392.20 216.40 L 396.60 212.60 L 402.30 208.30 L 408.60 204.30 L 415.30 200.80 L 422.60 197.60 L 430.00 194.90 L 437.90 192.60 L 446.20 190.50 L 455.10 188.70 L 466.90 186.90 L 479.30 185.60 L 492.60 184.70 L 546.40 181.50 L 562.10 180.10 L 593.50 176.40 L 594.00 180.30 L 594.60 182.70 L 595.60 184.80 L 602.80 193.10 L 593.00 194.40 L 589.70 195.20 L 587.70 196.10 L 586.00 197.20 L 584.60 198.60 L 583.00 201.90 L 582.70 203.80 L 582.90 207.50 L 584.20 211.00 L 586.80 213.70 L 590.50 215.10 L 596.90 215.30 L 601.20 214.80 L 616.60 211.70 L 610.50 221.20 L 609.80 223.30 L 609.70 225.50 L 610.10 228.20 L 611.20 231.00 L 612.40 233.20 L 613.90 234.80 L 615.40 236.00 L 617.30 236.80 L 621.40 237.40 L 626.90 236.60 L 630.20 235.50 L 638.80 231.30 L 648.60 225.00 L 658.90 217.00 L 669.60 233.30 L 672.50 238.50 L 675.00 243.80 L 677.10 249.60 L 678.80 258.00 L 679.20 262.90 L 679.30 269.90 L 679.10 276.90 L 678.40 283.90 L 677.00 294.30 L 675.10 304.80 L 666.30 346.40 L 647.60 300.80 L 640.50 285.80 L 637.00 279.30 L 633.30 273.40 L 630.00 268.80 L 627.50 266.10 L 625.30 264.30 L 623.30 263.20 L 620.40 262.40 L 617.90 262.20 L 615.60 262.60 L 613.50 263.40 L 611.50 264.60 L 609.70 266.20 L 607.40 269.10 L 605.50 272.40 L 602.80 279.60 L 596.80 281.80 L 584.00 285.30 L 577.30 286.50 L 568.30 287.50 L 559.10 288.10 L 549.70 288.00 L 540.30 287.50 L 530.90 286.60 L 521.50 285.30 L 503.10 281.40 L 485.60 276.40 L 469.60 270.50 L 462.40 267.20 L 444.00 258.00 L 436.30 255.00 L 428.30 253.40 L 424.00 253.20 L 419.40 253.40 L 414.80 254.20 L 409.60 255.60 L 403.80 257.70 L 398.50 260.20 L 394.30 262.60 L 390.80 265.10 L 387.70 268.00 L 385.20 270.80 L 383.20 273.60 L 380.70 278.20 L 379.00 282.70 L 374.10 300.40 L 371.60 305.70 L 369.90 308.10 Z" fill="#3b3a3a" fill-rule="nonzero" group-id="3" node-id="40" stroke="none" target-height="170" target-width="311.4" target-x="367.9" target-y="176.4"></path></g><g node-id="145"><path d="M 616.60 211.70 L 601.20 214.80 L 596.90 215.30 L 590.50 215.10 L 586.80 213.70 L 585.40 212.50 L 583.40 209.30 L 582.60 205.70 L 582.70 203.80 L 583.00 201.90 L 584.60 198.60 L 586.00 197.20 L 587.70 196.10 L 589.70 195.20 L 596.50 193.80 L 615.60 191.30 L 627.00 189.00 L 650.50 183.10 L 648.00 187.90 L 645.20 192.10 L 642.10 196.00 L 638.50 199.40 L 634.70 202.60 L 630.50 205.30 L 621.50 209.90 L 616.60 211.70 Z" fill="#ffcdaa" fill-rule="nonzero" group-id="4" node-id="45" stroke="none" target-height="32.199997" target-width="67.900024" target-x="582.6" target-y="183.1"></path></g><g node-id="146"><path d="M 446.40 505.60 L 439.20 501.30 L 432.50 496.60 L 426.10 491.50 L 420.10 486.00 L 414.50 480.10 L 409.20 473.90 L 404.40 467.30 L 399.90 460.40 L 395.90 453.30 L 392.20 446.00 L 389.00 438.50 L 386.10 430.80 L 383.70 422.90 L 381.60 415.00 L 380.00 407.00 L 378.20 392.60 L 378.00 382.50 L 378.40 378.20 L 380.10 369.80 L 399.20 302.90 L 401.00 297.60 L 403.10 292.80 L 404.70 289.80 L 408.80 284.80 L 411.20 282.80 L 414.10 281.20 L 417.40 280.00 L 420.90 279.30 L 425.10 279.20 L 430.20 279.60 L 429.10 286.40 L 427.50 293.20 L 419.10 319.80 L 406.00 366.60 L 403.50 379.50 L 402.80 385.90 L 402.60 392.60 L 402.80 399.50 L 404.50 413.50 L 407.40 427.10 L 409.30 434.10 L 414.10 448.30 L 420.10 462.10 L 427.30 475.40 L 431.30 481.50 L 435.50 487.30 L 440.20 492.70 L 445.00 497.60 L 455.70 506.70 L 456.80 508.60 L 456.80 509.50 L 456.10 510.40 L 446.40 505.60 Z" fill="#ffffff" fill-rule="nonzero" group-id="5" node-id="50" stroke="none" target-height="231.19998" target-width="78.79999" target-x="378" target-y="279.2"></path></g><g node-id="147"><path d="M 430.20 279.60 L 435.30 281.60 L 455.80 292.00 L 464.10 295.50 L 473.20 298.90 L 482.30 302.00 L 501.90 307.20 L 512.00 309.30 L 522.30 311.00 L 532.70 312.30 L 543.10 313.20 L 553.40 313.50 L 563.60 313.40 L 573.80 312.70 L 583.60 311.50 L 593.00 309.70 L 600.00 307.90 L 606.70 305.70 L 613.10 303.20 L 619.20 300.30 L 623.40 309.10 L 629.10 322.20 L 635.50 337.70 L 641.50 353.30 L 646.20 367.00 L 648.60 376.70 L 649.20 382.90 L 649.40 389.20 L 649.10 395.50 L 648.50 402.00 L 647.00 410.50 L 644.90 419.10 L 642.10 427.70 L 638.80 436.10 L 635.00 444.30 L 630.70 452.40 L 625.80 460.20 L 620.60 467.70 L 615.10 474.90 L 609.10 481.70 L 602.80 488.00 L 596.40 493.80 L 589.50 499.20 L 582.60 503.90 L 575.60 508.00 L 565.10 512.60 L 558.80 514.70 L 545.70 518.00 L 538.40 519.30 L 523.80 521.10 L 508.60 521.80 L 493.90 521.10 L 486.60 520.30 L 479.80 519.10 L 473.30 517.50 L 466.90 515.50 L 461.20 513.10 L 456.10 510.40 L 456.80 509.50 L 456.80 508.60 L 455.70 506.70 L 445.00 497.60 L 440.20 492.70 L 435.50 487.30 L 431.30 481.50 L 427.30 475.40 L 420.10 462.10 L 414.10 448.30 L 409.30 434.10 L 405.80 420.10 L 403.60 407.20 L 402.80 399.50 L 402.60 392.60 L 402.80 385.90 L 404.60 373.20 L 409.80 352.40 L 419.10 319.80 L 427.50 293.20 L 429.10 286.40 L 430.20 279.60 Z M 573.30 355.10 L 570.40 355.90 L 568.00 357.10 L 565.90 358.90 L 564.20 361.10 L 562.70 363.70 L 561.60 366.60 L 560.50 372.90 L 560.40 376.20 L 560.80 379.50 L 562.40 385.60 L 563.80 388.40 L 565.50 390.70 L 567.50 392.80 L 569.20 394.00 L 573.30 395.50 L 575.80 395.70 L 578.50 394.50 L 580.80 392.80 L 582.90 390.70 L 584.60 388.30 L 587.20 382.60 L 587.90 379.50 L 588.40 373.20 L 588.20 370.00 L 586.60 364.30 L 585.30 361.70 L 583.60 359.50 L 581.60 357.70 L 579.90 356.60 L 575.80 355.30 L 573.30 355.10 Z M 449.50 355.10 L 446.60 356.00 L 444.00 357.40 L 441.80 359.30 L 440.00 361.60 L 438.40 364.20 L 437.30 367.10 L 436.00 373.30 L 435.90 376.60 L 436.20 379.80 L 437.80 385.70 L 439.20 388.50 L 441.00 390.80 L 443.20 392.80 L 445.00 394.00 L 449.40 395.40 L 452.00 395.70 L 454.70 394.70 L 457.00 393.20 L 459.00 391.20 L 460.70 388.80 L 462.10 386.20 L 463.20 383.20 L 464.40 377.00 L 464.40 373.70 L 464.20 370.50 L 462.60 364.70 L 461.30 362.00 L 459.70 359.70 L 457.70 357.80 L 456.00 356.70 L 451.90 355.40 L 449.50 355.10 Z M 492.60 425.00 L 488.80 426.00 L 485.40 427.20 L 482.60 428.80 L 480.20 430.70 L 478.10 432.90 L 476.30 435.40 L 474.90 438.10 L 473.90 441.00 L 473.10 445.10 L 472.80 449.40 L 473.10 454.00 L 473.90 458.50 L 475.30 463.10 L 477.20 467.60 L 479.50 471.90 L 482.30 475.90 L 485.50 479.70 L 489.10 483.10 L 493.10 485.90 L 497.40 488.30 L 500.90 489.60 L 504.50 490.60 L 508.30 491.20 L 512.40 491.30 L 516.40 491.00 L 520.60 490.20 L 525.00 488.80 L 529.70 486.70 L 533.60 484.20 L 537.10 481.40 L 540.40 478.10 L 543.30 474.50 L 545.90 470.60 L 548.00 466.60 L 549.80 462.40 L 551.20 458.20 L 552.10 454.00 L 552.50 449.80 L 552.40 445.80 L 551.90 441.90 L 551.10 439.10 L 548.60 434.20 L 544.90 430.10 L 542.60 428.50 L 539.80 427.10 L 536.60 425.90 L 529.90 425.00 L 520.50 424.60 L 492.60 425.00 Z" fill="#ffcdaa" fill-rule="nonzero" group-id="6" node-id="55" stroke="none" target-height="242.19998" target-width="246.80002" target-x="402.6" target-y="279.6"></path></g><g node-id="148"><path d="M 575.80 395.70 L 573.30 395.50 L 569.20 394.00 L 567.50 392.80 L 565.50 390.70 L 563.80 388.40 L 562.40 385.60 L 560.80 379.50 L 560.40 376.20 L 560.90 369.70 L 561.60 366.60 L 562.70 363.70 L 564.20 361.10 L 565.90 358.90 L 568.00 357.10 L 570.40 355.90 L 573.30 355.10 L 575.80 355.30 L 578.00 355.80 L 581.60 357.70 L 583.60 359.50 L 585.30 361.70 L 586.60 364.30 L 588.20 370.00 L 588.40 373.20 L 587.90 379.50 L 586.00 385.60 L 584.60 388.30 L 582.90 390.70 L 580.80 392.80 L 578.50 394.50 L 575.80 395.70 Z" fill="#000000" fill-rule="nonzero" group-id="7" node-id="60" stroke="none" target-height="40.600006" target-width="28" target-x="560.4" target-y="355.1"></path></g><g node-id="149"><path d="M 452.00 395.70 L 449.40 395.40 L 445.00 394.00 L 443.20 392.80 L 441.00 390.80 L 439.20 388.50 L 437.80 385.70 L 436.20 379.80 L 435.90 376.60 L 436.40 370.20 L 438.40 364.20 L 440.00 361.60 L 441.80 359.30 L 444.00 357.40 L 446.60 356.00 L 449.50 355.10 L 451.90 355.40 L 454.10 355.90 L 457.70 357.80 L 459.70 359.70 L 461.30 362.00 L 462.60 364.70 L 464.20 370.50 L 464.40 373.70 L 463.90 380.10 L 462.10 386.20 L 460.70 388.80 L 459.00 391.20 L 457.00 393.20 L 454.70 394.70 L 452.00 395.70 Z" fill="#000000" fill-rule="nonzero" group-id="8" node-id="65" stroke="none" target-height="40.600006" target-width="28.5" target-x="435.9" target-y="355.1"></path></g><g node-id="150"><path d="M 672.80 410.20 L 672.90 404.20 L 674.40 374.30 L 680.50 375.90 L 683.00 377.10 L 687.20 380.50 L 690.10 384.70 L 691.70 389.50 L 691.90 391.90 L 691.20 397.10 L 690.40 399.60 L 687.40 404.40 L 685.20 406.80 L 682.20 408.40 L 679.20 409.40 L 672.80 410.20 Z" fill="#ffcdaa" fill-rule="nonzero" group-id="9" node-id="70" stroke="none" target-height="35.900024" target-width="19.100037" target-x="672.8" target-y="374.3"></path></g><g node-id="151"><path d="M 340.80 406.80 L 336.90 401.50 L 334.90 396.60 L 334.40 391.70 L 335.30 387.30 L 336.70 384.60 L 338.70 382.20 L 341.30 380.00 L 344.20 378.30 L 347.80 377.00 L 352.40 376.20 L 354.60 410.20 L 347.50 409.30 L 344.20 408.30 L 340.80 406.80 Z" fill="#ffcdaa" fill-rule="nonzero" group-id="10" node-id="75" stroke="none" target-height="34" target-width="20.200012" target-x="334.4" target-y="376.2"></path></g><g node-id="152"><path d="M 529.70 486.70 L 525.00 488.80 L 520.60 490.20 L 516.40 491.00 L 512.40 491.30 L 508.30 491.20 L 504.50 490.60 L 500.90 489.60 L 497.40 488.30 L 493.10 485.90 L 489.10 483.10 L 485.50 479.70 L 482.30 475.90 L 479.50 471.90 L 477.20 467.60 L 475.30 463.10 L 473.90 458.50 L 473.10 454.00 L 472.80 449.40 L 473.10 445.10 L 473.90 441.00 L 474.90 438.10 L 476.30 435.40 L 478.10 432.90 L 480.20 430.70 L 482.60 428.80 L 485.40 427.20 L 488.80 426.00 L 492.60 425.00 L 520.50 424.60 L 529.90 425.00 L 536.60 425.90 L 539.80 427.10 L 542.60 428.50 L 544.90 430.10 L 546.90 432.00 L 550.00 436.60 L 551.90 441.90 L 552.40 445.80 L 552.50 449.80 L 552.10 454.00 L 551.20 458.20 L 549.80 462.40 L 548.00 466.60 L 545.90 470.60 L 543.30 474.50 L 540.40 478.10 L 537.10 481.40 L 533.60 484.20 L 529.70 486.70 Z M 498.10 450.00 L 497.00 450.70 L 497.00 452.50 L 498.10 456.10 L 499.70 458.60 L 501.90 460.90 L 504.40 462.90 L 507.10 464.50 L 512.20 466.70 L 517.50 465.10 L 522.40 462.30 L 524.10 460.40 L 526.30 456.60 L 528.20 450.00 L 498.10 450.00 Z" fill="#000000" fill-rule="nonzero" group-id="11" node-id="80" stroke="none" target-height="66.69998" target-width="79.70001" target-x="472.8" target-y="424.6"></path></g><g node-id="153"><path d="M 512.20 466.70 L 507.10 464.50 L 504.40 462.90 L 501.90 460.90 L 499.70 458.60 L 498.10 456.10 L 497.00 452.50 L 497.00 450.70 L 498.10 450.00 L 528.20 450.00 L 526.30 456.60 L 524.10 460.40 L 522.40 462.30 L 517.50 465.10 L 512.20 466.70 Z" fill="#ff403b" fill-rule="nonzero" group-id="12" node-id="85" stroke="none" target-height="16.700012" target-width="31.200012" target-x="497" target-y="450"></path></g><g node-id="154"><path d="M 478.90 544.20 L 487.60 545.10 L 496.10 546.60 L 496.20 559.60 L 497.10 568.30 L 498.10 572.50 L 500.20 573.80 L 506.00 576.00 L 511.00 577.00 L 516.80 577.70 L 528.80 578.10 L 549.10 577.10 L 552.90 578.90 L 564.90 583.40 L 553.20 589.20 L 542.70 593.90 L 535.70 596.60 L 529.00 598.60 L 522.60 600.20 L 517.70 601.00 L 508.00 601.50 L 498.30 600.60 L 488.00 598.00 L 477.40 593.70 L 466.00 587.40 L 459.60 583.40 L 474.30 577.40 L 478.90 574.80 L 479.20 567.30 L 478.90 544.20 Z" fill="#ffcdaa" fill-rule="nonzero" group-id="13" node-id="90" stroke="none" target-height="57.299988" target-width="105.30002" target-x="459.6" target-y="544.2"></path></g><g node-id="155"><path d="M 496.10 546.60 L 513.50 546.40 L 546.40 544.20 L 545.90 557.50 L 546.00 565.50 L 546.90 572.50 L 547.50 574.50 L 549.10 577.10 L 528.80 578.10 L 516.80 577.70 L 511.00 577.00 L 506.00 576.00 L 500.20 573.80 L 498.10 572.50 L 497.10 568.30 L 496.20 559.60 L 496.10 546.60 Z" fill="#f99352" fill-rule="nonzero" group-id="14" node-id="95" stroke="none" target-height="33.899963" target-width="52.99997" target-x="496.1" target-y="544.2"></path></g><g node-id="156"><path d="M 200.70 629.60 L 202.60 625.20 L 203.80 617.50 L 204.00 612.00 L 203.70 588.80 L 203.90 583.20 L 205.00 575.20 L 206.80 570.40 L 208.20 568.60 L 209.90 567.20 L 211.90 566.40 L 216.60 565.90 L 219.90 566.80 L 221.60 568.10 L 223.10 569.80 L 224.20 571.90 L 225.30 575.50 L 226.00 579.60 L 226.30 587.80 L 226.20 683.80 L 227.10 703.90 L 226.90 708.80 L 226.20 713.20 L 225.30 715.90 L 224.10 718.40 L 222.50 720.50 L 220.50 722.30 L 217.90 723.80 L 214.60 724.90 L 212.00 723.60 L 208.10 720.40 L 206.70 718.50 L 205.30 715.70 L 204.20 712.60 L 203.60 709.20 L 203.20 703.90 L 204.10 680.30 L 203.80 674.80 L 203.20 671.20 L 202.10 667.90 L 200.70 664.90 L 201.30 637.70 L 200.70 629.60 Z" fill="#03ede2" fill-rule="nonzero" group-id="15" node-id="100" stroke="none" target-height="159" target-width="26.40001" target-x="200.7" target-y="565.9"></path></g><g node-id="157"><path d="M 459.60 614.40 L 463.40 614.50 L 466.20 615.20 L 482.20 620.50 L 489.30 622.60 L 499.60 624.70 L 511.30 625.90 L 517.60 625.80 L 524.30 625.40 L 531.00 624.40 L 538.20 622.80 L 545.80 620.40 L 557.10 615.70 L 563.20 612.50 L 573.70 605.90 L 589.40 593.80 L 593.50 591.10 L 613.20 597.50 L 666.30 612.40 L 672.20 614.30 L 680.70 617.80 L 686.60 621.70 L 689.20 624.10 L 691.60 627.00 L 693.90 630.30 L 695.80 633.90 L 697.60 638.30 L 699.30 643.50 L 697.70 643.60 L 695.80 643.10 L 685.60 637.60 L 674.50 633.20 L 651.70 625.70 L 635.10 620.90 L 619.10 616.90 L 605.30 614.00 L 595.40 612.70 L 587.50 617.80 L 571.80 626.90 L 563.90 630.90 L 555.80 634.30 L 547.60 637.30 L 535.00 640.60 L 521.80 642.50 L 515.20 642.80 L 508.30 642.60 L 501.10 642.00 L 493.60 640.90 L 488.80 639.80 L 473.80 635.00 L 469.70 634.00 L 465.30 633.30 L 459.60 632.90 L 459.60 614.40 Z" fill="#03ede2" fill-rule="nonzero" group-id="16" node-id="105" stroke="none" target-height="52.5" target-width="239.69998" target-x="459.6" target-y="591.1"></path></g><g node-id="158"><path d="M 249.80 612.70 L 250.40 614.90 L 251.30 616.40 L 252.50 617.50 L 255.50 618.80 L 257.40 619.00 L 271.20 618.80 L 299.10 619.30 L 312.70 618.90 L 326.30 618.10 L 339.90 616.90 L 353.40 615.20 L 366.80 613.00 L 380.40 610.30 L 394.10 607.10 L 401.00 605.10 L 421.50 597.70 L 426.10 596.20 L 435.40 594.30 L 435.40 675.40 L 436.30 692.20 L 436.40 703.20 L 436.00 708.60 L 435.30 713.30 L 433.50 718.80 L 431.20 721.90 L 428.40 723.20 L 426.70 723.40 L 422.30 722.10 L 414.70 719.00 L 391.80 709.10 L 380.90 705.30 L 370.70 702.30 L 361.10 700.00 L 351.50 698.20 L 342.30 696.90 L 333.40 696.30 L 324.50 696.00 L 306.70 696.70 L 293.40 698.00 L 279.50 700.00 L 249.80 704.80 L 249.50 621.20 L 249.80 612.70 Z" fill="#b7f1f8" fill-rule="nonzero" group-id="17" node-id="110" stroke="none" target-height="129.10004" target-width="186.9" target-x="249.5" target-y="594.3"></path></g><g node-id="159"><path d="M 391.40 735.70 L 407.20 743.50 L 416.20 747.20 L 420.00 748.20 L 424.00 748.70 L 428.50 748.90 L 436.00 748.00 L 439.10 747.20 L 444.80 744.40 L 449.20 740.60 L 451.60 737.60 L 453.60 734.30 L 455.30 730.50 L 457.60 722.60 L 459.10 711.70 L 459.50 705.10 L 459.60 642.00 L 459.30 621.60 L 459.60 614.40 L 459.60 632.90 L 465.30 633.30 L 469.70 634.00 L 473.80 635.00 L 488.80 639.80 L 493.60 640.90 L 501.10 642.00 L 508.30 642.60 L 515.20 642.80 L 521.80 642.50 L 535.00 640.60 L 547.60 637.30 L 555.80 634.30 L 563.90 630.90 L 571.80 626.90 L 587.50 617.80 L 595.40 612.70 L 605.30 614.00 L 619.10 616.90 L 635.10 620.90 L 651.70 625.70 L 674.50 633.20 L 685.60 637.60 L 695.80 643.10 L 697.70 643.60 L 699.30 643.50 L 702.50 654.20 L 705.60 666.20 L 710.90 691.60 L 715.10 717.30 L 717.60 741.10 L 707.90 741.10 L 668.70 742.40 L 658.90 742.50 L 659.30 727.70 L 659.10 719.20 L 658.60 715.10 L 657.10 709.40 L 655.20 706.30 L 653.50 705.00 L 651.70 704.10 L 647.60 703.40 L 643.40 704.10 L 639.60 705.90 L 638.00 707.20 L 636.40 709.30 L 635.10 711.60 L 634.10 714.20 L 633.30 718.40 L 632.90 727.60 L 633.40 740.30 L 633.40 778.50 L 550.70 778.40 L 522.10 777.80 L 515.00 778.20 L 508.10 779.10 L 503.60 780.10 L 499.20 781.50 L 495.00 783.30 L 491.00 785.50 L 487.10 788.20 L 483.30 791.60 L 479.90 795.40 L 477.10 799.40 L 474.70 803.60 L 472.90 807.90 L 471.50 812.40 L 470.60 816.90 L 470.20 821.60 L 470.20 826.30 L 470.70 831.00 L 471.60 835.70 L 473.00 840.30 L 474.90 845.00 L 465.90 845.50 L 447.40 845.00 L 386.30 845.00 L 388.30 839.70 L 389.80 834.40 L 390.70 829.10 L 391.50 821.00 L 391.40 735.70 Z" fill="#06b8a2" fill-rule="nonzero" group-id="18" node-id="115" stroke="none" target-height="232.79999" target-width="331.3" target-x="386.3" target-y="612.7"></path></g><g node-id="160"><path d="M 194.00 632.90 L 197.50 631.40 L 200.70 629.60 L 201.30 637.70 L 200.70 664.90 L 197.50 663.00 L 194.00 661.50 L 194.30 658.20 L 194.00 632.90 Z" fill="#b7f1f8" fill-rule="nonzero" group-id="19" node-id="120" stroke="none" target-height="35.30005" target-width="7.300003" target-x="194" target-y="629.6"></path></g><g node-id="161"><path d="M 296.50 720.90 L 321.00 720.90 L 321.90 744.20 L 321.60 749.00 L 320.50 755.10 L 318.40 760.40 L 316.90 762.50 L 315.00 764.40 L 312.80 765.80 L 310.10 766.80 L 306.80 767.50 L 303.80 765.30 L 301.30 763.00 L 299.50 760.50 L 298.00 757.80 L 296.90 754.90 L 296.10 751.90 L 295.50 747.10 L 295.40 742.10 L 296.50 720.90 Z" fill="#ffcdaa" fill-rule="nonzero" group-id="20" node-id="125" stroke="none" target-height="46.599976" target-width="26.5" target-x="295.4" target-y="720.9"></path></g><g node-id="162"><path d="M 321.00 788.90 L 325.30 787.00 L 329.00 785.00 L 332.10 782.70 L 334.70 780.40 L 339.10 774.70 L 342.10 768.50 L 343.40 764.00 L 344.40 759.30 L 344.90 754.30 L 345.30 746.70 L 345.40 723.20 L 355.80 724.70 L 366.20 726.80 L 366.20 792.10 L 366.90 815.40 L 366.60 821.40 L 365.80 827.00 L 365.00 830.60 L 363.80 833.90 L 362.30 836.90 L 360.30 839.60 L 357.90 842.00 L 354.90 844.00 L 352.50 845.10 L 346.30 846.50 L 342.50 846.80 L 338.90 846.30 L 333.20 844.30 L 331.00 843.00 L 328.20 840.70 L 326.00 838.00 L 324.20 835.00 L 321.70 828.10 L 321.00 824.20 L 320.40 818.30 L 320.20 812.00 L 321.00 788.90 Z" fill="#ffcdaa" fill-rule="nonzero" group-id="21" node-id="130" stroke="none" target-height="123.599976" target-width="46.69998" target-x="320.2" target-y="723.2"></path></g><g node-id="163"><path d="M 658.90 796.70 L 659.50 787.50 L 658.90 767.50 L 688.20 766.60 L 695.50 766.80 L 702.60 767.50 L 702.60 796.70 L 658.90 796.70 Z" fill="#f99352" fill-rule="nonzero" group-id="22" node-id="135" stroke="none" target-height="30.100037" target-width="43.69995" target-x="658.9" target-y="766.6"></path></g><path d="M 658.90 796.70 L 702.60 796.70 L 702.40 803.70 L 701.90 809.60 L 701.00 814.60 L 699.90 818.90 L 698.30 823.20 L 696.40 826.80 L 694.30 829.90 L 691.90 832.50 L 689.20 834.80 L 686.20 836.80 L 682.80 838.40 L 679.10 839.70 L 674.00 841.00 L 668.20 841.90 L 661.80 842.50 L 640.50 843.00 L 539.80 843.00 L 524.50 843.50 L 515.80 843.30 L 511.50 842.90 L 505.40 841.30 L 501.70 839.20 L 497.80 834.80 L 495.40 829.90 L 494.40 824.50 L 494.90 819.10 L 496.80 813.90 L 500.20 809.10 L 502.40 807.30 L 505.00 805.70 L 508.20 804.50 L 515.00 802.80 L 519.00 802.40 L 531.00 801.90 L 551.90 802.60 L 611.40 802.70 L 636.30 803.20 L 647.10 802.20 L 651.60 801.10 L 654.50 800.10 L 656.70 798.80 L 658.90 796.70 Z" fill="#ffcdaa" fill-rule="nonzero" group-id="23" node-id="140" stroke="none" target-height="46.799988" target-width="208.19998" target-x="494.4" target-y="796.7"></path></svg>